<?xml version="1.0" encoding="UTF-8"?>
<svg xmlns="http://www.w3.org/2000/svg" xmlns:xlink="http://www.w3.org/1999/xlink" width="600pt" height="600pt" viewBox="0 0 600 600" version="1.1">
<defs>
<clipPath id="clip1">
  <path d="M 195 192 L 471 192 L 471 501 L 195 501 Z M 195 192 "/>
</clipPath>
<clipPath id="clip2">
  <path d="M 286.082031 16.417969 L 16.417969 286.085938 C 8.730469 293.769531 8.730469 306.230469 16.417969 313.917969 L 286.082031 583.582031 C 293.769531 591.269531 306.230469 591.269531 313.917969 583.582031 L 583.582031 313.917969 C 591.269531 306.230469 591.269531 293.769531 583.582031 286.085938 L 313.917969 16.417969 C 310.074219 12.574219 305.035156 10.652344 300 10.652344 C 294.964844 10.652344 289.925781 12.574219 286.082031 16.417969 "/>
</clipPath>
</defs>
<g id="surface1">
<path style=" stroke:none;fill-rule:nonzero;fill:rgb(41.19873%,47.499084%,48.999023%);fill-opacity:1;" d="M 300 584.347656 C 296.078125 584.347656 292.390625 582.820313 289.617188 580.046875 L 19.953125 310.382813 C 17.179688 307.609375 15.652344 303.921875 15.652344 300 C 15.652344 296.078125 17.179688 292.390625 19.953125 289.617188 L 289.617188 19.953125 C 292.390625 17.179688 296.078125 15.652344 300 15.652344 C 303.921875 15.652344 307.609375 17.179688 310.382813 19.953125 L 580.046875 289.617188 C 582.820313 292.390625 584.347656 296.078125 584.347656 300 C 584.347656 303.921875 582.820313 307.609375 580.046875 310.382813 L 310.382813 580.046875 C 307.609375 582.820313 303.921875 584.347656 300 584.347656 "/>
<path style=" stroke:none;fill-rule:nonzero;fill:rgb(100%,100%,100%);fill-opacity:1;" d="M 300 10.652344 C 294.964844 10.652344 289.925781 12.574219 286.082031 16.414063 L 16.417969 286.082031 C 8.730469 293.769531 8.730469 306.230469 16.417969 313.917969 L 286.082031 583.582031 C 289.925781 587.425781 294.964844 589.347656 300 589.347656 C 305.035156 589.347656 310.074219 587.425781 313.917969 583.582031 L 583.582031 313.917969 C 591.269531 306.230469 591.269531 293.769531 583.582031 286.082031 L 313.917969 16.414063 C 310.074219 12.574219 305.035156 10.652344 300 10.652344 M 300 20.652344 C 302.585938 20.652344 305.015625 21.660156 306.847656 23.488281 L 576.511719 293.152344 C 580.285156 296.929688 580.285156 303.070313 576.511719 306.84375 L 306.847656 576.511719 C 305.015625 578.339844 302.585938 579.347656 300 579.347656 C 297.414063 579.347656 294.984375 578.339844 293.152344 576.511719 L 23.488281 306.84375 C 19.714844 303.070313 19.714844 296.929688 23.488281 293.152344 L 293.152344 23.488281 C 294.984375 21.660156 297.414063 20.652344 300 20.652344 "/>
<g clip-path="url(#clip1)" clip-rule="nonzero">
<g clip-path="url(#clip2)" clip-rule="nonzero">
<path style=" stroke:none;fill-rule:nonzero;fill:rgb(100%,100%,100%);fill-opacity:1;" d="M 470.777344 445.433594 C 470.777344 445.433594 443.125 411.351563 442.675781 409.367188 C 442.230469 407.378906 445.996094 385.851563 445.726563 369.839844 C 445.453125 353.828125 434.460938 325.410156 435.988281 319.222656 C 437.511719 313.035156 449.71875 259.035156 449.320313 255.890625 C 448.925781 252.742188 436.699219 244.335938 423.855469 251.71875 C 411.015625 259.101563 406.789063 283.847656 404.378906 289.820313 C 401.96875 295.789063 399.867188 302.304688 392.757813 306.359375 C 381.628906 312.710938 376.816406 304.007813 368.558594 294.703125 C 364.546875 290.183594 339.425781 228.148438 334.375 219.167969 C 329.324219 210.183594 323.289063 186.527344 305.488281 193.761719 C 286.648438 201.414063 310.773438 247.628906 313.109375 253.363281 C 315.445313 259.097656 327.355469 288.761719 328.417969 293.011719 C 329.480469 297.257813 326.941406 299.164063 324.019531 300.554688 C 321.097656 301.945313 320.007813 305.238281 310.089844 293.179688 C 300.167969 281.121094 276.410156 254.347656 272.921875 250.441406 C 269.429688 246.53125 249.554688 224.390625 243.203125 222.589844 C 236.847656 220.785156 220.308594 228.902344 224.824219 241.972656 C 229.335938 255.039063 253.882813 274.863281 264.910156 288.132813 C 275.941406 301.402344 300.570313 322.164063 297.121094 329.601563 C 293.921875 336.496094 278.324219 324.785156 263.808594 316.257813 C 249.296875 307.726563 219.625 287.03125 215.539063 286.492188 C 211.449219 285.953125 198.984375 288.972656 199.300781 301.945313 C 199.617188 314.917969 226.851563 328.480469 234.152344 333.097656 C 241.457031 337.710938 279.238281 360.480469 276.429688 368.8125 C 274.679688 374.007813 254.449219 366.671875 242.511719 361.851563 C 230.570313 357.03125 201.574219 346.324219 197.535156 355.226563 C 191.886719 367.664063 194.800781 378.457031 227.078125 390.171875 C 259.359375 401.882813 265.824219 406.597656 272.574219 411.542969 C 279.324219 416.492188 299.753906 444.230469 324.949219 454.183594 C 340.757813 460.425781 359.371094 467.140625 370.351563 465.394531 C 379.726563 469.164063 399.453125 500.59375 399.453125 500.59375 C 399.453125 500.59375 422.296875 494.652344 439.730469 480.746094 C 457.164063 466.839844 470.777344 445.433594 470.777344 445.433594 "/>
</g>
</g>
<path style=" stroke:none;fill-rule:nonzero;fill:rgb(100%,100%,100%);fill-opacity:1;" d="M 410.078125 170.238281 L 383.007813 238.964844 C 381.421875 242.988281 379.195313 242.398438 379.808594 238.117188 L 390.277344 164.996094 C 390.695313 162.066406 392.265625 159.402344 393.390625 159.699219 L 409.996094 164.09375 C 411.121094 164.394531 411.164063 167.484375 410.078125 170.238281 "/>
<path style=" stroke:none;fill-rule:nonzero;fill:rgb(100%,100%,100%);fill-opacity:1;" d="M 250.015625 152.003906 L 264.699219 188.226563 C 265.558594 190.347656 264.1875 191.164063 262.730469 189.402344 L 237.820313 159.277344 C 236.824219 158.070313 236.515625 156.429688 237.210938 156.015625 L 247.4375 149.914063 C 248.128906 149.5 249.429688 150.550781 250.015625 152.003906 "/>
<path style=" stroke:none;fill-rule:nonzero;fill:rgb(100%,100%,100%);fill-opacity:1;" d="M 162.117188 218.433594 L 198.59375 252.722656 C 200.730469 254.730469 199.78125 256.015625 197.234375 254.570313 L 153.691406 229.867188 C 151.945313 228.875 150.664063 227.214844 151.144531 226.5625 L 158.210938 216.980469 C 158.691406 216.328125 160.65625 217.0625 162.117188 218.433594 "/>
<path style=" stroke:none;fill-rule:nonzero;fill:rgb(100%,100%,100%);fill-opacity:1;" d="M 136.488281 320.371094 L 169.503906 334.128906 C 171.433594 334.9375 171.136719 335.960938 169.074219 335.601563 L 133.835938 329.484375 C 132.425781 329.238281 131.148438 328.464844 131.300781 327.945313 L 133.523438 320.308594 C 133.675781 319.789063 135.167969 319.820313 136.488281 320.371094 "/>
<path style=" stroke:none;fill-rule:nonzero;fill:rgb(100%,100%,100%);fill-opacity:1;" d="M 183.695313 412.5625 L 220.839844 406.160156 C 223.011719 405.785156 223.476563 407.191406 221.503906 408.183594 L 187.824219 425.101563 C 186.476563 425.78125 184.871094 425.742188 184.636719 425.03125 L 181.171875 414.515625 C 180.9375 413.800781 182.207031 412.820313 183.695313 412.5625 "/>
<path style=" stroke:none;fill-rule:nonzero;fill:rgb(100%,100%,100%);fill-opacity:1;" d="M 334.367188 136.933594 L 324.941406 168.789063 C 324.390625 170.65625 322.984375 170.476563 322.925781 168.53125 L 321.894531 135.324219 C 321.855469 133.992188 322.53125 132.738281 323.242188 132.828125 L 333.699219 134.179688 C 334.410156 134.273438 334.746094 135.65625 334.367188 136.933594 "/>
</g>
</svg>
