<svg version="1.2" xmlns="http://www.w3.org/2000/svg" viewBox="0 0 6 7" width="6" height="7"><defs><clipPath clipPathUnits="userSpaceOnUse" id="cp1"><path d="m-1151-499h1224v792h-1224z"/></clipPath><clipPath clipPathUnits="userSpaceOnUse" id="cp2"><path d="m5.25-3.28q0.23 0.27 0.44 0.55v12.53q-0.16 0.21-0.33 0.42h-16.2q-0.17-0.21-0.33-0.42v-12.53q0.21-0.28 0.44-0.55z"/></clipPath></defs><style>.a{fill:#e26969}.b{fill:#fff}.c{fill:none;stroke:#fff;stroke-width:.7}</style><g clip-path="url(#cp1)"><g clip-path="url(#cp2)"><circle class="a" cx="3" cy="3.7" r="2.5"/><path fill-rule="evenodd" class="b" d="m5.7 3.7c0 1.5-1.2 2.7-2.7 2.7-1.5 0-2.7-1.2-2.7-2.7 0-1.5 1.2-2.7 2.7-2.7 1.5 0 2.7 1.2 2.7 2.7zm-5 0c0 1.2 1 2.2 2.3 2.2 1.2 0 2.2-1 2.2-2.2 0-1.2-1-2.2-2.2-2.2-1.3 0-2.3 1-2.3 2.2z"/><path class="c" d="m1.1 5.5l3.7-3.6"/></g></g></svg>