<?xml version="1.0" encoding="UTF-8"?>
<svg xmlns="http://www.w3.org/2000/svg" xmlns:xlink="http://www.w3.org/1999/xlink" width="600pt" height="600pt" viewBox="0 0 600 600" version="1.1">
<g id="surface1">
<path style=" stroke:none;fill-rule:nonzero;fill:rgb(28.999329%,59.199524%,82.398987%);fill-opacity:1;" d="M 300 584.347656 C 296.078125 584.347656 292.390625 582.820313 289.617188 580.046875 L 19.953125 310.382813 C 14.230469 304.65625 14.230469 295.34375 19.953125 289.617188 L 289.617188 19.953125 C 292.390625 17.179688 296.078125 15.652344 300 15.652344 C 303.921875 15.652344 307.609375 17.179688 310.382813 19.953125 L 580.046875 289.617188 C 585.769531 295.34375 585.769531 304.65625 580.046875 310.382813 L 310.382813 580.046875 C 307.609375 582.820313 303.921875 584.347656 300 584.347656 "/>
<path style=" stroke:none;fill-rule:nonzero;fill:rgb(100%,100%,100%);fill-opacity:1;" d="M 300 10.652344 C 294.964844 10.652344 289.925781 12.574219 286.085938 16.417969 L 16.417969 286.085938 C 8.730469 293.769531 8.730469 306.230469 16.417969 313.917969 L 286.085938 583.582031 C 289.925781 587.425781 294.964844 589.347656 300 589.347656 C 305.035156 589.347656 310.074219 587.425781 313.917969 583.582031 L 583.585938 313.917969 C 591.269531 306.230469 591.269531 293.769531 583.585938 286.085938 L 313.917969 16.417969 C 310.074219 12.574219 305.035156 10.652344 300 10.652344 M 300 20.652344 C 302.585938 20.652344 305.019531 21.660156 306.847656 23.488281 L 576.511719 293.15625 C 578.339844 294.980469 579.347656 297.414063 579.347656 300 C 579.347656 302.585938 578.339844 305.015625 576.511719 306.847656 L 306.847656 576.511719 C 305.019531 578.339844 302.585938 579.347656 300 579.347656 C 297.414063 579.347656 294.984375 578.339844 293.152344 576.511719 L 23.488281 306.847656 C 19.714844 303.070313 19.714844 296.929688 23.488281 293.15625 L 293.152344 23.488281 C 294.984375 21.660156 297.414063 20.652344 300 20.652344 "/>
<path style=" stroke:none;fill-rule:nonzero;fill:rgb(100%,100%,100%);fill-opacity:1;" d="M 425.457031 406.003906 C 425.457031 406.003906 400.613281 412.476563 360.960938 393.507813 C 334.71875 405.433594 310.8125 410.03125 283.941406 405.433594 C 265.359375 402.257813 247.515625 396.542969 229.3125 391.53125 C 201.773438 383.949219 176.601563 378.460938 173.523438 373.742188 C 168.410156 365.902344 156.1875 324.488281 177.273438 273.890625 C 189.550781 244.425781 200.8125 221.53125 202.492188 209.480469 C 203.085938 205.210938 203.855469 173.015625 251.226563 156.316406 C 298.597656 139.613281 329.609375 145.410156 337.445313 160.402344 C 345.285156 175.398438 344.25 212.023438 335.402344 211.183594 C 321.523438 209.863281 307.835938 216.5625 294.421875 215.195313 C 281.003906 213.835938 265.539063 204.414063 261.449219 206.945313 C 257.359375 209.480469 254.007813 224.898438 251.90625 235.871094 C 248.8125 252.03125 262.8125 276.691406 263.835938 295.859375 C 270.308594 290.246094 289.53125 280.515625 312.910156 279.683594 C 334.09375 278.929688 342.21875 284.113281 357.554688 299.449219 C 362.664063 295.28125 387.238281 277.328125 428.8125 279.03125 C 429.058594 306.140625 434.824219 326.65625 434.824219 356.492188 C 434.824219 402.691406 425.457031 406.003906 425.457031 406.003906 "/>
</g>
</svg>
