<?xml version="1.0" encoding="UTF-8"?>
<svg xmlns="http://www.w3.org/2000/svg" xmlns:xlink="http://www.w3.org/1999/xlink" width="600pt" height="600pt" viewBox="0 0 600 600" version="1.1">
<g id="surface1">
<path style=" stroke:none;fill-rule:nonzero;fill:rgb(89.7995%,38.398743%,14.498901%);fill-opacity:1;" d="M 300 584.347656 C 296.078125 584.347656 292.390625 582.820313 289.617188 580.046875 L 19.953125 310.382813 C 17.179688 307.609375 15.652344 303.921875 15.652344 300 C 15.652344 296.078125 17.179688 292.390625 19.953125 289.617188 L 289.617188 19.953125 C 292.390625 17.179688 296.078125 15.652344 300 15.652344 C 303.921875 15.652344 307.609375 17.179688 310.382813 19.953125 L 580.046875 289.617188 C 582.820313 292.390625 584.347656 296.078125 584.347656 300 C 584.347656 303.921875 582.820313 307.609375 580.046875 310.382813 L 310.382813 580.046875 C 307.609375 582.820313 303.921875 584.347656 300 584.347656 "/>
<path style=" stroke:none;fill-rule:nonzero;fill:rgb(100%,100%,100%);fill-opacity:1;" d="M 300 10.652344 C 294.964844 10.652344 289.925781 12.574219 286.085938 16.414063 L 16.417969 286.082031 C 8.730469 293.769531 8.730469 306.230469 16.417969 313.917969 L 286.085938 583.582031 C 289.925781 587.425781 294.964844 589.347656 300 589.347656 C 305.035156 589.347656 310.074219 587.425781 313.917969 583.582031 L 583.585938 313.917969 C 591.269531 306.230469 591.269531 293.769531 583.585938 286.082031 L 313.917969 16.414063 C 310.074219 12.574219 305.035156 10.652344 300 10.652344 M 300 20.652344 C 302.585938 20.652344 305.019531 21.660156 306.847656 23.488281 L 576.511719 293.152344 C 580.285156 296.929688 580.285156 303.070313 576.511719 306.84375 L 306.847656 576.511719 C 305.019531 578.339844 302.585938 579.347656 300 579.347656 C 297.414063 579.347656 294.984375 578.339844 293.152344 576.511719 L 23.488281 306.84375 C 19.714844 303.070313 19.714844 296.929688 23.488281 293.152344 L 293.152344 23.488281 C 294.984375 21.660156 297.414063 20.652344 300 20.652344 "/>
<path style=" stroke:none;fill-rule:nonzero;fill:rgb(100%,100%,100%);fill-opacity:1;" d="M 341.839844 315.15625 C 321.386719 286.859375 309.714844 257.492188 305.351563 245.230469 C 304.6875 243.351563 302.03125 243.351563 301.363281 245.230469 C 297.003906 257.492188 285.332031 286.859375 264.878906 315.15625 C 238.128906 352.171875 224.566406 370.128906 224.566406 401.277344 C 224.566406 444.792969 259.84375 480.070313 303.359375 480.070313 C 346.875 480.070313 382.152344 444.792969 382.152344 401.277344 C 382.152344 370.128906 368.589844 352.171875 341.839844 315.15625 "/>
<path style=" stroke:none;fill-rule:nonzero;fill:rgb(100%,100%,100%);fill-opacity:1;" d="M 397.773438 276.136719 C 393.027344 289.996094 390.085938 303.121094 391.886719 311.230469 C 399.128906 343.832031 382.3125 350.167969 382.136719 350.507813 C 375.382813 338.363281 366.203125 325.675781 354.816406 309.914063 L 352.847656 307.199219 C 333.246094 280.070313 322.050781 251.636719 318.152344 240.675781 C 315.925781 234.441406 309.988281 230.242188 303.359375 230.242188 C 296.730469 230.242188 290.792969 234.441406 288.566406 240.675781 C 284.664063 251.636719 273.472656 280.070313 253.871094 307.199219 L 251.898438 309.914063 C 235.882813 332.074219 224.226563 348.199219 217.558594 365.21875 C 209.300781 360.390625 199.621094 350.269531 198.304688 333.644531 C 197.132813 318.863281 201.164063 298.90625 215.285156 275.230469 C 230.679688 249.421875 227.511719 220.890625 203.738281 202.324219 C 220.039063 193.722656 235.03125 205.300781 239.964844 213.648438 C 248.792969 228.589844 260.460938 227.601563 266.453125 219.984375 C 277.320313 206.175781 259.125 192.445313 257 170.964844 C 255.59375 156.773438 260.621094 132.925781 284.660156 119.929688 C 276.414063 146.175781 288.890625 164.511719 306.074219 172.214844 C 319.207031 178.101563 340.761719 164.097656 335.054688 154.101563 C 361.234375 169.328125 355.648438 192.808594 352.996094 202.207031 C 349.910156 213.160156 346.234375 229.542969 355.28125 236.199219 C 364.328125 242.855469 382.320313 238.902344 384.640625 217.949219 C 384.640625 217.949219 412.035156 234.476563 397.773438 276.136719 "/>
</g>
</svg>
