<svg version="1.2" xmlns="http://www.w3.org/2000/svg" viewBox="0 0 16 17" width="16" height="17"><defs><clipPath clipPathUnits="userSpaceOnUse" id="cp1"><path d="m-667-389h1224v792h-1224z"/></clipPath><clipPath clipPathUnits="userSpaceOnUse" id="cp2"><path d="m1.69 2.34h12.76v12.75h-12.76z"/></clipPath></defs><style>.a{fill:#e26969;stroke:#fff;stroke-width:.6}.b{fill:#fff}</style><g clip-path="url(#cp1)"><g clip-path="url(#cp2)"><circle class="a" cx="8" cy="8.7" r="6.7"/><path class="b" d="m9.1 8.3c1 1.2 2 2.4 2.1 2.5-0.4 0.4-1.8 1.2-2.1 0.8-0.1-0.1-0.7-0.8-1.4-1.7-1.1 1.2-2 2.3-2.2 2.4-0.6 0.5-1.1-0.1-1.3-0.4 0.1-0.1 1.4-1.5 2.7-2.9-1-1.3-2-2.5-2.1-2.5 0.4-0.4 1.8-1.2 2.2-0.7 0 0 0.6 0.7 1.3 1.6 1.1-1.2 2-2.2 2.2-2.4 0.6-0.5 1.1 0.1 1.3 0.4-0.1 0.1-1.3 1.5-2.7 2.9z"/></g></g></svg>