<svg version="1.2" xmlns="http://www.w3.org/2000/svg" viewBox="0 0 29 29" width="29" height="29"><defs><clipPath clipPathUnits="userSpaceOnUse" id="cp1"><path d="m-874-230h1224v792h-1224z"/></clipPath></defs><style>.a{fill:#1f2c35}.b{fill:#fff}</style><g clip-path="url(#cp1)"><path class="a" d="m14 27.6c-3.6 0-7-1.4-9.6-4-2.6-2.5-4-6-4-9.6 0-3.6 1.4-7 4-9.6 2.6-2.6 6-4 9.6-4 3.6 0 7.1 1.4 9.6 4 2.6 2.6 4 6 4 9.6 0 3.6-1.4 7.1-4 9.6-2.5 2.6-6 4-9.6 4z"/><path fill-rule="evenodd" class="b" d="m19.5 1.1q2.5 1.1 4.4 3 2 1.9 3 4.5 1.1 2.6 1.1 5.4 0 2.9-1.1 5.5-1 2.5-3 4.4-1.9 1.9-4.4 3-2.6 1.1-5.5 1.1-2.8 0-5.4-1.1-2.5-1.1-4.5-3-1.9-1.9-3-4.4-1.1-2.6-1.1-5.5 0-2.8 1.1-5.4 1.1-2.6 3-4.5 2-1.9 4.5-3 2.6-1.1 5.4-1.1 2.9 0 5.5 1.1zm-18.7 12.9c0 7.3 5.9 13.2 13.2 13.2 7.3 0 13.2-5.9 13.2-13.2 0-7.3-5.9-13.2-13.2-13.2-7.3 0-13.2 5.9-13.2 13.2z"/><path fill-rule="evenodd" class="b" d="m24.2 14c0 4.4-3.5 7.9-7.9 7.9q-1.2 0-2.3-0.3-1.1 0.3-2.3 0.3c-4.3 0-7.9-3.5-7.9-7.9 0-4.3 3.6-7.9 7.9-7.9q1.2 0 2.3 0.4 1.1-0.4 2.3-0.4c4.4 0 7.9 3.6 7.9 7.9zm-9.5 6.2c2.3-1.1 3.9-3.5 3.9-6.2 0-2.7-1.6-5.1-3.9-6.2q-0.4-0.2-0.8-0.4-0.5-0.1-0.9-0.2-0.6-0.1-1.3-0.1c-3.8 0-6.9 3.1-6.9 6.9 0 3.8 3.1 6.9 6.9 6.9q0.7 0 1.3-0.1 0.4-0.1 0.9-0.2 0.4-0.2 0.8-0.4zm8.9-6.2c0-4-3.3-7.3-7.3-7.3q-0.7 0-1.3 0.1 0.5 0.2 0.9 0.5 0.1 0.1 0.2 0.2c3.7 0 6.6 2.9 6.6 6.5 0 3.6-2.9 6.5-6.6 6.5q-0.1 0.1-0.2 0.2-0.4 0.3-0.9 0.5 0.6 0.1 1.3 0.1c4 0 7.3-3.3 7.3-7.3z"/></g></svg>