<svg version="1.2" xmlns="http://www.w3.org/2000/svg" viewBox="0 0 29 29" width="29" height="29"><defs><clipPath clipPathUnits="userSpaceOnUse" id="cp1"><path d="m-684-230h1224v792h-1224z"/></clipPath></defs><style>.a{fill:#e15426}.b{fill:#fff}</style><g clip-path="url(#cp1)"><path class="a" d="m14.6 27.6c-3.6 0-7-1.4-9.6-4-2.6-2.5-4-6-4-9.6 0-3.6 1.4-7 4-9.6 2.6-2.6 6-4 9.6-4 3.6 0 7.1 1.4 9.6 4 2.6 2.6 4 6 4 9.6 0 3.6-1.4 7.1-4 9.6-2.5 2.6-6 4-9.6 4z"/><path fill-rule="evenodd" class="b" d="m20.1 1.1q2.5 1.1 4.4 3 1.9 1.9 3 4.5 1.1 2.6 1.1 5.4 0 2.9-1.1 5.5-1.1 2.5-3 4.4-1.9 1.9-4.4 3-2.7 1.1-5.5 1.1-2.8 0-5.4-1.1-2.6-1.1-4.5-3-1.9-1.9-3-4.4-1.1-2.6-1.1-5.5 0-2.8 1.1-5.4 1.1-2.6 3-4.5 1.9-1.9 4.5-3 2.6-1.1 5.4-1.1 2.8 0 5.5 1.1zm-18.7 12.9c0 7.3 5.9 13.2 13.2 13.2 7.3 0 13.2-5.9 13.2-13.2 0-7.3-5.9-13.2-13.2-13.2-7.3 0-13.2 5.9-13.2 13.2zm21.1 3.2c0 4.2-3.2 6.6-6 7.3 0.9-0.5 1.4-1.5 1.7-2.4 0.7-2.2-0.1-3.6-0.7-4.6-0.1 0.5-0.7 1.5-2 2.5-1.1 0.9-2.4 1.4-2.7 2.4-0.3 0.8-0.3 1.8 0.5 2.3-2.3-0.3-4.1-1.5-5.5-3.6-1.9-2.9-1-7.7 0.5-8.9-0.3 2.9 1.7 6.1 4.1 4.1 2.1-1.7-1.5-3.4 0-8.5 0.8-2.9 2.9-4.3 4.2-4.5-0.6 2.2 0.2 5.5 2.3 7.2 1.7 1.4 3.6 3 3.6 6.7z"/></g></svg>