<svg version="1.2" xmlns="http://www.w3.org/2000/svg" viewBox="0 0 29 29" width="29" height="29"><defs><clipPath clipPathUnits="userSpaceOnUse" id="cp1"><path d="m-722-230h1224v792h-1224z"/></clipPath></defs><style>.a{fill:#1ac2ec}.b{fill:#fff}</style><g clip-path="url(#cp1)"><path class="a" d="m14.5 27.6c-3.6 0-7.1-1.4-9.6-4-2.6-2.5-4-6-4-9.6 0-3.6 1.4-7 4-9.6 2.5-2.6 6-4 9.6-4 3.6 0 7 1.4 9.6 4 2.6 2.6 4 6 4 9.6 0 3.6-1.4 7.1-4 9.6-2.6 2.6-6 4-9.6 4z"/><path fill-rule="evenodd" class="b" d="m19.9 1.1q2.5 1.1 4.5 3 1.9 1.9 3 4.5 1.1 2.6 1.1 5.4 0 2.9-1.1 5.5-1.1 2.5-3 4.4-2 1.9-4.5 3-2.6 1.1-5.4 1.1-2.9 0-5.5-1.1-2.5-1.1-4.4-3-1.9-1.9-3-4.4-1.1-2.6-1.1-5.5 0-2.8 1.1-5.4 1.1-2.6 3-4.5 1.9-1.9 4.4-3 2.6-1.1 5.5-1.1 2.8 0 5.4 1.1zm-18.6 12.9c0 7.3 5.9 13.2 13.2 13.2 7.3 0 13.2-5.9 13.2-13.2 0-7.3-5.9-13.2-13.2-13.2-7.3 0-13.2 5.9-13.2 13.2z"/><path fill-rule="evenodd" class="b" d="m24.1 16.4c0.1 0.1 0.1 0.4-0.1 0.5l-1.6 1.2 1.4 0.9c0.2 0.1 0.3 0.3 0.2 0.5q-0.2 0.1-0.3 0.2-0.1 0-0.2-0.1l-1.5-0.8-0.3 2c0 0.2-0.1 0.4-0.3 0.4q0 0 0 0c-0.2-0.1-0.4-0.2-0.3-0.4l0.2-2.4-1.6-0.8-0.2 3c0 0.1-0.2 0.3-0.4 0.3q0 0 0 0c-0.2 0-0.3-0.2-0.3-0.4l0.3-3.3-2.4-1.3-1.7 1-0.1 2.7 3.1 1.4c0.1 0.1 0.2 0.3 0.1 0.4 0 0.2-0.2 0.2-0.3 0.2q-0.1 0-0.1 0l-2.8-1.3v1.8l2.2 1c0.1 0.1 0.2 0.3 0.1 0.4 0 0.2-0.2 0.2-0.3 0.2q-0.1 0-0.1 0l-1.9-0.8-0.1 1.7c0 0.2-0.1 0.3-0.3 0.3-0.2 0-0.4-0.1-0.4-0.3v-1.7l-1.9 0.8q-0.1 0-0.1 0c-0.2 0-0.3 0-0.4-0.2 0-0.1 0-0.3 0.2-0.4l2.2-1-0.1-1.8-2.7 1.3q-0.1 0-0.1 0c-0.2 0-0.3 0-0.4-0.2 0-0.1 0-0.3 0.2-0.4l3-1.4v-2.7l-1.8-1-2.3 1.3 0.3 3.3c0 0.2-0.1 0.4-0.3 0.4q0 0-0.1 0c-0.1 0-0.3-0.2-0.3-0.3l-0.3-3-1.5 0.8 0.2 2.4c0 0.2-0.1 0.3-0.3 0.4q0 0 0 0c-0.2 0-0.4-0.2-0.4-0.4l-0.2-2-1.5 0.8q-0.1 0.1-0.2 0.1-0.2-0.1-0.3-0.2c-0.1-0.2 0-0.4 0.1-0.5l1.5-0.9-1.7-1.2c-0.1-0.1-0.2-0.4 0-0.5 0.1-0.2 0.3-0.2 0.5-0.1l1.9 1.4 1.5-0.9-2.5-1.7c-0.1-0.2-0.2-0.4-0.1-0.5 0.1-0.2 0.4-0.2 0.5-0.1l2.7 1.9 2.3-1.4v-2l-2.3-1.4-2.7 1.9q-0.1 0.1-0.2 0.1-0.2 0-0.3-0.2c-0.1-0.1 0-0.3 0.1-0.4l2.5-1.8-1.5-0.9-1.9 1.4q-0.1 0.1-0.3 0.1-0.1 0-0.2-0.2c-0.2-0.1-0.1-0.3 0-0.5l1.7-1.2-1.5-0.9c-0.1-0.1-0.2-0.3-0.1-0.5 0.1-0.1 0.3-0.2 0.5-0.1l1.5 0.8 0.2-2c0-0.2 0.2-0.4 0.4-0.3 0.2 0 0.3 0.2 0.3 0.4l-0.2 2.3 1.5 0.9 0.3-3c0-0.2 0.2-0.4 0.4-0.4 0.2 0.1 0.3 0.2 0.3 0.4l-0.3 3.3 2.4 1.3 1.7-1v-2.7l-3-1.4c-0.2 0-0.2-0.3-0.2-0.4 0.1-0.2 0.3-0.3 0.5-0.2l2.7 1.3 0.1-1.8-2.2-1c-0.2 0-0.2-0.2-0.2-0.4 0.1-0.2 0.3-0.3 0.5-0.2l1.9 0.8v-1.7c0-0.2 0.2-0.3 0.4-0.3 0.2 0 0.3 0.1 0.3 0.3l0.1 1.7 1.9-0.8c0.1-0.1 0.4 0 0.4 0.2 0.1 0.2 0 0.4-0.1 0.4l-2.2 1v1.8l2.8-1.3c0.1-0.1 0.3 0 0.4 0.2 0.1 0.1 0 0.4-0.1 0.4l-3.1 1.4 0.1 2.7 1.7 1 2.4-1.3-0.3-3.3c0-0.2 0.1-0.3 0.3-0.4 0.2 0 0.4 0.2 0.4 0.4l0.2 3 1.6-0.9-0.2-2.3c-0.1-0.2 0.1-0.4 0.3-0.4 0.2-0.1 0.3 0.1 0.3 0.3l0.3 2 1.5-0.8c0.1-0.1 0.4 0 0.5 0.1 0.1 0.2 0 0.4-0.2 0.5l-1.4 0.9 1.6 1.2c0.2 0.2 0.2 0.4 0.1 0.5q-0.1 0.2-0.3 0.2-0.1 0-0.2-0.1l-1.9-1.4-1.5 0.9 2.5 1.8c0.1 0.1 0.2 0.3 0 0.4q-0.1 0.2-0.2 0.2-0.1 0-0.2-0.1l-2.8-1.9-2.3 1.4v2l2.3 1.4 2.8-1.9c0.1-0.1 0.3-0.1 0.4 0.1 0.2 0.1 0.1 0.3 0 0.5l-2.5 1.7 1.5 0.9 1.9-1.4c0.2-0.1 0.4-0.1 0.5 0.1zm-7.7-1.3v-2.2l-1.9-1.1-1.9 1.1v2.2l1.9 1.1z"/></g></svg>