<svg version="1.2" xmlns="http://www.w3.org/2000/svg" viewBox="0 0 29 29" width="29" height="29"><defs><clipPath clipPathUnits="userSpaceOnUse" id="cp1"><path d="m-836-230h1224v792h-1224z"/></clipPath></defs><style>.a{fill:#eeac1f}.b{fill:#fff}</style><g clip-path="url(#cp1)"><path class="a" d="m14.1 27.6c-3.6 0-7-1.4-9.6-4-2.6-2.5-4-6-4-9.6 0-3.6 1.4-7 4-9.6 2.6-2.6 6-4 9.6-4 3.7 0 7.1 1.4 9.7 4 2.5 2.6 3.9 6 3.9 9.6 0 3.6-1.4 7.1-3.9 9.6-2.6 2.6-6 4-9.7 4z"/><path fill-rule="evenodd" class="b" d="m19.6 1.1q2.5 1.1 4.4 3 2 1.9 3 4.5 1.1 2.6 1.1 5.4 0 2.9-1.1 5.5-1 2.5-3 4.4-1.9 1.9-4.4 3-2.6 1.1-5.5 1.1-2.8 0-5.4-1.1-2.5-1.1-4.5-3-1.9-1.9-3-4.4-1.1-2.6-1.1-5.5 0-2.8 1.1-5.4 1.1-2.6 3-4.5 2-1.9 4.5-3 2.6-1.1 5.4-1.1 2.9 0 5.5 1.1zm-18.7 12.9c0 7.3 5.9 13.2 13.2 13.2 7.3 0 13.2-5.9 13.2-13.2 0-7.3-5.9-13.2-13.2-13.2-7.3 0-13.2 5.9-13.2 13.2z"/><path fill-rule="evenodd" class="b" d="m25.2 14q0 0.2-0.1 0.3l-4.7 2.3 1.7 5q0 0.1-0.1 0.3-0.1 0.1-0.2 0.1-0.1 0-0.1-0.1l-5-1.6-2.3 4.7q-0.1 0.1-0.3 0.1-0.1 0-0.2-0.1l-2.4-4.7-4.9 1.6q-0.2 0.1-0.3 0-0.2-0.2-0.1-0.3l1.6-5-4.6-2.3q-0.2-0.1-0.2-0.3 0-0.2 0.2-0.3l4.6-2.3-1.6-4.9q-0.1-0.2 0.1-0.4 0.1-0.1 0.3 0l4.9 1.6 2.4-4.6q0.1-0.2 0.2-0.2 0.2 0 0.3 0.2l2.3 4.6 5-1.6q0.2-0.1 0.3 0 0.1 0.2 0.1 0.4l-1.7 4.9 4.7 2.3q0.1 0.1 0.1 0.3zm-5.5 3l-1.3 0.6 0.5 1.2-1.2-0.5-0.6 1.3 3.5 0.9zm-3.7 3l-1.4-0.4-0.5 1.2-0.4-1.2-1.4 0.4 1.8 3.1zm-4.8-0.4l-0.6-1.3-1.2 0.5 0.5-1.2-1.3-0.6-0.9 3.4zm-3-3.7l0.4-1.3-1.1-0.5 1.1-0.5-0.4-1.3-3.1 1.8zm0.5-4.8l1.2-0.7-0.5-1.1 1.2 0.5 0.6-1.3-3.4-0.9zm3.7-3.1l1.4 0.5 0.4-1.2 0.5 1.2 1.4-0.5-1.9-3.1zm6.8 5.4l0.4-1.6-1.3-0.8-0.7 1.7zm-1 3.7l1.4-0.8-0.4-1.5-1.7 0.7zm-3.3 1.9l1.5 0.4 0.8-1.3-1.6-0.7zm-3.8-1l0.8 1.4 1.6-0.4-0.7-1.7zm-2-3.3l-0.4 1.5 1.4 0.8 0.7-1.6zm0.9-3.8l-1.3 0.8 0.4 1.5 1.6-0.6zm3.4-2l-1.6-0.4-0.7 1.4 1.6 0.7zm3.7 0.9l-0.8-1.3-1.5 0.4 0.7 1.6zm-0.1-1.5l0.7 1.3 1.1-0.5-0.5 1.2 1.3 0.6 0.9-3.5zm6.2 5.6l-3.1-1.9-0.5 1.4 1.2 0.5-1.2 0.4 0.5 1.4z"/></g></svg>