<svg version="1.2" xmlns="http://www.w3.org/2000/svg" viewBox="0 0 36 36" width="36" height="36"><defs><clipPath clipPathUnits="userSpaceOnUse" id="cp1"><path d="m-671-631h1224v792h-1224z"/></clipPath></defs><style>.a{fill:#fff}.b{fill:#1f2c35}.c{fill:#eeac1f}.d{fill:#89a53d}.e{fill:#e15426}.f{fill:#1ac2ec}.g{fill:#9ab0b7}</style><g clip-path="url(#cp1)"><path class="a" d="m17.8 35.1c-4.5 0-8.8-1.8-12-5-3.2-3.2-5-7.5-5-12 0-4.5 1.8-8.8 5-12 3.2-3.2 7.5-5 12-5 4.5 0 8.8 1.8 12 5 3.2 3.2 5 7.5 5 12 0 4.5-1.8 8.8-5 12-3.2 3.2-7.5 5-12 5z"/><path fill-rule="evenodd" class="a" d="m24.6 2c2.1 0.9 4 2.1 5.6 3.7 1.6 1.6 2.8 3.5 3.7 5.6 0.9 2.1 1.4 4.4 1.4 6.8 0 2.4-0.5 4.6-1.4 6.8-0.9 2.1-2.1 4-3.7 5.6-1.6 1.6-3.5 2.8-5.6 3.7-2.1 0.9-4.4 1.4-6.8 1.4-2.4 0-4.7-0.5-6.8-1.4-2.1-0.9-4-2.1-5.6-3.7-1.6-1.6-2.8-3.5-3.7-5.6-0.9-2.2-1.4-4.4-1.4-6.8 0-2.4 0.5-4.7 1.4-6.8 0.9-2.1 2.1-4 3.7-5.6 1.6-1.6 3.5-2.8 5.6-3.7 2.1-0.9 4.4-1.4 6.8-1.4 2.4 0 4.7 0.5 6.8 1.4zm-23.3 16.1c0 9.1 7.4 16.5 16.5 16.5 9.1 0 16.5-7.4 16.5-16.5 0-9.1-7.4-16.5-16.5-16.5-9.1 0-16.5 7.4-16.5 16.5z"/><path class="b" d="m17.8 18.1c0 0-10 5.8-14.3 8.2-2.8-4.9-3-11.2 0-16.5 3.4 2 14.3 8.3 14.3 8.3z"/><path class="c" d="m17.8 18.1c0 0 0 11.6 0 16.5-5.7 0-11.2-3-14.3-8.3 3.4-1.9 14.3-8.2 14.3-8.2z"/><path class="d" d="m17.8 18.1c0 0 10.1 5.7 14.3 8.2-2.9 5-8.2 8.3-14.3 8.3z"/><path class="e" d="m17.8 18.1c0 0 10-5.8 14.3-8.3 2.8 5 3 11.3 0 16.5-3.4-1.9-14.3-8.2-14.3-8.2z"/><path class="f" d="m17.8 18.1c0 0 0-11.6 0-16.5 5.7 0 11.2 3 14.3 8.2-3.4 2-14.3 8.3-14.3 8.3z"/><path class="g" d="m17.8 18.1c0 0-10.1-5.8-14.3-8.3 2.9-4.9 8.2-8.2 14.3-8.2z"/></g></svg>