<svg viewBox="0 -5 824 824">
  <g transform="matrix(1 0 0 -1 0 800)">
   <path [attr.fill]="appearance === 'fill' ? '#1e2c36' : 'transparent'" stroke="#1e2c36" [attr.stroke-width]="appearance === 'fill' ? 0 : 20"
d="M375 791c33 2 86 0 98 -3c3 -1 11 -2 16 -3c6 -1 13 -2 15 -3c3 -1 8 -3 13 -3c4 -1 9 -3 11 -4s7 -2 11 -3s8 -3 10 -4s5 -2 8 -3c2 0 6 -2 8 -3s6 -3 8 -3c2 -1 5 -2 7 -3c1 -2 4 -3 6 -4c2 0 5 -1 6 -3c2 -1 5 -2 7 -3c3 -1 5 -2 6 -3c0 0 2 -2 4 -3c3 -1 6 -3 7 -4
c2 -1 4 -3 6 -3l6 -3l4 -4c9 -6 14 -9 22 -15c1 -2 4 -3 5 -4c3 -2 17 -14 20 -17c21 -19 32 -31 42 -44s11 -14 13 -17c2 -2 3 -4 4 -5s2 -4 4 -6c1 -2 3 -4 3 -5c0 0 1 -2 2 -3c3 -4 7 -11 10 -16c1 -3 2 -5 3 -6c1 0 2 -3 3 -5c1 -3 3 -6 4 -7s2 -4 3 -6c1 -3 2 -6 4 -8
c1 -2 2 -4 2 -6c1 -1 2 -5 3 -7c2 -2 3 -6 4 -9s2 -7 3 -9c2 -2 3 -6 3 -9c1 -3 2 -7 3 -9c2 -2 3 -8 4 -13c1 -4 2 -10 3 -12c1 -3 3 -9 3 -14c1 -6 2 -13 3 -17c6 -19 6 -96 1 -119c-1 -5 -3 -14 -4 -19c0 -6 -2 -12 -2 -14c-1 -2 -3 -8 -4 -13s-2 -10 -3 -12
s-3 -6 -4 -10s-2 -8 -3 -9c-1 -2 -2 -5 -3 -8s-2 -7 -4 -10c-1 -2 -2 -5 -3 -6c0 -2 -1 -5 -2 -6c-1 -2 -3 -5 -4 -8s-2 -5 -3 -6s-3 -4 -4 -6c0 -3 -2 -6 -3 -8c-2 -1 -3 -3 -3 -3c0 -1 -1 -4 -3 -7s-4 -6 -4 -7c0 0 -1 -2 -3 -4c-2 -1 -3 -3 -3 -4s-1 -3 -3 -5
s-3 -4 -3 -4s-1 -2 -3 -5c-3 -3 -6 -7 -14 -17c-5 -6 -6 -8 -16 -19c-5 -6 -12 -13 -26 -26c-3 -3 -17 -14 -32 -25c-5 -5 -12 -9 -16 -11c-2 -1 -4 -3 -4 -3c0 -1 -2 -2 -4 -3s-5 -2 -7 -3c-1 -1 -4 -3 -7 -5c-2 -1 -4 -2 -4 -3c-1 0 -3 -1 -6 -2c-2 -1 -5 -3 -7 -4
c-1 -1 -4 -2 -7 -3c-2 -1 -5 -2 -6 -3s-4 -3 -7 -3c-2 -1 -6 -3 -7 -4c-2 -1 -6 -2 -8 -3c-3 -1 -7 -2 -9 -3s-6 -3 -9 -3c-3 -1 -7 -2 -10 -3c-2 -1 -8 -3 -13 -4c-4 -1 -10 -2 -12 -3s-8 -2 -14 -3s-13 -2 -16 -3c-19 -6 -106 -6 -125 0c-4 1 -11 2 -17 3
c-6 0 -12 2 -15 3s-9 3 -14 3c-4 1 -9 3 -10 3c-1 1 -5 3 -9 3c-3 1 -8 3 -11 4c-2 1 -6 3 -9 3c-2 1 -5 2 -6 3c-2 1 -5 3 -8 3l-8 4c-1 1 -5 3 -7 3c-2 1 -5 3 -7 4c-1 1 -3 2 -4 2c-2 1 -5 3 -8 4l-6 4c-1 0 -2 1 -4 2c-1 1 -4 3 -6 4c-3 1 -5 3 -6 3c-1 1 -2 2 -4 3
s-4 2 -4 3c-1 1 -3 2 -5 3s-5 3 -6 5c-2 1 -5 4 -7 5c-2 2 -6 5 -8 6c-2 2 -6 5 -8 7c-6 4 -17 15 -24 22c-3 3 -6 6 -7 6l-3 3c0 1 -2 3 -4 6c-9 9 -16 17 -17 20c-1 1 -2 3 -3 4c-1 0 -3 2 -4 4c-3 4 -5 8 -9 14c-6 7 -7 10 -10 14c-1 3 -3 6 -3 6c-1 0 -2 2 -3 5
c-1 2 -3 5 -3 5c-1 0 -2 3 -4 6c-1 3 -3 6 -3 7c-1 1 -2 4 -3 6c-1 3 -3 6 -4 7c0 1 -2 4 -2 7c-1 2 -3 5 -4 7s-2 6 -3 8c0 2 -2 6 -3 9c-2 2 -3 7 -4 10c0 3 -2 7 -3 9s-2 7 -3 13c-1 5 -3 11 -4 12c-1 2 -2 8 -3 14c0 5 -2 12 -2 16c-6 21 -6 101 0 123c0 3 2 11 2 16
c1 6 2 11 3 13s3 8 4 13s2 11 3 13c2 2 3 6 3 8c1 5 2 9 4 11c1 1 2 4 3 7s2 8 4 10c1 2 2 6 2 7l3 6s3 5 4 8c1 2 2 5 3 7c2 1 3 4 4 6c1 3 2 5 3 5c0 1 2 3 3 6c1 2 2 4 3 5c0 0 2 3 3 5c1 3 3 6 4 7c1 0 2 2 2 2c0 1 2 3 4 6l4 6c0 1 0 2 9 11c2 3 3 5 3 5
c0 2 21 25 31 35c18 17 22 21 40 34c2 2 5 5 7 6c1 1 4 3 6 4s4 3 5 3c0 1 2 2 3 3c2 1 4 2 5 3s4 3 6 4c1 0 4 2 6 3c1 2 4 3 5 3c1 1 4 2 6 4l6 3c1 0 4 2 5 3c2 1 5 3 7 3c2 1 5 2 7 4c2 1 5 2 8 3l8 4s5 2 7 2c2 1 6 2 8 4c3 1 8 2 11 3s7 2 9 3c1 1 6 2 10 3s10 2 13 4
c4 1 11 2 17 3c5 1 12 2 14 2c7 3 15 4 28 4zM364 633c-12 2 -38 2 -52 -1c-4 -1 -11 -2 -16 -2c-5 -1 -11 -2 -14 -3c-3 -2 -8 -3 -12 -4c-3 -1 -8 -2 -10 -3s-5 -3 -8 -3c-3 -1 -6 -2 -7 -3c-2 -1 -5 -3 -8 -4c-2 -1 -5 -2 -6 -3c-1 0 -3 -2 -6 -3c-2 -1 -5 -3 -6 -4
c0 0 -3 -2 -5 -3c-2 0 -5 -2 -6 -4c-2 -1 -3 -2 -4 -2c0 0 -2 -2 -4 -3c-2 -2 -6 -5 -8 -7c-7 -5 -21 -18 -23 -20c-1 -1 -3 -3 -4 -5c-3 -2 -7 -7 -13 -15c-2 -3 -5 -7 -7 -8l-2 -4c0 -1 -2 -3 -3 -5c-2 -2 -4 -6 -5 -7c0 -2 -2 -4 -3 -5s-2 -4 -3 -6c0 -2 -2 -5 -3 -6
c-1 -2 -2 -5 -3 -8s-3 -6 -4 -8c-1 -1 -2 -5 -3 -8c0 -3 -2 -7 -3 -9c-1 -3 -3 -8 -3 -13c-1 -4 -3 -10 -3 -13c-5 -16 -5 -73 0 -89c0 -3 2 -9 3 -14c0 -4 2 -10 3 -12s3 -7 3 -10c1 -3 3 -7 4 -8c1 -2 2 -6 3 -8c1 -3 2 -6 3 -7s2 -4 3 -6c1 -3 3 -6 3 -6c1 -1 2 -3 3 -5
s3 -5 5 -7c1 -2 3 -5 3 -5c0 -1 1 -2 2 -3s2 -3 3 -4c4 -5 13 -17 17 -21l4 -4c2 -3 16 -16 23 -21c2 -1 6 -4 8 -6s4 -3 4 -3c1 0 2 -1 4 -3c1 -1 4 -3 6 -4s5 -2 5 -3c1 -1 4 -2 6 -3c3 -1 5 -3 6 -4c1 0 4 -2 6 -3c3 0 6 -2 8 -3c1 -1 4 -2 7 -3s6 -2 8 -3s7 -3 10 -4
c4 0 9 -2 12 -3s9 -2 14 -3c5 0 12 -1 16 -2c15 -3 39 -4 52 -1c2 0 8 1 14 2c17 2 21 3 24 5c5 2 13 2 18 -1c3 -1 9 -2 19 -3c8 -1 17 -3 19 -3c7 -2 39 -2 47 0c4 1 12 2 18 3c6 0 13 2 15 3c3 1 8 2 12 3s9 3 11 4l9 3c2 0 5 2 7 3c1 1 4 2 7 3c2 1 5 2 6 3s4 3 7 4
c2 1 5 2 6 3l2 2c1 0 3 1 5 3c3 1 6 4 8 5c1 1 5 4 8 6c2 2 6 5 8 6c6 4 29 28 32 33c2 2 4 5 5 6s2 2 2 3l4 4c1 2 3 5 3 5c0 1 1 3 2 4c2 2 4 5 5 7c0 2 2 4 2 5c1 0 3 3 4 6c1 2 2 5 3 6s2 4 3 7c1 2 2 6 3 7c1 2 3 7 4 10c1 4 2 8 3 9s2 6 3 11s2 11 3 14
c5 16 5 74 0 90c-1 3 -2 10 -3 15s-2 10 -3 11s-2 5 -3 8c-1 4 -3 8 -4 10s-2 5 -3 8c-1 2 -2 5 -3 6s-2 4 -3 7s-3 5 -4 6c0 0 -2 3 -2 5c-1 2 -3 5 -5 6l-2 4c0 1 -2 3 -3 5c-2 2 -4 4 -4 5c0 0 -1 2 -2 3s-3 4 -5 6c-3 5 -26 29 -32 32c-2 2 -6 5 -8 7c-3 2 -7 5 -8 6
c-2 1 -5 3 -8 5c-2 1 -4 2 -5 2l-2 2s-4 3 -6 4c-3 1 -6 3 -7 4c-1 0 -4 2 -6 3c-3 0 -6 2 -7 3c-2 1 -5 2 -7 3c-3 0 -6 2 -9 3c-2 1 -7 3 -11 4c-4 0 -9 2 -12 3c-2 1 -8 2 -12 3c-5 0 -12 1 -18 2c-11 2 -42 3 -50 1c-2 -1 -11 -2 -19 -3c-10 -1 -16 -2 -19 -4
c-5 -2 -13 -2 -18 0c-3 2 -7 3 -24 5c-6 1 -12 1 -14 2zM324 615c7 1 41 -1 45 -2c2 0 8 -2 14 -2c13 -2 14 -2 18 -4c2 -1 7 -3 11 -4s8 -2 9 -3c2 -1 5 -2 7 -3c3 -1 6 -2 8 -3c1 -1 4 -3 6 -4c2 0 5 -2 6 -2c1 -1 4 -3 6 -4s5 -3 6 -4s4 -3 6 -4c6 -3 9 -6 13 -9
c1 -1 4 -4 6 -5c5 -4 18 -17 23 -23c8 -9 10 -11 15 -20c2 -2 4 -5 5 -6c1 -2 2 -3 2 -4c0 0 1 -2 3 -5l4 -8s2 -4 3 -5s2 -4 3 -7s3 -7 4 -9s3 -7 3 -9c1 -3 2 -8 3 -10c1 -3 3 -8 3 -11c1 -4 2 -11 3 -17c3 -9 3 -10 3 -32c0 -21 0 -22 -3 -32c-1 -5 -2 -12 -3 -16
c0 -3 -2 -9 -3 -12c-1 -4 -3 -8 -3 -10c0 -3 -2 -6 -3 -8c-1 -3 -3 -7 -4 -9c-1 -3 -2 -6 -3 -7s-2 -4 -3 -6c0 -2 -2 -5 -4 -7c-1 -3 -3 -6 -4 -7c-5 -8 -7 -11 -9 -13c-1 -1 -2 -3 -3 -5c-1 -1 -2 -3 -2 -3c-1 0 -3 -2 -4 -3c-2 -4 -20 -22 -26 -27c-2 -2 -5 -4 -6 -6
c-4 -3 -7 -5 -13 -9c-2 -1 -5 -3 -6 -4s-4 -2 -6 -3c-2 -2 -5 -3 -6 -4s-4 -2 -6 -3s-5 -2 -6 -3c-2 -1 -5 -3 -8 -4c-2 0 -5 -2 -7 -3c-1 0 -5 -2 -9 -3s-9 -2 -11 -3c-3 -2 -5 -2 -18 -4c-5 -1 -12 -2 -15 -3c-8 -2 -44 -2 -58 1c-6 1 -14 3 -17 3c-4 1 -9 2 -12 3
s-7 3 -10 3c-2 1 -6 2 -8 3c-3 1 -7 3 -10 4c-2 1 -5 2 -6 3c0 1 -3 2 -6 3c-2 1 -5 2 -6 3s-3 2 -5 4c-2 1 -6 2 -7 4c-2 1 -4 2 -5 2c0 0 -2 1 -3 3c-1 1 -4 3 -5 4c-9 5 -30 24 -38 35c-3 3 -6 7 -7 9c-2 2 -3 3 -3 4l-2 4c-2 1 -4 4 -5 7c-1 2 -3 4 -3 5c0 0 -2 2 -3 5
c-3 5 -4 8 -9 17c-2 4 -4 8 -4 10c0 3 -2 7 -3 10c-2 2 -3 7 -4 11c0 3 -2 8 -3 12c-5 18 -5 73 0 91c1 3 3 9 4 13c0 4 2 9 3 11s3 6 3 8s2 7 4 10c5 10 6 13 8 17c2 2 3 5 4 6s2 3 3 6c1 2 3 4 4 5s2 3 3 5c1 1 3 4 5 6c2 3 5 7 7 10c8 9 28 27 36 32c1 1 4 3 5 4s3 2 3 2
c1 0 3 1 5 3c1 1 5 3 7 4s4 3 5 3c1 1 4 3 6 4c3 1 6 2 6 3c1 0 4 2 6 3c3 1 7 2 10 3c2 2 6 3 9 4c3 0 7 1 10 2c2 2 7 3 11 3c3 1 11 2 17 3s12 3 14 3zM459 615c11 1 42 0 50 -2c5 -1 12 -2 18 -3c5 -1 11 -2 13 -3s7 -3 11 -4c3 -1 7 -2 8 -3c2 -1 5 -2 9 -3
c3 -1 6 -3 7 -3c0 -1 3 -2 5 -3c3 -1 6 -3 7 -4c1 0 3 -2 5 -2c2 -1 5 -3 7 -5c2 -1 4 -3 5 -3s2 -1 3 -2c2 -1 4 -3 5 -4c9 -6 28 -24 38 -35c2 -3 5 -7 7 -9c1 -2 3 -4 4 -6c1 -1 2 -3 2 -3c1 -1 3 -3 4 -5c0 -3 2 -5 3 -6s2 -3 3 -5c0 -2 2 -5 4 -7c1 -2 2 -4 2 -5
s1 -4 3 -6c2 -3 3 -7 4 -10c0 -2 2 -6 3 -8s3 -7 3 -11c1 -4 2 -10 4 -13c5 -18 5 -73 0 -91c-2 -4 -3 -10 -4 -13c0 -4 -2 -9 -3 -11s-3 -6 -3 -9c-1 -2 -2 -6 -4 -9s-3 -5 -3 -6s-1 -3 -2 -5c-2 -3 -4 -6 -4 -8c-1 -1 -2 -3 -3 -4s-3 -4 -3 -6c-1 -2 -3 -4 -4 -5
c0 -1 -1 -2 -2 -4c-1 -1 -3 -4 -4 -5c-2 -2 -5 -6 -7 -9c-9 -11 -29 -30 -38 -35c-1 -1 -3 -3 -5 -4c-1 -2 -2 -3 -3 -3s-3 -1 -5 -3c-2 -1 -5 -3 -7 -4s-4 -2 -5 -3s-4 -2 -7 -3c-2 -1 -5 -3 -5 -3c-1 -1 -4 -2 -7 -3c-4 -1 -7 -3 -9 -4c-1 0 -5 -2 -8 -3
c-4 -1 -9 -2 -11 -3s-8 -2 -13 -3s-13 -2 -18 -3c-11 -3 -51 -3 -55 -1s-2 7 4 10c3 1 6 3 7 4c6 5 14 7 25 8c18 1 25 2 30 4c2 1 7 2 11 3s9 2 10 3c2 2 6 3 9 4s7 2 8 3s4 2 7 3c2 1 5 2 5 3c0 0 3 2 6 3c2 1 5 3 6 4s4 2 6 4c12 8 20 15 33 27c11 12 12 14 14 16
c1 2 2 3 2 3s2 2 3 5c2 2 4 5 4 5s2 2 3 4s3 5 4 7c1 1 2 4 3 6c0 2 2 4 3 6c1 1 3 5 3 7c1 3 3 7 4 9s2 5 3 8c0 3 2 8 3 12c6 19 6 73 0 92c-1 4 -3 10 -3 13c-1 2 -2 6 -3 8l-4 8c0 3 -2 6 -3 8c-1 1 -3 4 -3 6c-1 1 -2 4 -3 6c-1 1 -3 4 -4 6c-1 3 -3 5 -3 5s-2 2 -4 5
c-1 2 -3 5 -3 5l-2 2c-2 3 -3 5 -14 16c-13 13 -21 20 -33 28c-2 1 -5 3 -6 4s-4 2 -6 4c-3 1 -6 2 -6 3c0 0 -3 1 -5 2c-3 1 -6 3 -7 4s-5 2 -8 3s-7 2 -9 3c-1 1 -6 3 -10 3c-4 1 -9 3 -11 3c-5 2 -12 3 -30 5c-11 0 -19 3 -25 8c-1 1 -4 2 -7 4c-8 4 -8 9 1 11z" />
  </g>
</svg>
