<svg viewBox="0 -5 824 824">
  <g transform="matrix(1 0 0 -1 0 800)">
   <path [attr.fill]="appearance === 'fill' ? '#9ab0b7' : 'transparent'" stroke="#9ab0b7" [attr.stroke-width]="appearance === 'fill' ? 0 : 20"
d="M376 791c33 2 84 0 98 -3c4 -1 11 -2 17 -3c5 -1 11 -2 13 -3s8 -2 13 -3s11 -3 13 -4s6 -2 9 -3c3 0 7 -2 9 -3s6 -3 9 -3c3 -1 8 -3 10 -4s5 -3 6 -3c3 -1 15 -6 20 -9c1 -1 5 -3 7 -4l8 -4c2 -2 4 -3 4 -3c1 0 3 -1 6 -3l6 -4c1 0 2 0 3 -1s3 -3 5 -4
c7 -4 14 -9 24 -17c2 -1 4 -3 4 -3c1 0 28 -23 32 -28l3 -3l4 -4c0 -1 3 -3 4 -5c11 -11 23 -24 23 -26c0 0 1 -2 3 -5c7 -8 15 -18 17 -22c0 -1 2 -3 3 -4c0 -1 2 -4 3 -6s4 -6 6 -10c2 -3 5 -8 6 -11c2 -3 3 -6 4 -7s2 -3 3 -5s2 -6 4 -8c1 -3 2 -6 3 -8s2 -6 3 -8
c2 -2 3 -5 3 -7c1 -2 2 -6 4 -10c1 -3 3 -8 3 -10s2 -6 3 -9c1 -2 3 -8 4 -12c0 -5 2 -10 3 -12s2 -8 3 -14c0 -6 2 -13 3 -16c5 -17 5 -101 0 -121c-1 -4 -3 -11 -3 -17c-1 -5 -2 -11 -3 -13s-3 -8 -4 -13s-2 -11 -3 -13s-2 -6 -3 -9s-2 -7 -3 -9s-3 -6 -4 -9
c0 -3 -2 -7 -3 -9c-2 -2 -3 -5 -3 -7c-1 -1 -2 -5 -3 -7c-2 -2 -3 -6 -4 -8s-2 -4 -3 -5s-2 -4 -4 -7c-1 -3 -4 -8 -6 -11s-4 -8 -6 -10c-1 -3 -3 -5 -4 -7c-1 -1 -3 -3 -4 -5s-3 -6 -5 -8c-2 -3 -5 -7 -6 -8c-1 -2 -3 -4 -4 -5s-2 -3 -3 -5c-1 -1 -3 -4 -5 -6
c-1 -1 -4 -4 -5 -6c-2 -2 -6 -7 -10 -10c-3 -4 -8 -9 -11 -12c-8 -9 -30 -28 -34 -30c-1 -1 -3 -3 -6 -5c-2 -2 -5 -4 -6 -5c-4 -3 -13 -9 -16 -11c-1 0 -3 -2 -4 -3s-4 -3 -7 -4c-12 -6 -14 -8 -16 -9c0 -1 -3 -2 -6 -3c-2 -2 -6 -3 -7 -4c-5 -3 -17 -9 -20 -9
c-1 0 -4 -2 -6 -3s-6 -3 -9 -4s-7 -2 -9 -3s-7 -3 -10 -4c-3 0 -8 -2 -10 -3c-3 -1 -8 -2 -11 -3c-3 0 -8 -2 -11 -3s-9 -2 -13 -3c-14 -2 -17 -2 -21 -4c-14 -5 -107 -4 -122 1c-2 0 -8 1 -15 2c-6 1 -14 3 -18 4c-3 1 -9 3 -13 3c-4 1 -9 2 -10 3c-2 1 -6 3 -10 4
c-3 0 -8 2 -10 3s-6 2 -9 3c-2 1 -7 3 -9 4s-5 3 -6 3c-3 1 -15 6 -20 9c-1 1 -4 2 -7 4c-2 1 -6 3 -7 4c-2 1 -4 2 -5 2c-1 1 -3 2 -4 3c-2 1 -5 3 -7 4s-4 2 -4 3c-1 0 -3 2 -5 3s-5 2 -5 3s-2 2 -4 3s-6 3 -7 5c-2 1 -5 4 -7 6c-3 1 -7 5 -10 7c-9 7 -12 9 -21 19
c-5 4 -11 10 -14 13c-3 2 -5 5 -6 6c0 1 -3 4 -6 8c-8 8 -14 14 -14 15s-1 3 -3 5s-4 6 -6 7c-1 2 -3 5 -4 7s-3 4 -4 5s-2 2 -2 3s-1 3 -3 5s-4 4 -4 5l-2 4c-1 1 -3 5 -4 7s-2 5 -3 5c-1 1 -2 3 -3 6s-3 6 -4 7s-2 4 -3 7c-1 2 -3 5 -3 6c-1 1 -3 5 -3 7c-1 3 -3 6 -4 8
c-1 1 -2 5 -3 8s-2 7 -3 8s-2 5 -3 9s-3 10 -4 12s-3 8 -3 12c-1 4 -3 10 -4 12s-2 8 -3 14c0 6 -2 14 -3 18c-5 21 -5 96 0 116c1 5 3 13 3 19c1 6 2 12 3 14s3 7 3 11c2 10 3 11 5 15c1 2 2 6 3 10c0 3 1 7 3 9c1 2 2 5 3 8s2 7 4 9c1 3 2 5 2 6s2 4 3 7c2 4 4 8 4 9
c1 1 2 3 3 4c1 2 3 5 4 8c1 2 2 5 3 5c1 1 2 4 3 6s3 5 4 7s2 3 2 4c0 0 2 3 4 5s3 4 3 5c0 0 1 3 3 5c2 1 3 3 3 4c0 0 4 6 9 12c2 1 4 4 5 6c2 3 5 7 10 12c1 2 4 5 6 7c9 11 33 34 44 42c12 9 14 11 17 13c2 2 5 4 7 5c1 0 4 2 5 3s4 3 5 4c2 1 5 3 7 4s5 3 6 4
c2 1 4 3 5 3l6 3c1 1 5 3 7 4c3 1 6 3 7 4c5 2 17 8 20 9c1 0 4 2 7 3c3 2 7 3 8 4c2 0 6 1 8 2s7 3 10 4c4 1 9 2 11 3s6 3 9 3c4 1 9 2 13 4c3 1 11 2 16 3c6 1 13 2 15 2c8 3 15 4 28 4zM432 607c-11 3 -36 4 -44 1c-3 -1 -9 -3 -13 -4s-9 -2 -10 -3c-2 -1 -5 -3 -8 -4
c-2 -1 -5 -2 -5 -2c-1 -1 -3 -3 -5 -4c-4 -3 -21 -20 -23 -24c-1 -2 -2 -3 -2 -4c-1 0 -2 -2 -3 -5c-2 -2 -3 -6 -4 -7c-2 -1 -3 -4 -4 -6c0 -2 -1 -5 -2 -7s-3 -5 -3 -6c-1 -2 -2 -6 -4 -8c-1 -2 -3 -6 -3 -8c-1 -3 -3 -6 -4 -8c-2 -2 -3 -5 -3 -6c0 0 -1 -3 -3 -6
s-4 -5 -4 -6c0 0 -1 -2 -2 -3s-3 -3 -4 -5s-3 -5 -4 -7c-2 -2 -4 -5 -6 -6c-3 -4 -13 -14 -17 -17c-5 -5 -26 -17 -28 -17c-1 0 -4 -1 -7 -3c-4 -2 -8 -3 -12 -3c-3 -1 -8 -2 -12 -3c-8 -3 -19 -4 -43 -5c-22 -1 -24 -1 -17 -4c1 -1 4 -3 5 -4c6 -5 73 -5 92 1c3 0 8 1 11 2
s7 2 9 3c1 1 4 2 7 3c2 1 5 2 6 3c2 1 4 3 6 4s4 2 4 3l3 3c8 4 26 25 30 33c1 2 2 4 3 5c0 0 2 2 3 4s4 7 6 10c2 4 5 9 6 13l4 6c1 1 2 3 3 6c2 2 3 5 4 6s2 3 3 5s4 6 6 8c1 3 4 6 5 8c2 3 4 5 5 7c2 1 5 4 8 7c5 6 10 9 13 11c2 1 5 3 6 4c9 7 44 7 54 0c2 -1 5 -3 7 -3
c1 -1 4 -2 5 -3s3 -3 6 -4c5 -3 12 -11 15 -15c0 -1 1 -3 2 -3c1 -1 2 -4 3 -8c1 -3 3 -8 4 -10c3 -9 0 -30 -6 -41c-1 -2 -2 -5 -3 -7c-2 -2 -3 -5 -4 -6c-2 -1 -3 -3 -3 -4c-4 -6 -21 -20 -29 -22c-3 -1 -7 -2 -9 -3c-7 -3 -13 -3 -24 0c-8 3 -9 4 -17 9
c-8 6 -14 26 -9 32c1 1 2 4 3 7c2 3 3 5 5 6c1 0 3 2 4 3c6 6 17 5 23 -1c9 -8 11 5 3 14c-7 8 -23 12 -32 7c-2 -1 -5 -2 -7 -3c-6 -1 -19 -13 -22 -20c-1 -2 -3 -6 -4 -7c-3 -5 -4 -24 -2 -34c2 -17 16 -32 34 -37c4 -1 8 -2 10 -3c8 -3 33 -2 39 1c1 1 6 2 10 2
c4 1 8 2 10 4c2 1 5 2 7 3c3 1 5 2 6 3s3 3 5 4c9 4 23 18 28 27c2 3 3 5 4 6c1 0 9 17 9 19c0 1 1 4 2 7c4 7 5 15 5 34l-1 16l-4 10c-2 6 -4 11 -5 12s-3 4 -4 6c-1 4 -13 16 -18 19c-4 3 -8 5 -13 9c-2 1 -5 3 -7 4c-3 0 -6 2 -7 3c-2 1 -6 2 -8 3c-3 0 -9 2 -14 3z
M664 486c-14 2 -41 1 -47 -2c-2 -1 -7 -2 -10 -3c-4 -1 -8 -2 -10 -3c-1 -1 -4 -3 -7 -4c-2 -1 -5 -2 -7 -3c-1 -1 -4 -3 -6 -3c-2 -1 -5 -3 -6 -3c-1 -1 -3 -3 -5 -3c-2 -1 -4 -3 -6 -4c-1 -1 -3 -2 -4 -3c-2 -1 -12 -7 -16 -11l-4 -2s-2 -1 -3 -2s-4 -3 -5 -5
c-2 -1 -7 -5 -12 -8c-4 -4 -8 -7 -9 -8s-2 -2 -4 -3c-1 -1 -3 -2 -5 -4c-6 -5 -8 -7 -11 -10c-2 -1 -6 -4 -9 -6c-2 -2 -6 -5 -7 -5c-2 -1 -4 -3 -5 -4s-3 -2 -5 -3c-3 -1 -5 -3 -6 -4s-3 -2 -5 -3c-3 -1 -5 -2 -7 -3c-1 -1 -4 -3 -6 -4c-3 -1 -6 -2 -7 -3
c-2 -1 -5 -2 -8 -3s-6 -2 -7 -3c-2 -1 -6 -2 -11 -3s-11 -3 -13 -4c-13 -6 -100 -5 -117 1c-2 0 -8 2 -14 2c-5 1 -12 2 -15 3c-11 4 -22 6 -24 3c-1 -2 0 -4 6 -5c2 -1 5 -3 7 -4s5 -2 7 -3c3 -1 7 -2 9 -3s6 -3 10 -4s8 -2 10 -3s7 -3 11 -3c4 -1 8 -2 10 -3s6 -2 10 -3
s11 -2 15 -4c4 -1 10 -3 17 -3c5 -1 11 -2 13 -2c7 -2 25 -2 37 0c7 0 17 2 23 2c8 1 12 2 14 3s8 3 13 4c4 0 9 2 11 3c1 1 5 2 9 3c3 1 7 2 9 3l8 4c3 0 7 2 8 3c2 1 5 3 8 3c2 1 5 2 6 3s4 3 6 3c2 1 5 3 7 4c1 2 3 3 3 3c1 0 3 1 5 2c1 1 5 3 7 4s4 3 6 4c1 2 4 4 6 5
c2 2 6 4 8 6s5 4 6 4c1 1 4 3 6 5s5 4 7 5c1 2 4 4 7 6c2 2 4 4 5 4c0 0 8 6 13 11c2 1 5 4 7 5c1 2 5 5 7 6c2 2 5 4 6 5c1 0 3 1 4 3c4 3 15 8 20 9c2 1 7 2 9 3c7 2 19 2 25 0c2 -1 6 -2 9 -2c3 -1 6 -2 8 -3c1 -2 4 -3 6 -4c8 -4 20 -18 22 -27c4 -15 -1 -29 -15 -40
c-2 -2 -5 -4 -7 -5c-2 0 -5 -2 -6 -3c-3 -1 -5 -1 -13 -1c-21 0 -36 15 -37 38c0 11 -2 17 -5 13c0 0 -1 -1 -3 -1c-3 0 -10 -9 -12 -14c0 -1 -2 -4 -3 -6c-6 -12 3 -36 16 -45c1 -1 4 -3 6 -4c2 -2 4 -3 5 -3c0 0 3 -1 6 -3c4 -2 8 -3 12 -4c4 0 10 -1 14 -2
c7 -1 11 -1 22 1c13 3 15 3 18 5c1 1 4 3 6 3c1 1 4 2 6 4c1 1 4 2 5 3s4 3 7 6c2 2 5 6 6 7c2 2 4 5 5 6c0 2 2 4 3 6c1 1 2 5 3 7c0 2 1 5 1 7c6 19 -4 50 -21 66l-7 7c-1 1 -5 4 -7 5s-4 2 -5 3c0 1 -3 2 -5 3c-3 1 -6 3 -7 4c-2 1 -6 2 -10 3s-9 2 -10 3
c-2 1 -7 2 -11 2zM117 359c-16 3 -30 2 -33 -1c-4 -4 -2 -6 12 -7c4 -1 9 -2 13 -3c2 -1 8 -3 11 -4c4 0 8 -1 10 -2c1 -1 5 -3 8 -3c6 -2 19 -7 26 -11c3 -1 7 -3 9 -4c3 0 6 -1 6 -2c1 -1 3 -2 6 -3c4 -2 12 -6 17 -9c1 -1 4 -3 7 -4c2 -1 5 -3 7 -4c1 -2 3 -2 3 -2
c1 0 3 -2 5 -3c2 -2 5 -4 7 -5c1 0 4 -2 5 -3c2 -1 8 -5 13 -8c1 -1 4 -3 5 -4s3 -3 5 -3c2 -1 6 -3 7 -5c2 -1 4 -2 5 -2c0 0 2 -1 3 -2c1 -2 3 -3 5 -4s5 -3 7 -5c9 -5 14 -8 17 -9c1 -1 3 -2 3 -3c0 0 3 -2 6 -3c3 -2 8 -5 11 -7l10 -5s5 -3 6 -4c2 -1 5 -3 7 -4
c3 -1 6 -2 7 -3c2 -1 5 -3 8 -3c2 -1 5 -3 5 -3c1 -1 4 -3 8 -4s8 -2 8 -3c1 -1 3 -2 6 -3c3 0 8 -2 10 -4c3 -1 7 -2 10 -3c3 0 7 -2 11 -3c3 -1 9 -2 15 -3c5 -1 11 -2 15 -3c8 -3 45 -4 54 -1c9 2 20 4 22 4s5 1 7 3c3 1 7 3 9 3c3 1 6 2 8 3c1 1 5 3 7 5
c11 6 14 8 21 14c11 12 18 22 20 29c0 2 1 7 3 11c3 9 4 29 0 35c-1 1 -2 5 -3 8c-2 4 -13 20 -15 20c-1 0 -2 1 -4 2c-5 4 -13 8 -18 10c-3 1 -6 2 -8 3c-10 5 -32 1 -44 -9c-21 -17 -27 -36 -16 -52c5 -7 6 -7 7 3c1 4 2 7 4 10s3 6 4 7c3 7 21 16 30 16
c12 0 30 -14 33 -24c2 -6 2 -19 1 -25c-3 -9 -18 -23 -29 -26c-3 -1 -6 -3 -8 -4c-1 -1 -6 -2 -9 -3c-9 -1 -13 -2 -21 -4c-14 -4 -45 -3 -58 1c-4 1 -10 3 -14 3c-5 1 -10 3 -13 4s-7 2 -10 3c-2 0 -6 1 -7 3c-2 1 -6 2 -9 3s-7 2 -8 3c-2 1 -5 3 -8 4c-2 1 -6 2 -8 3
s-5 3 -7 3c-2 1 -5 2 -8 3c-2 2 -5 3 -6 4c-2 0 -5 2 -6 3c-2 1 -5 2 -7 3s-4 2 -5 2c0 1 -20 11 -23 12c-1 0 -2 1 -4 2c-1 1 -4 2 -5 3c-2 1 -5 2 -6 3c-3 2 -6 4 -25 13c-7 4 -13 7 -14 8c-1 0 -3 2 -6 3c-2 0 -4 2 -5 2c0 1 -3 2 -6 3c-2 2 -6 3 -7 4s-4 2 -7 3
c-2 1 -6 3 -7 4c-2 1 -5 3 -6 3s-4 1 -6 3c-2 1 -5 2 -8 3s-6 3 -7 4c-2 1 -5 2 -8 3c-4 1 -8 2 -10 3c-1 1 -6 3 -9 3c-4 1 -9 2 -13 4c-4 1 -9 2 -16 3c-5 0 -12 1 -15 1z" />
  </g>
</svg>
