<?xml version="1.0" encoding="UTF-8"?>
<svg xmlns="http://www.w3.org/2000/svg" xmlns:xlink="http://www.w3.org/1999/xlink" width="300pt" height="300pt" viewBox="0 0 300 300" version="1.1">
<g id="surface1">
<path style=" stroke:none;fill-rule:nonzero;fill:rgb(13.699341%,12.199402%,12.5%);fill-opacity:1;" d="M 125.402344 129.199219 C 119.117188 136.171875 110.1875 140.199219 100.582031 140.199219 C 82.109375 140.199219 67.082031 125.171875 67.082031 106.699219 C 67.082031 88.226563 82.109375 73.199219 100.582031 73.199219 C 110.1875 73.199219 119.117188 77.226563 125.410156 84.199219 L 173.769531 84.199219 L 173.769531 57.542969 C 173.769531 52.019531 169.292969 47.542969 163.769531 47.542969 L 37.398438 47.542969 C 31.875 47.542969 27.398438 52.019531 27.398438 57.542969 L 27.398438 242.460938 C 27.398438 247.980469 31.875 252.460938 37.398438 252.460938 L 163.769531 252.460938 C 169.292969 252.460938 173.769531 247.980469 173.769531 242.460938 L 173.769531 129.199219 "/>
<path style=" stroke:none;fill-rule:nonzero;fill:rgb(88.598633%,41.19873%,41.19873%);fill-opacity:1;" d="M 272.601563 106.699219 C 272.601563 119.671875 262.078125 130.199219 249.101563 130.199219 C 240.722656 130.199219 233.371094 125.808594 229.222656 119.199219 L 120.472656 119.199219 C 116.320313 125.808594 108.960938 130.199219 100.578125 130.199219 C 87.609375 130.199219 77.082031 119.671875 77.082031 106.699219 C 77.082031 93.71875 87.609375 83.199219 100.578125 83.199219 C 108.972656 83.199219 116.320313 87.589844 120.480469 94.199219 L 229.210938 94.199219 C 233.359375 87.589844 240.722656 83.199219 249.101563 83.199219 C 262.078125 83.199219 272.601563 93.71875 272.601563 106.699219 "/>
<path style=" stroke:none;fill-rule:nonzero;fill:rgb(100%,100%,100%);fill-opacity:1;" d="M 134.5 215.816406 L 153.035156 183.710938 L 141.855469 183.710938 C 136.679688 165.371094 119.808594 151.886719 99.832031 151.886719 C 75.757813 151.886719 56.167969 171.476563 56.167969 195.554688 C 56.167969 219.632813 75.757813 239.222656 99.832031 239.222656 C 107.886719 239.222656 115.761719 237.007813 122.601563 232.824219 C 125.898438 230.804688 126.9375 226.496094 124.917969 223.199219 C 122.898438 219.902344 118.59375 218.863281 115.292969 220.878906 C 110.652344 223.71875 105.308594 225.222656 99.832031 225.222656 C 83.476563 225.222656 70.167969 211.914063 70.167969 195.554688 C 70.167969 179.195313 83.476563 165.886719 99.832031 165.886719 C 111.984375 165.886719 122.445313 173.230469 127.027344 183.710938 L 115.964844 183.710938 "/>
</g>
</svg>
