<?xml version="1.0" encoding="UTF-8"?>
<svg xmlns="http://www.w3.org/2000/svg" xmlns:xlink="http://www.w3.org/1999/xlink" width="300pt" height="300pt" viewBox="0 0 300 300" version="1.1">
<g id="surface1">
<path style=" stroke:none;fill-rule:nonzero;fill:rgb(13.699341%,12.199402%,12.5%);fill-opacity:1;" d="M 114.730469 129.199219 C 108.441406 136.171875 99.515625 140.199219 89.90625 140.199219 C 71.433594 140.199219 56.40625 125.171875 56.40625 106.699219 C 56.40625 88.226563 71.433594 73.199219 89.90625 73.199219 C 99.511719 73.199219 108.441406 77.226563 114.734375 84.199219 L 163.09375 84.199219 L 163.09375 57.542969 C 163.09375 52.019531 158.617188 47.542969 153.09375 47.542969 L 26.722656 47.542969 C 21.203125 47.542969 16.722656 52.019531 16.722656 57.542969 L 16.722656 242.460938 C 16.722656 247.980469 21.203125 252.460938 26.722656 252.460938 L 153.09375 252.460938 C 158.617188 252.460938 163.09375 247.980469 163.09375 242.460938 L 163.09375 129.199219 "/>
<path style=" stroke:none;fill-rule:nonzero;fill:rgb(88.598633%,41.19873%,41.19873%);fill-opacity:1;" d="M 229.304688 137.859375 L 229.304688 119.199219 L 109.796875 119.199219 C 105.402344 126.199219 97.40625 130.710938 88.410156 130.152344 C 76.703125 129.429688 67.167969 119.890625 66.453125 108.179688 C 65.613281 94.527344 76.445313 83.199219 89.90625 83.199219 C 98.296875 83.199219 105.644531 87.589844 109.804688 94.199219 L 229.304688 94.199219 L 229.304688 75.53125 L 283.277344 106.699219 "/>
<path style=" stroke:none;fill-rule:nonzero;fill:rgb(100%,100%,100%);fill-opacity:1;" d="M 118.660156 221.363281 C 104.765625 223.046875 95.828125 214.0625 95.828125 214.0625 C 95.828125 214.0625 100.132813 207.46875 103.550781 202.179688 C 112.296875 211.164063 127.222656 207.609375 130.542969 196.054688 C 133.863281 184.496094 125.816406 175.703125 115.386719 175.1875 C 106.273438 174.738281 98.523438 189.296875 95.582031 194.25 C 83.976563 214.835938 75.050781 220.058594 63.824219 220.386719 C 52.597656 220.714844 34.679688 210.796875 34.164063 191.757813 C 33.648438 172.714844 47.265625 161.769531 61.15625 160.085938 C 75.050781 158.402344 83.988281 167.382813 83.988281 167.382813 C 83.988281 167.382813 79.683594 173.980469 76.269531 179.265625 C 67.519531 170.28125 52.597656 173.839844 49.273438 185.394531 C 45.953125 196.949219 54 205.742188 64.429688 206.257813 C 73.539063 206.707031 81.285156 192.167969 84.230469 187.203125 C 95.832031 166.621094 104.765625 161.386719 115.992188 161.058594 C 127.222656 160.730469 145.140625 170.652344 145.652344 189.691406 C 146.167969 208.730469 132.554688 219.675781 118.660156 221.363281 "/>
</g>
</svg>
