<?xml version="1.0" encoding="UTF-8"?>
<svg xmlns="http://www.w3.org/2000/svg" xmlns:xlink="http://www.w3.org/1999/xlink" width="300pt" height="300pt" viewBox="0 0 300 300" version="1.1">
<g id="surface1">
<path style=" stroke:none;fill-rule:nonzero;fill:rgb(13.699341%,12.199402%,12.5%);fill-opacity:1;" d="M 101.890625 245.9375 L 94.984375 250.871094 L 44.097656 203.910156 L 48.460938 196.628906 L 62.457031 209.542969 L 149.804688 114.894531 L 179.664063 108.058594 L 175.246094 138.371094 L 87.898438 233.023438 "/>
<path style=" stroke:none;fill-rule:nonzero;fill:rgb(13.699341%,12.199402%,12.5%);fill-opacity:1;" d="M 72.164063 237.820313 L 46.535156 265.589844 C 46.535156 265.589844 42.121094 266.226563 37.570313 262.03125 C 33.023438 257.835938 33.304688 253.382813 33.304688 253.382813 L 58.933594 225.609375 "/>
<path style=" stroke:none;fill-rule:nonzero;fill:rgb(13.699341%,12.199402%,12.5%);fill-opacity:1;" d="M 96.746094 146.6875 L 106.800781 140.445313 L 88.144531 117.003906 L 126.558594 112.855469 L 128.289063 78.398438 L 150.695313 92.464844 L 186.183594 75.277344 L 190.925781 115.011719 L 217.726563 121.726563 L 195.539063 134.914063 L 211.484375 163.324219 L 180.527344 162.378906 L 177.824219 201.023438 L 153.464844 182.335938 L 147.996094 192.828125 L 190.105469 255.929688 L 196.546875 179.3125 L 259.132813 201.261719 L 220.566406 140.179688 L 266.699219 119.152344 L 210.046875 100.121094 L 206.632813 34.371094 L 151.691406 73.128906 L 106.128906 40.570313 L 108.726563 94.894531 L 34.175781 98.105469 "/>
</g>
</svg>
