<?xml version="1.0" encoding="UTF-8"?>
<svg xmlns="http://www.w3.org/2000/svg" xmlns:xlink="http://www.w3.org/1999/xlink" width="300pt" height="300pt" viewBox="0 0 300 300" version="1.1">
<defs>
<clipPath id="clip1">
  <path d="M 145.496094 42.667969 L 266.871094 42.667969 L 266.871094 257.332031 L 145.496094 257.332031 Z M 145.496094 42.667969 "/>
</clipPath>
</defs>
<g id="surface1">
<path style=" stroke:none;fill-rule:nonzero;fill:rgb(100%,100%,100%);fill-opacity:1;" d="M 173.476563 223.5 L 167.617188 233.253906 L 158.695313 226.191406 C 145.992188 216.132813 125.507813 200.269531 113.269531 190.789063 C 108.191406 186.855469 104.539063 184.023438 103.453125 183.171875 L 94.664063 176.234375 L 102.539063 168.28125 C 110.886719 159.855469 120.011719 155.882813 132.128906 155.40625 L 135.179688 155.285156 L 137.777344 156.890625 C 138.183594 157.140625 138.183594 157.140625 141.085938 159.257813 C 144.492188 161.742188 151.226563 166.660156 158.960938 172.21875 C 162.304688 166.4375 165.914063 160.171875 169.445313 154.039063 C 173.074219 147.742188 176.355469 142.050781 179.277344 136.992188 C 179.347656 96.957031 179.496094 55.875 179.496094 55.875 C 179.496094 50.351563 175.019531 45.875 169.496094 45.875 L 43.128906 45.875 C 37.605469 45.875 33.128906 50.351563 33.128906 55.875 L 33.128906 240.792969 C 33.128906 246.3125 37.605469 250.792969 43.128906 250.792969 L 169.496094 250.792969 C 175.019531 250.792969 179.496094 246.3125 179.496094 240.792969 L 179.496094 213.367188 C 177.023438 217.554688 174.960938 221.03125 173.476563 223.5 "/>
<path style=" stroke:none;fill-rule:nonzero;fill:rgb(100%,100%,100%);fill-opacity:1;" d="M 129.640625 175.664063 C 128.730469 175.789063 127.867188 175.949219 127.035156 176.15625 C 136.703125 183.640625 150.640625 194.441406 162.128906 203.441406 C 162.71875 202.449219 163.328125 201.414063 163.960938 200.34375 L 156.296875 194.902344 C 145.277344 187.074219 134.519531 179.226563 129.640625 175.664063 "/>
<path style=" stroke:none;fill-rule:nonzero;fill:rgb(88.598633%,41.19873%,41.19873%);fill-opacity:1;" d="M 222.453125 120.507813 C 219.761719 116.277344 211.40625 114 203.6875 115.503906 C 199.976563 120.632813 176.164063 162.625 162.089844 186.75 C 147.074219 176.085938 132.820313 165.582031 132.523438 165.398438 C 122.554688 165.789063 115.882813 169.023438 109.644531 175.320313 C 113.328125 178.226563 146.894531 204.09375 164.902344 218.351563 C 175.953125 199.949219 220.6875 123.210938 222.453125 120.507813 "/>
<g clip-path="url(#clip1)" clip-rule="nonzero">
<path style="fill:none;stroke-width:120;stroke-linecap:butt;stroke-linejoin:miter;stroke:rgb(100%,100%,100%);stroke-opacity:1;stroke-dasharray:140,140;stroke-miterlimit:10;" d="M 2389.960938 2314.921875 C 2389.960938 2362.617188 2351.328125 2401.25 2303.632813 2401.25 L 1212.617188 2401.25 C 1164.921875 2401.25 1126.289063 2362.617188 1126.289063 2314.921875 L 1126.289063 718.4375 C 1126.289063 670.742188 1164.921875 632.070313 1212.617188 632.070313 L 2303.632813 632.070313 C 2351.328125 632.070313 2389.960938 670.742188 2389.960938 718.4375 L 2389.960938 965.742188 C 2385.078125 970.117188 2389.960938 2314.921875 2389.960938 2314.921875 Z M 2389.960938 2314.921875 " transform="matrix(0.1,0,0,-0.1,0,300)"/>
</g>
</g>
</svg>
