<?xml version="1.0" encoding="UTF-8"?>
<svg xmlns="http://www.w3.org/2000/svg" xmlns:xlink="http://www.w3.org/1999/xlink" width="300pt" height="300pt" viewBox="0 0 300 300" version="1.1">
<g id="surface1">
<path style=" stroke:none;fill-rule:nonzero;fill:rgb(13.699341%,12.199402%,12.5%);fill-opacity:1;" d="M 208.902344 144.507813 C 224.570313 134.472656 269.132813 102.144531 276.535156 55.003906 C 276.773438 53.5 274.976563 52.53125 273.855469 53.5625 C 263.226563 63.316406 227.417969 92.753906 176.859375 98.476563 C 176.089844 98.5625 175.488281 99.179688 175.433594 99.949219 C 173.953125 120.121094 171.011719 148.035156 157.613281 184.050781 L 150.167969 179.753906 L 142.445313 184.210938 C 128.996094 148.117188 126.046875 120.152344 124.566406 99.949219 C 124.511719 99.179688 123.910156 98.5625 123.140625 98.476563 C 72.582031 92.753906 36.773438 63.316406 26.140625 53.5625 C 25.023438 52.53125 23.226563 53.5 23.464844 55.003906 C 30.867188 102.144531 75.429688 134.472656 91.09375 144.507813 C 92.523438 145.425781 91.757813 147.644531 90.070313 147.46875 C 82.183594 146.644531 67.839844 143.945313 51.257813 135.210938 C 50 134.546875 48.566406 135.699219 48.945313 137.070313 C 57.132813 166.605469 89.382813 182.570313 101.390625 187.589844 C 102.824219 188.1875 102.660156 190.269531 101.148438 190.636719 C 94.945313 192.140625 83.734375 194.28125 73.878906 193.136719 C 72.429688 192.96875 71.53125 194.617188 72.441406 195.757813 C 80.828125 206.265625 100.371094 211.753906 114.730469 213.386719 C 114.796875 213.394531 115.105469 213.472656 115.609375 213.609375 L 121.105469 230.089844 L 150.167969 246.867188 L 179.226563 230.089844 L 185.269531 213.386719 C 199.628906 211.753906 219.175781 206.265625 227.558594 195.757813 C 228.46875 194.617188 227.566406 192.96875 226.121094 193.136719 C 216.261719 194.28125 205.054688 192.140625 198.847656 190.636719 C 197.339844 190.269531 197.175781 188.1875 198.609375 187.589844 C 210.617188 182.570313 242.867188 166.605469 251.054688 137.070313 C 251.433594 135.699219 250.003906 134.546875 248.742188 135.210938 C 232.160156 143.945313 217.816406 146.644531 209.929688 147.46875 C 208.242188 147.644531 207.476563 145.425781 208.902344 144.507813 "/>
</g>
</svg>
