<?xml version="1.0" encoding="UTF-8"?>
<svg xmlns="http://www.w3.org/2000/svg" xmlns:xlink="http://www.w3.org/1999/xlink" width="600pt" height="600pt" viewBox="0 0 600 600" version="1.1">
<g id="surface1">
<path style=" stroke:none;fill-rule:nonzero;fill:rgb(60.798645%,20.399475%,18.798828%);fill-opacity:1;" d="M 300 584.347656 C 296.078125 584.347656 292.390625 582.820313 289.617188 580.046875 L 19.953125 310.382813 C 17.179688 307.609375 15.652344 303.921875 15.652344 300 C 15.652344 296.078125 17.179688 292.390625 19.953125 289.617188 L 289.617188 19.953125 C 292.390625 17.179688 296.078125 15.652344 300 15.652344 C 303.921875 15.652344 307.609375 17.179688 310.382813 19.953125 L 580.046875 289.617188 C 582.820313 292.390625 584.347656 296.078125 584.347656 300 C 584.347656 303.921875 582.820313 307.609375 580.046875 310.382813 L 310.382813 580.046875 C 307.609375 582.820313 303.921875 584.347656 300 584.347656 "/>
<path style=" stroke:none;fill-rule:nonzero;fill:rgb(100%,100%,100%);fill-opacity:1;" d="M 300 10.652344 C 294.964844 10.652344 289.925781 12.574219 286.082031 16.414063 L 16.417969 286.082031 C 8.730469 293.769531 8.730469 306.230469 16.417969 313.917969 L 286.082031 583.582031 C 289.925781 587.425781 294.964844 589.347656 300 589.347656 C 305.035156 589.347656 310.074219 587.425781 313.917969 583.582031 L 583.582031 313.917969 C 591.269531 306.230469 591.269531 293.769531 583.582031 286.082031 L 313.917969 16.414063 C 310.074219 12.574219 305.035156 10.652344 300 10.652344 M 300 20.652344 C 302.585938 20.652344 305.015625 21.660156 306.847656 23.488281 L 576.511719 293.152344 C 580.285156 296.929688 580.285156 303.070313 576.511719 306.84375 L 306.847656 576.511719 C 305.015625 578.339844 302.585938 579.347656 300 579.347656 C 297.414063 579.347656 294.984375 578.339844 293.152344 576.511719 L 23.488281 306.84375 C 19.714844 303.070313 19.714844 296.929688 23.488281 293.152344 L 293.152344 23.488281 C 294.984375 21.660156 297.414063 20.652344 300 20.652344 "/>
<path style=" stroke:none;fill-rule:nonzero;fill:rgb(100%,100%,100%);fill-opacity:1;" d="M 203.3125 394.339844 C 248.265625 438.09375 302.800781 432.097656 302.800781 432.097656 C 302.800781 432.097656 302.800781 429.105469 304.597656 423.707031 C 315.988281 421.308594 343.558594 423.109375 346.550781 423.109375 C 349.550781 423.109375 355.539063 432.699219 357.339844 435.695313 C 365.128906 435.695313 410.683594 422.507813 417.875 413.519531 C 421.46875 402.128906 410.085938 335.007813 403.488281 304.4375 C 435.851563 217.535156 420.269531 192.367188 420.269531 192.367188 C 387.308594 181.578125 368.128906 185.773438 348.953125 192.96875 C 329.773438 200.15625 307.597656 195.964844 305.796875 197.757813 C 305.054688 198.503906 307.410156 214.675781 310.417969 234.132813 C 310.523438 234.792969 310.621094 235.453125 310.726563 236.117188 C 311.21875 239.261719 311.710938 242.46875 312.210938 245.707031 C 312.3125 246.363281 312.417969 247.023438 312.527344 247.6875 C 313.023438 250.832031 313.519531 253.992188 314.007813 257.109375 C 314.097656 257.703125 314.191406 258.300781 314.289063 258.890625 C 314.789063 262.152344 315.292969 265.367188 315.769531 268.480469 C 315.882813 269.214844 315.992188 269.941406 316.105469 270.667969 C 316.601563 273.949219 317.085938 277.109375 317.523438 280.082031 C 317.664063 281.027344 317.800781 281.957031 317.933594 282.863281 C 318.449219 286.425781 318.890625 289.660156 319.246094 292.453125 C 319.296875 292.859375 319.351563 293.253906 319.394531 293.640625 C 319.894531 297.597656 320.183594 300.527344 320.183594 302.042969 C 320.183594 302.359375 320.164063 302.699219 320.117188 303.054688 C 320.054688 303.664063 319.925781 304.328125 319.742188 305.039063 C 319.039063 307.691406 317.621094 310.984375 315.734375 314.628906 C 315.398438 315.277344 315.046875 315.941406 314.679688 316.609375 C 306.625 331.4375 292.351563 350.695313 290.21875 355.386719 C 251.859375 354.785156 232.679688 364.375 232.679688 364.375 L 215.300781 360.777344 C 215.300781 360.777344 203.914063 368.570313 203.3125 394.339844 "/>
<path style="fill:none;stroke-width:100;stroke-linecap:round;stroke-linejoin:miter;stroke:rgb(100%,100%,100%);stroke-opacity:1;stroke-miterlimit:10;" d="M 2870 2295.273438 L 1738.90625 3877.03125 " transform="matrix(0.1,0,0,-0.1,0,600)"/>
<path style=" stroke:none;fill-rule:nonzero;fill:rgb(100%,100%,100%);fill-opacity:1;" d="M 243.425781 239.390625 L 235.523438 270.628906 L 194.890625 214.023438 L 202.792969 182.785156 Z M 243.425781 239.390625 "/>
<path style=" stroke:none;fill-rule:nonzero;fill:rgb(100%,100%,100%);fill-opacity:1;" d="M 168.015625 232.179688 L 135.472656 230.6875 L 177.378906 286.351563 L 209.921875 287.847656 Z M 168.015625 232.179688 "/>
</g>
</svg>
