<?xml version="1.0" encoding="UTF-8"?>
<svg xmlns="http://www.w3.org/2000/svg" xmlns:xlink="http://www.w3.org/1999/xlink" width="600pt" height="600pt" viewBox="0 0 600 600" version="1.1">
<g id="surface1">
<path style=" stroke:none;fill-rule:nonzero;fill:rgb(8.198547%,8.198547%,7.798767%);fill-opacity:1;" d="M 300 584.347656 C 296.078125 584.347656 292.390625 582.820313 289.617188 580.046875 L 19.953125 310.382813 C 14.230469 304.65625 14.230469 295.34375 19.953125 289.617188 L 289.617188 19.953125 C 292.390625 17.179688 296.078125 15.652344 300 15.652344 C 303.921875 15.652344 307.609375 17.179688 310.382813 19.953125 L 580.046875 289.617188 C 585.769531 295.34375 585.769531 304.65625 580.046875 310.382813 L 310.382813 580.046875 C 307.609375 582.820313 303.921875 584.347656 300 584.347656 "/>
<path style=" stroke:none;fill-rule:nonzero;fill:rgb(100%,100%,100%);fill-opacity:1;" d="M 300 10.652344 C 294.964844 10.652344 289.925781 12.574219 286.082031 16.417969 L 16.417969 286.085938 C 8.730469 293.769531 8.730469 306.230469 16.417969 313.917969 L 286.082031 583.582031 C 289.925781 587.425781 294.964844 589.347656 300 589.347656 C 305.035156 589.347656 310.074219 587.425781 313.917969 583.582031 L 583.582031 313.917969 C 591.269531 306.230469 591.269531 293.769531 583.582031 286.085938 L 313.917969 16.417969 C 310.074219 12.574219 305.035156 10.652344 300 10.652344 M 300 20.652344 C 302.585938 20.652344 305.015625 21.660156 306.847656 23.488281 L 576.511719 293.15625 C 578.339844 294.980469 579.347656 297.414063 579.347656 300 C 579.347656 302.585938 578.339844 305.015625 576.511719 306.847656 L 306.847656 576.511719 C 305.015625 578.339844 302.585938 579.347656 300 579.347656 C 297.414063 579.347656 294.984375 578.339844 293.152344 576.511719 L 23.488281 306.847656 C 21.660156 305.015625 20.652344 302.585938 20.652344 300 C 20.652344 297.414063 21.660156 294.980469 23.488281 293.15625 L 293.152344 23.488281 C 294.984375 21.660156 297.414063 20.652344 300 20.652344 "/>
<path style=" stroke:none;fill-rule:nonzero;fill:rgb(8.198547%,8.198547%,7.798767%);fill-opacity:1;" d="M 342.4375 166.320313 C 342.4375 189.757813 323.4375 208.757813 300 208.757813 C 276.5625 208.757813 257.5625 189.757813 257.5625 166.320313 C 257.5625 142.882813 276.5625 123.882813 300 123.882813 C 323.4375 123.882813 342.4375 142.882813 342.4375 166.320313 "/>
<path style="fill:none;stroke-width:150;stroke-linecap:round;stroke-linejoin:miter;stroke:rgb(100%,100%,100%);stroke-opacity:1;stroke-dasharray:148.1,296.2;stroke-miterlimit:10;" d="M 3424.375 4336.796875 C 3424.375 4102.421875 3234.375 3912.421875 3000 3912.421875 C 2765.625 3912.421875 2575.625 4102.421875 2575.625 4336.796875 C 2575.625 4571.171875 2765.625 4761.171875 3000 4761.171875 C 3234.375 4761.171875 3424.375 4571.171875 3424.375 4336.796875 Z M 3424.375 4336.796875 " transform="matrix(0.1,0,0,-0.1,0,600)"/>
<path style=" stroke:none;fill-rule:nonzero;fill:rgb(8.198547%,8.198547%,7.798767%);fill-opacity:1;" d="M 240.402344 434.519531 L 290.5 242.554688 L 309.5 242.554688 L 359.59375 434.519531 C 359.59375 434.519531 343.515625 446.621094 306.140625 446.621094 C 268.769531 446.621094 240.402344 434.519531 240.402344 434.519531 "/>
<path style="fill:none;stroke-width:150;stroke-linecap:round;stroke-linejoin:round;stroke:rgb(100%,100%,100%);stroke-opacity:1;stroke-miterlimit:4;" d="M 2474.414063 1629.023438 C 2429.21875 1644.101563 2404.023438 1654.804688 2404.023438 1654.804688 L 2422.96875 1727.382813 " transform="matrix(0.1,0,0,-0.1,0,600)"/>
<path style="fill:none;stroke-width:150;stroke-linecap:round;stroke-linejoin:round;stroke:rgb(100%,100%,100%);stroke-opacity:1;stroke-dasharray:166.72,333.44;stroke-miterlimit:4;" d="M 2507.1875 2050.039063 L 2843.984375 3340.546875 " transform="matrix(0.1,0,0,-0.1,0,600)"/>
<path style="fill:none;stroke-width:150;stroke-linecap:round;stroke-linejoin:round;stroke:rgb(100%,100%,100%);stroke-opacity:1;stroke-miterlimit:4;" d="M 2886.054688 3501.875 L 2905 3574.453125 L 2980 3574.453125 " transform="matrix(0.1,0,0,-0.1,0,600)"/>
<path style="fill:none;stroke-width:150;stroke-linecap:round;stroke-linejoin:round;stroke:rgb(100%,100%,100%);stroke-opacity:1;stroke-miterlimit:4;" d="M 3020 3574.453125 L 3095 3574.453125 L 3113.945313 3501.875 " transform="matrix(0.1,0,0,-0.1,0,600)"/>
<path style="fill:none;stroke-width:150;stroke-linecap:round;stroke-linejoin:round;stroke:rgb(100%,100%,100%);stroke-opacity:1;stroke-dasharray:166.72,333.44;stroke-miterlimit:4;" d="M 3198.125 3179.257813 L 3534.921875 1888.710938 " transform="matrix(0.1,0,0,-0.1,0,600)"/>
<path style="fill:none;stroke-width:150;stroke-linecap:round;stroke-linejoin:round;stroke:rgb(100%,100%,100%);stroke-opacity:1;stroke-miterlimit:4;" d="M 3577.03125 1727.382813 L 3595.976563 1654.804688 C 3595.976563 1654.804688 3574.882813 1638.984375 3530.3125 1618.75 " transform="matrix(0.1,0,0,-0.1,0,600)"/>
<path style="fill:none;stroke-width:150;stroke-linecap:round;stroke-linejoin:round;stroke:rgb(100%,100%,100%);stroke-opacity:1;stroke-dasharray:134.61,269.22;stroke-miterlimit:4;" d="M 3271.523438 1547.890625 C 3210.78125 1539.296875 3140.898438 1533.828125 3061.40625 1533.828125 C 2880.390625 1533.828125 2720.46875 1562.226563 2603.710938 1591.484375 " transform="matrix(0.1,0,0,-0.1,0,600)"/>
</g>
</svg>
