<?xml version="1.0" encoding="UTF-8"?>
<svg xmlns="http://www.w3.org/2000/svg" xmlns:xlink="http://www.w3.org/1999/xlink" width="300pt" height="300pt" viewBox="0 0 300 300" version="1.1">
<g id="surface1">
<path style=" stroke:none;fill-rule:nonzero;fill:rgb(13.699341%,12.199402%,12.5%);fill-opacity:1;" d="M 129.5 175.703125 C 106.773438 175.703125 88.355469 184.914063 88.355469 196.277344 C 88.355469 207.640625 106.773438 216.851563 129.5 216.851563 C 152.222656 216.851563 170.648438 207.640625 170.648438 196.277344 C 170.648438 184.914063 152.222656 175.703125 129.5 175.703125 "/>
<path style=" stroke:none;fill-rule:nonzero;fill:rgb(13.699341%,12.199402%,12.5%);fill-opacity:1;" d="M 166.894531 151.828125 C 164.503906 155.289063 162.453125 158.988281 160.789063 162.875 L 170.300781 162.875 L 211.105469 198.210938 L 170.300781 233.546875 L 88.695313 233.546875 L 47.890625 198.210938 L 88.695313 162.875 L 105.898438 162.875 C 106.710938 159.140625 107.707031 155.453125 108.886719 151.828125 L 75.941406 151.828125 L 22.382813 198.210938 L 75.941406 244.597656 L 183.058594 244.597656 L 236.613281 198.210938 L 183.058594 151.828125 "/>
<path style=" stroke:none;fill-rule:nonzero;fill:rgb(13.699341%,12.199402%,12.5%);fill-opacity:1;" d="M 129.5 205.296875 C 119.601563 205.296875 111.550781 197.246094 111.550781 187.351563 C 111.550781 160.648438 121.488281 135.070313 139.535156 115.324219 C 156.320313 96.957031 178.734375 85.09375 203.105469 81.582031 L 203.105469 55.40625 L 277.617188 98.429688 L 203.105469 141.457031 L 203.105469 118.042969 C 170.96875 125.121094 147.449219 153.875 147.449219 187.351563 C 147.449219 197.246094 139.394531 205.296875 129.5 205.296875 "/>
</g>
</svg>
