<?xml version="1.0" encoding="UTF-8"?>
<svg xmlns="http://www.w3.org/2000/svg" xmlns:xlink="http://www.w3.org/1999/xlink" width="300pt" height="300pt" viewBox="0 0 300 300" version="1.1">
<g id="surface1">
<path style=" stroke:none;fill-rule:nonzero;fill:rgb(13.699341%,12.199402%,12.5%);fill-opacity:1;" d="M 264 234.398438 L 264 236.941406 C 264 265.660156 212.960938 288.941406 150 288.941406 C 87.039063 288.941406 36 265.660156 36 236.941406 C 36 236.699219 36.011719 236.460938 36.019531 236.21875 L 36.019531 234.429688 C 42.671875 242.257813 52.519531 249.257813 65.238281 255.058594 C 88.050781 265.460938 118.148438 271.191406 150 271.191406 C 181.851563 271.191406 211.949219 265.460938 234.761719 255.058594 C 247.5 249.25 257.351563 242.238281 264 234.398438 "/>
<path style=" stroke:none;fill-rule:nonzero;fill:rgb(13.699341%,12.199402%,12.5%);fill-opacity:1;" d="M 264 209.191406 C 264 237.910156 212.960938 261.191406 150 261.191406 C 87.039063 261.191406 36 237.910156 36 209.191406 C 36 187.5 65.121094 168.910156 106.5 161.121094 L 106.5 219.191406 L 193.5 219.191406 L 193.5 161.121094 C 234.878906 168.910156 264 187.5 264 209.191406 "/>
<path style=" stroke:none;fill-rule:nonzero;fill:rgb(13.699341%,12.199402%,12.5%);fill-opacity:1;" d="M 226.289063 143.179688 L 183.5 143.179688 L 183.5 209.191406 L 116.5 209.191406 L 116.5 143.179688 L 73.710938 143.179688 L 150 11.058594 "/>
</g>
</svg>
