<?xml version="1.0" encoding="UTF-8"?>
<svg xmlns="http://www.w3.org/2000/svg" xmlns:xlink="http://www.w3.org/1999/xlink" width="300pt" height="300pt" viewBox="0 0 300 300" version="1.1">
<g id="surface1">
<path style=" stroke:none;fill-rule:nonzero;fill:rgb(100%,100%,100%);fill-opacity:1;" d="M 259.734375 173.808594 C 259.46875 173.808594 259.195313 173.777344 258.925781 173.714844 L 251.058594 171.832031 C 249.199219 171.382813 248.050781 169.515625 248.496094 167.65625 C 248.941406 165.792969 250.800781 164.636719 252.671875 165.089844 L 260.535156 166.96875 C 262.398438 167.417969 263.546875 169.285156 263.101563 171.148438 C 262.722656 172.738281 261.300781 173.808594 259.734375 173.808594 "/>
<path style=" stroke:none;fill-rule:nonzero;fill:rgb(100%,100%,100%);fill-opacity:1;" d="M 236.617188 168.28125 C 236.351563 168.28125 236.082031 168.25 235.8125 168.183594 L 220.5625 164.539063 C 218.699219 164.09375 217.550781 162.222656 217.996094 160.363281 C 218.441406 158.5 220.304688 157.34375 222.171875 157.796875 L 237.421875 161.441406 C 239.285156 161.886719 240.433594 163.757813 239.988281 165.617188 C 239.605469 167.210938 238.1875 168.28125 236.617188 168.28125 M 235.605469 195.0625 C 234.425781 195.0625 233.273438 194.460938 232.628906 193.371094 C 231.644531 191.730469 232.183594 189.601563 233.828125 188.621094 L 247.296875 180.59375 C 248.933594 179.617188 251.066406 180.148438 252.046875 181.800781 C 253.027344 183.441406 252.488281 185.570313 250.84375 186.546875 L 237.378906 194.574219 C 236.820313 194.90625 236.210938 195.0625 235.605469 195.0625 M 50.691406 206.746094 C 49.511719 206.746094 48.359375 206.144531 47.710938 205.054688 C 46.730469 203.414063 47.269531 201.285156 48.914063 200.304688 L 62.382813 192.277344 C 64.023438 191.300781 66.152344 191.832031 67.132813 193.480469 C 68.113281 195.125 67.574219 197.253906 65.929688 198.230469 L 52.460938 206.257813 C 51.90625 206.589844 51.296875 206.746094 50.691406 206.746094 M 208.671875 211.121094 C 207.488281 211.121094 206.339844 210.519531 205.691406 209.429688 C 204.710938 207.785156 205.25 205.65625 206.890625 204.679688 L 220.359375 196.648438 C 222.003906 195.671875 224.132813 196.207031 225.109375 197.851563 C 226.09375 199.496094 225.554688 201.625 223.910156 202.601563 L 210.441406 210.632813 C 209.886719 210.964844 209.273438 211.121094 208.671875 211.121094 M 47.863281 221.644531 C 47.597656 221.644531 47.328125 221.617188 47.054688 221.550781 L 39.472656 219.734375 C 33.289063 218.257813 32.621094 214.742188 32.621094 213.300781 C 32.621094 212.085938 33.046875 210.292969 35.082031 208.660156 C 36.574219 207.460938 38.75 207.695313 39.953125 209.1875 C 40.804688 210.246094 40.933594 211.652344 40.402344 212.804688 C 40.597656 212.871094 40.824219 212.933594 41.082031 212.992188 L 48.667969 214.808594 C 50.527344 215.253906 51.675781 217.121094 51.230469 218.984375 C 50.851563 220.574219 49.429688 221.644531 47.863281 221.644531 M 181.730469 227.175781 C 180.550781 227.175781 179.402344 226.574219 178.753906 225.484375 C 177.769531 223.839844 178.3125 221.714844 179.957031 220.734375 L 193.425781 212.707031 C 195.066406 211.726563 197.195313 212.257813 198.175781 213.90625 C 199.15625 215.550781 198.617188 217.679688 196.972656 218.65625 L 183.503906 226.6875 C 182.949219 227.015625 182.339844 227.175781 181.730469 227.175781 M 78.359375 228.9375 C 78.09375 228.9375 77.824219 228.90625 77.550781 228.84375 L 62.304688 225.199219 C 60.441406 224.753906 59.292969 222.882813 59.734375 221.019531 C 60.179688 219.15625 62.046875 218 63.914063 218.453125 L 79.164063 222.101563 C 81.023438 222.546875 82.171875 224.414063 81.726563 226.277344 C 81.347656 227.867188 79.929688 228.9375 78.359375 228.9375 M 108.855469 236.234375 C 108.589844 236.234375 108.320313 236.203125 108.050781 236.136719 L 92.800781 232.488281 C 90.9375 232.042969 89.789063 230.175781 90.234375 228.3125 C 90.679688 226.453125 92.542969 225.292969 94.414063 225.746094 L 109.660156 229.394531 C 111.523438 229.84375 112.671875 231.710938 112.226563 233.574219 C 111.847656 235.164063 110.425781 236.234375 108.855469 236.234375 M 154.746094 243.136719 C 153.398438 243.136719 152.113281 242.34375 151.554688 241.023438 C 150.808594 239.261719 151.628906 237.226563 153.390625 236.480469 C 153.703125 236.347656 153.996094 236.203125 154.261719 236.046875 L 166.488281 228.761719 C 168.128906 227.78125 170.261719 228.316406 171.238281 229.964844 C 172.222656 231.605469 171.683594 233.734375 170.039063 234.714844 L 157.796875 242.007813 C 157.273438 242.316406 156.710938 242.601563 156.097656 242.863281 C 155.65625 243.050781 155.199219 243.136719 154.746094 243.136719 M 139.355469 243.527344 C 139.089844 243.527344 138.816406 243.496094 138.546875 243.429688 L 123.300781 239.785156 C 121.4375 239.339844 120.289063 237.46875 120.734375 235.609375 C 121.179688 233.746094 123.046875 232.589844 124.910156 233.042969 L 140.160156 236.6875 C 142.019531 237.132813 143.171875 239.003906 142.726563 240.863281 C 142.34375 242.457031 140.925781 243.527344 139.355469 243.527344 "/>
<path style=" stroke:none;fill-rule:nonzero;fill:rgb(100%,100%,100%);fill-opacity:1;" d="M 262.578125 178.945313 C 261.519531 178.945313 260.472656 178.464844 259.792969 177.550781 C 258.972656 176.445313 258.90625 175.011719 259.503906 173.867188 C 259.332031 173.816406 259.140625 173.765625 258.925781 173.714844 C 257.0625 173.269531 255.914063 171.398438 256.359375 169.535156 C 256.808594 167.675781 258.664063 166.515625 260.535156 166.972656 C 265.691406 168.203125 266.972656 170.890625 267.277344 172.382813 C 267.488281 173.402344 267.652344 176.019531 264.644531 178.261719 C 264.023438 178.722656 263.296875 178.945313 262.578125 178.945313 "/>
<path style=" stroke:none;fill-rule:nonzero;fill:rgb(100%,100%,100%);fill-opacity:1;" d="M 160.8125 182.261719 C 157.125 184.460938 151.75 185.675781 146.511719 185.675781 C 144.160156 185.675781 141.832031 185.433594 139.699219 184.921875 L 38.183594 160.640625 C 37.460938 160.46875 36.800781 160.265625 36.167969 160.046875 L 36.167969 184.078125 C 36.167969 184.078125 36.316406 185.9375 38.898438 186.644531 C 41.480469 187.355469 141.847656 211.359375 141.847656 211.359375 C 141.847656 211.359375 149.550781 213.648438 157.316406 209.019531 C 165.082031 204.386719 260.765625 147.375 262.019531 146.605469 C 262.855469 146.089844 263.945313 145.441406 263.945313 143.828125 L 263.945313 120.785156 "/>
<path style=" stroke:none;fill-rule:nonzero;fill:rgb(100%,100%,100%);fill-opacity:1;" d="M 259.789063 105.628906 L 184.238281 87.5625 C 181.195313 90.960938 177.871094 94.671875 174.394531 98.554688 C 183.367188 109.242188 192.289063 119.882813 193.410156 121.28125 L 198.96875 128.238281 L 192.703125 134.5625 C 188.019531 139.289063 174.53125 147.730469 164.320313 147.730469 L 164.316406 147.730469 C 158.441406 147.730469 154.882813 145.1875 152.929688 143.054688 C 152.757813 142.867188 152.589844 142.683594 143.929688 132.378906 C 127.453125 150.507813 125.546875 152.136719 124.570313 152.96875 C 121.101563 155.933594 117.046875 157.496094 112.839844 157.496094 C 104.703125 157.496094 98.058594 151.605469 94.550781 146.09375 L 90.3125 139.4375 L 95.804688 133.765625 C 96.699219 132.835938 103.789063 124.914063 111.296875 116.53125 C 114.371094 113.097656 117.742188 109.328125 121.269531 105.398438 C 119.683594 103.515625 117.996094 101.503906 116.308594 99.492188 L 38.105469 146.105469 C 34.785156 148.085938 35.792969 150.566406 40.335938 151.652344 L 141.847656 175.933594 C 146.394531 177.019531 152.761719 176.300781 156.082031 174.324219 L 262.019531 111.175781 C 265.339844 109.199219 264.332031 106.71875 259.789063 105.628906 "/>
<path style=" stroke:none;fill-rule:nonzero;fill:rgb(88.598633%,41.19873%,41.19873%);fill-opacity:1;" d="M 192.652344 63.246094 C 190.632813 60.070313 184.226563 52.914063 177.566406 58.605469 C 175.296875 60.550781 164.3125 72.542969 151.441406 86.789063 C 142.621094 76.304688 135.511719 67.863281 135.335938 67.667969 C 130.839844 62.757813 114.730469 71.714844 110.042969 76.445313 C 110.449219 76.953125 122.371094 91.167969 134.503906 105.613281 C 118.75 123.175781 104.421875 139.246094 102.988281 140.726563 C 105.011719 143.902344 111.414063 151.058594 118.074219 145.367188 C 120.347656 143.421875 131.335938 131.425781 144.210938 117.171875 C 153.019531 127.652344 160.117188 136.097656 160.308594 136.304688 C 164.800781 141.21875 180.910156 132.257813 185.597656 127.527344 C 184.414063 126.046875 172.875 112.289063 161.152344 98.339844 C 176.902344 80.789063 191.21875 64.726563 192.652344 63.246094 "/>
</g>
</svg>
