<?xml version="1.0" encoding="UTF-8"?>
<svg xmlns="http://www.w3.org/2000/svg" xmlns:xlink="http://www.w3.org/1999/xlink" width="300pt" height="300pt" viewBox="0 0 300 300" version="1.1">
<g id="surface1">
<path style=" stroke:none;fill-rule:nonzero;fill:rgb(100%,100%,100%);fill-opacity:1;" d="M 191.089844 212.300781 C 190.824219 212.015625 190.566406 211.734375 176.0625 194.476563 C 152.65625 220.246094 146.882813 226.039063 144.550781 228.03125 C 139.191406 232.613281 132.933594 235.03125 126.453125 235.03125 C 118.199219 235.03125 106.414063 230.367188 98.089844 217.28125 L 91.734375 207.292969 L 99.96875 198.792969 C 101.367188 197.335938 112.652344 184.730469 124.601563 171.386719 C 129.695313 165.699219 135.292969 159.445313 141.152344 152.910156 C 128.378906 137.699219 111.054688 117.050781 110.28125 116.085938 L 101.941406 105.652344 L 111.339844 96.160156 C 118.703125 88.726563 139.90625 75.441406 155.933594 75.441406 C 164.960938 75.441406 170.410156 79.328125 173.398438 82.59375 C 173.574219 82.785156 173.945313 83.195313 188.433594 100.40625 C 189.898438 98.796875 191.296875 97.261719 192.625 95.800781 L 192.625 57.542969 C 192.625 52.019531 188.148438 47.542969 182.625 47.542969 L 56.257813 47.542969 C 50.734375 47.542969 46.257813 52.019531 46.257813 57.542969 L 46.257813 242.457031 C 46.257813 247.980469 50.734375 252.457031 56.257813 252.457031 L 182.625 252.457031 C 188.148438 252.457031 192.625 247.980469 192.625 242.457031 L 192.625 213.808594 C 192.058594 213.304688 191.539063 212.796875 191.089844 212.300781 "/>
<path style=" stroke:none;fill-rule:nonzero;fill:rgb(88.598633%,41.19873%,41.19873%);fill-opacity:1;" d="M 253.742188 85.667969 C 250.515625 80.597656 240.304688 69.1875 229.683594 78.265625 C 226.058594 81.363281 208.546875 100.488281 188.019531 123.214844 C 173.949219 106.484375 162.613281 93.027344 162.328125 92.71875 C 155.164063 84.886719 129.472656 99.171875 121.996094 106.71875 C 122.640625 107.523438 141.660156 130.191406 161.007813 153.234375 C 135.882813 181.238281 113.03125 206.867188 110.742188 209.230469 C 113.96875 214.296875 124.183594 225.707031 134.804688 216.632813 C 138.429688 213.53125 155.953125 194.394531 176.484375 171.660156 C 190.53125 188.382813 201.855469 201.851563 202.15625 202.179688 C 209.324219 210.011719 235.015625 195.726563 242.488281 188.179688 C 240.601563 185.816406 222.199219 163.882813 203.503906 141.632813 C 228.621094 113.640625 251.457031 88.027344 253.742188 85.667969 "/>
</g>
</svg>
