<?xml version="1.0" encoding="UTF-8"?>
<svg xmlns="http://www.w3.org/2000/svg" xmlns:xlink="http://www.w3.org/1999/xlink" width="300pt" height="300pt" viewBox="0 0 300 300" version="1.1">
<g id="surface1">
<path style=" stroke:none;fill-rule:nonzero;fill:rgb(100%,100%,100%);fill-opacity:1;" d="M 276.570313 71.945313 C 276.570313 65.121094 271.042969 59.589844 264.21875 59.589844 L 35.78125 59.589844 C 28.957031 59.589844 23.425781 65.121094 23.425781 71.945313 L 23.425781 228.054688 C 23.425781 234.878906 28.957031 240.410156 35.78125 240.410156 L 264.21875 240.410156 C 271.042969 240.410156 276.570313 234.878906 276.570313 228.054688 "/>
<path style=" stroke:none;fill-rule:nonzero;fill:rgb(13.699341%,12.199402%,12.5%);fill-opacity:1;" d="M 150 70.25 C 106.027344 70.25 70.25 106.023438 70.25 150 C 70.25 193.976563 106.027344 229.75 150 229.75 C 193.976563 229.75 229.75 193.976563 229.75 150 C 229.75 106.023438 193.976563 70.25 150 70.25 M 150 80.25 C 188.519531 80.25 219.75 111.480469 219.75 150 C 219.75 188.519531 188.519531 219.75 150 219.75 C 111.476563 219.75 80.25 188.519531 80.25 150 C 80.25 111.480469 111.476563 80.25 150 80.25 "/>
<path style=" stroke:none;fill-rule:nonzero;fill:rgb(88.598633%,41.19873%,41.19873%);fill-opacity:1;" d="M 144.238281 149.90625 L 144.238281 153.449219 L 135.386719 161.5625 L 96.875 161.5625 L 96.875 158.316406 L 105.726563 149.90625 "/>
<path style=" stroke:none;fill-rule:nonzero;fill:rgb(88.598633%,41.19873%,41.19873%);fill-opacity:1;" d="M 175.222656 104.226563 L 175.222656 183.164063 C 175.222656 185.820313 175.664063 187.714844 176.550781 188.84375 C 177.4375 189.980469 178.960938 190.539063 181.125 190.539063 L 181.125 194.671875 C 161.15625 203.429688 151.121094 207.804688 151.023438 207.804688 L 148.664063 203.082031 C 149.449219 203.082031 150.410156 202.742188 151.539063 202.050781 C 152.671875 201.363281 153.628906 200.574219 154.417969 199.691406 C 156.484375 197.328125 157.515625 193.742188 157.515625 188.921875 L 157.515625 116.03125 C 157.515625 113.964844 156.828125 112.269531 155.453125 110.941406 C 154.074219 109.613281 152.796875 108.777344 151.613281 108.433594 C 150.433594 108.089844 148.910156 107.71875 147.039063 107.328125 L 147.039063 104.078125 L 166.367188 94.195313 C 168.53125 95.078125 170.550781 96.53125 172.417969 98.546875 C 174.285156 100.5625 175.222656 102.457031 175.222656 104.226563 "/>
</g>
</svg>
