<?xml version="1.0" encoding="UTF-8"?>
<svg xmlns="http://www.w3.org/2000/svg" xmlns:xlink="http://www.w3.org/1999/xlink" width="300pt" height="300pt" viewBox="0 0 300 300" version="1.1">
<g id="surface1">
<path style=" stroke:none;fill-rule:nonzero;fill:rgb(13.699341%,12.199402%,12.5%);fill-opacity:1;" d="M 32.101563 50.605469 C 40.371094 58.195313 68.234375 81.09375 107.570313 85.550781 C 108.167969 85.617188 108.636719 86.09375 108.679688 86.695313 C 110.246094 108.0625 113.921875 140.597656 137.371094 185.011719 C 137.722656 185.675781 138.578125 185.886719 139.195313 185.460938 C 141.980469 183.535156 144.804688 181.503906 146.191406 180.5 C 146.695313 180.132813 146.855469 179.457031 146.5625 178.90625 C 143.90625 173.871094 131.578125 149.816406 126.316406 126.789063 C 126.191406 126.238281 126.449219 125.675781 126.949219 125.410156 C 139.246094 118.855469 182.875 98.683594 192.230469 94.367188 C 193.058594 93.984375 194.003906 94.589844 194.003906 95.503906 L 194.003906 173.445313 C 194.003906 173.765625 193.878906 174.078125 193.65625 174.308594 L 156.675781 212.988281 C 156.4375 213.234375 156.3125 213.570313 156.328125 213.914063 L 157.972656 248.417969 C 158.007813 249.128906 157.4375 249.726563 156.722656 249.726563 L 96.808594 249.726563 C 95.917969 249.726563 95.3125 248.828125 95.648438 248.003906 L 108.511719 216.296875 C 108.574219 216.144531 108.605469 215.984375 108.605469 215.824219 L 108.605469 189.371094 C 108.605469 188.894531 108.335938 188.460938 107.910156 188.25 C 105.9375 187.257813 100.539063 183.816406 102.101563 176.4375 C 102.253906 175.726563 101.75 175.035156 101.023438 174.953125 C 89.855469 173.683594 74.648438 169.414063 68.121094 161.238281 C 67.414063 160.351563 68.117188 159.066406 69.242188 159.199219 C 76.910156 160.089844 85.628906 158.421875 90.460938 157.253906 C 91.632813 156.96875 91.761719 155.347656 90.648438 154.882813 C 81.304688 150.980469 56.210938 138.558594 49.839844 115.578125 C 49.546875 114.511719 50.660156 113.613281 51.640625 114.128906 C 64.539063 120.925781 75.703125 123.023438 81.835938 123.664063 C 83.152344 123.804688 83.746094 122.078125 82.636719 121.367188 C 70.449219 113.558594 35.777344 88.402344 30.015625 51.726563 C 29.832031 50.558594 31.226563 49.804688 32.101563 50.605469 "/>
<path style=" stroke:none;fill-rule:nonzero;fill:rgb(13.699341%,12.199402%,12.5%);fill-opacity:1;" d="M 176.757813 249.726563 L 268.5 249.726563 C 269.335938 249.726563 270.007813 249.046875 270 248.210938 C 269.929688 238.90625 266.535156 189.867188 202.75 189.527344 C 202.328125 189.523438 201.925781 189.699219 201.640625 190.007813 C 197.058594 194.945313 177.21875 215.34375 173.933594 218.71875 C 173.636719 219.023438 173.488281 219.433594 173.511719 219.855469 L 175.261719 248.320313 C 175.308594 249.109375 175.964844 249.726563 176.757813 249.726563 "/>
</g>
</svg>
