<?xml version="1.0" encoding="UTF-8"?>
<svg xmlns="http://www.w3.org/2000/svg" xmlns:xlink="http://www.w3.org/1999/xlink" width="600pt" height="600pt" viewBox="0 0 600 600" version="1.1">
<g id="surface1">
<path style=" stroke:none;fill-rule:nonzero;fill:rgb(43.899536%,34.498596%,26.699829%);fill-opacity:1;" d="M 300 584.347656 C 296.078125 584.347656 292.390625 582.820313 289.617188 580.046875 L 19.953125 310.382813 C 14.226563 304.65625 14.226563 295.34375 19.953125 289.617188 L 289.617188 19.953125 C 292.390625 17.179688 296.078125 15.652344 300 15.652344 C 303.921875 15.652344 307.609375 17.179688 310.382813 19.953125 L 580.046875 289.617188 C 585.769531 295.34375 585.769531 304.65625 580.046875 310.382813 L 310.382813 580.046875 C 307.609375 582.820313 303.921875 584.347656 300 584.347656 "/>
<path style=" stroke:none;fill-rule:nonzero;fill:rgb(100%,100%,100%);fill-opacity:1;" d="M 300 10.652344 C 294.964844 10.652344 289.925781 12.574219 286.082031 16.417969 L 16.417969 286.085938 C 8.730469 293.769531 8.730469 306.230469 16.417969 313.917969 L 286.082031 583.582031 C 289.925781 587.425781 294.964844 589.347656 300 589.347656 C 305.035156 589.347656 310.074219 587.425781 313.917969 583.582031 L 583.582031 313.917969 C 591.269531 306.230469 591.269531 293.769531 583.582031 286.085938 L 313.917969 16.417969 C 310.074219 12.574219 305.035156 10.652344 300 10.652344 M 300 20.652344 C 302.585938 20.652344 305.019531 21.660156 306.847656 23.488281 L 576.511719 293.15625 C 578.339844 294.980469 579.347656 297.414063 579.347656 300 C 579.347656 302.585938 578.339844 305.015625 576.511719 306.847656 L 306.847656 576.511719 C 305.019531 578.339844 302.585938 579.347656 300 579.347656 C 297.414063 579.347656 294.984375 578.339844 293.152344 576.511719 L 23.488281 306.847656 C 21.660156 305.015625 20.652344 302.585938 20.652344 300 C 20.652344 297.414063 21.660156 294.980469 23.488281 293.15625 L 293.152344 23.488281 C 294.984375 21.660156 297.414063 20.652344 300 20.652344 "/>
<path style=" stroke:none;fill-rule:nonzero;fill:rgb(100%,100%,100%);fill-opacity:1;" d="M 264.945313 446.445313 L 262.464844 422.597656 C 262.382813 421.816406 267.535156 418.847656 277.929688 413.679688 C 288.320313 408.515625 294.367188 405.84375 296.0625 405.664063 C 297.757813 405.488281 300.460938 407.449219 304.183594 411.535156 C 307.898438 415.632813 310.007813 420.019531 310.496094 424.710938 L 313.46875 453.246094 C 313.550781 454.027344 308.582031 456.976563 298.585938 462.105469 C 288.578125 467.226563 282.40625 469.914063 280.058594 470.160156 C 277.714844 470.402344 274.800781 468.398438 271.335938 464.152344 C 267.859375 459.902344 265.734375 454 264.945313 446.445313 M 284.128906 175.355469 L 287.46875 207.410156 C 288.09375 213.40625 287.480469 217.683594 285.644531 220.246094 C 283.800781 222.808594 281.265625 225.046875 278.046875 226.964844 L 239.425781 250.742188 L 233.386719 245.839844 C 239.605469 237.289063 242.257813 228.585938 241.335938 219.722656 L 236.691406 175.160156 C 236.53125 173.597656 249.609375 165.78125 275.9375 151.710938 C 302.261719 137.644531 317.835938 130.355469 322.660156 129.855469 C 327.480469 129.351563 334.660156 134.46875 344.214844 145.191406 C 353.757813 155.921875 358.859375 164.410156 359.507813 170.667969 L 366.550781 238.292969 C 367.257813 245.070313 361.886719 254.847656 350.441406 267.628906 C 338.996094 280.417969 327.441406 291.5 315.773438 300.878906 L 298.273438 314.949219 L 299.414063 325.894531 C 300.253906 333.972656 302.28125 340.152344 305.492188 344.425781 C 308.703125 348.703125 311.765625 350.953125 314.691406 351.171875 L 318.679688 351.546875 L 319.578125 360.144531 C 295.84375 377.632813 283.0625 386.472656 281.242188 386.660156 C 279.417969 386.851563 275.011719 384.414063 268.035156 379.34375 C 261.046875 374.277344 257.277344 369.007813 256.707031 363.53125 L 251.210938 310.761719 C 250.910156 307.894531 258.757813 300.429688 274.757813 288.355469 C 290.753906 276.285156 302.316406 266.519531 309.441406 259.058594 C 316.570313 251.597656 319.886719 245.523438 319.398438 240.835938 L 314.675781 195.488281 C 313.484375 184.023438 311.535156 176.128906 308.851563 171.796875 C 306.160156 167.46875 302.273438 165.5625 297.191406 166.09375 C 292.109375 166.621094 287.753906 169.714844 284.128906 175.355469 "/>
</g>
</svg>
