<?xml version="1.0" encoding="UTF-8"?>
<svg xmlns="http://www.w3.org/2000/svg" xmlns:xlink="http://www.w3.org/1999/xlink" width="300pt" height="300pt" viewBox="0 0 300 300" version="1.1">
<g id="surface1">
<path style=" stroke:none;fill-rule:nonzero;fill:rgb(13.699341%,12.199402%,12.5%);fill-opacity:1;" d="M 131.820313 232.828125 C 86.078125 232.828125 48.992188 195.742188 48.992188 150 C 48.992188 104.257813 86.078125 67.175781 131.820313 67.175781 C 177.5625 67.175781 214.644531 104.257813 214.644531 150 C 214.644531 195.742188 177.5625 232.828125 131.820313 232.828125 M 131.820313 53.148438 C 78.332031 53.148438 34.96875 96.511719 34.96875 150 C 34.96875 203.488281 78.332031 246.847656 131.820313 246.847656 C 185.308594 246.847656 228.671875 203.488281 228.671875 150 C 228.671875 96.511719 185.308594 53.148438 131.820313 53.148438 "/>
<path style=" stroke:none;fill-rule:nonzero;fill:rgb(13.699341%,12.199402%,12.5%);fill-opacity:1;" d="M 239.648438 180.871094 C 238.179688 181.90625 236.230469 180.496094 236.765625 178.777344 C 239.589844 169.6875 241.117188 160.019531 241.117188 150 C 241.117188 139.980469 239.589844 130.3125 236.765625 121.222656 C 236.230469 119.503906 238.179688 118.09375 239.648438 119.128906 L 264.230469 148.457031 C 265.296875 149.210938 265.296875 150.789063 264.230469 151.542969 "/>
</g>
</svg>
