<?xml version="1.0" encoding="UTF-8"?>
<svg xmlns="http://www.w3.org/2000/svg" xmlns:xlink="http://www.w3.org/1999/xlink" width="300pt" height="300pt" viewBox="0 0 300 300" version="1.1">
<g id="surface1">
<path style=" stroke:none;fill-rule:nonzero;fill:rgb(13.699341%,12.199402%,12.5%);fill-opacity:1;" d="M 131.984375 232.085938 C 86.648438 232.085938 49.898438 195.335938 49.898438 150 C 49.898438 104.664063 86.648438 67.914063 131.984375 67.914063 C 177.316406 67.914063 214.066406 104.664063 214.066406 150 C 214.066406 195.335938 177.316406 232.085938 131.984375 232.085938 M 131.984375 54.019531 C 78.972656 54.019531 36 96.988281 36 150 C 36 203.011719 78.972656 245.980469 131.984375 245.980469 C 184.992188 245.980469 227.964844 203.011719 227.964844 150 C 227.964844 96.988281 184.992188 54.019531 131.984375 54.019531 "/>
<path style=" stroke:none;fill-rule:nonzero;fill:rgb(13.699341%,12.199402%,12.5%);fill-opacity:1;" d="M 238.847656 180.59375 C 237.390625 181.621094 235.457031 180.222656 235.988281 178.519531 C 238.789063 169.511719 240.300781 159.929688 240.300781 150 C 240.300781 140.070313 238.789063 130.488281 235.988281 121.480469 C 235.457031 119.777344 237.390625 118.378906 238.847656 119.40625 L 263.207031 148.472656 C 264.265625 149.214844 264.265625 150.785156 263.207031 151.53125 "/>
<path style=" stroke:none;fill-rule:nonzero;fill:rgb(13.699341%,12.199402%,12.5%);fill-opacity:1;" d="M 131.984375 82.714844 L 149.90625 106.726563 L 179.5625 102.421875 L 175.257813 132.074219 L 199.269531 150 L 175.257813 167.925781 L 179.5625 197.578125 L 149.90625 193.273438 L 131.984375 217.285156 L 114.058594 193.273438 L 84.40625 197.578125 L 88.710938 167.925781 L 64.695313 150 L 88.710938 132.074219 L 84.40625 102.421875 L 114.058594 106.726563 "/>
</g>
</svg>
