<?xml version="1.0" encoding="UTF-8"?>
<svg xmlns="http://www.w3.org/2000/svg" xmlns:xlink="http://www.w3.org/1999/xlink" width="600pt" height="600pt" viewBox="0 0 600 600" version="1.1">
<g id="surface1">
<path style=" stroke:none;fill-rule:nonzero;fill:rgb(48.599243%,49.798584%,40.79895%);fill-opacity:1;" d="M 300 584.347656 C 296.078125 584.347656 292.390625 582.820313 289.617188 580.046875 L 19.953125 310.382813 C 14.230469 304.65625 14.230469 295.34375 19.953125 289.617188 L 289.617188 19.953125 C 292.390625 17.179688 296.078125 15.652344 300 15.652344 C 303.921875 15.652344 307.609375 17.179688 310.382813 19.953125 L 580.046875 289.617188 C 585.773438 295.34375 585.773438 304.65625 580.046875 310.382813 L 310.382813 580.046875 C 307.609375 582.820313 303.921875 584.347656 300 584.347656 "/>
<path style=" stroke:none;fill-rule:nonzero;fill:rgb(100%,100%,100%);fill-opacity:1;" d="M 300 10.652344 C 294.964844 10.652344 289.925781 12.574219 286.082031 16.417969 L 16.417969 286.085938 C 8.730469 293.769531 8.730469 306.230469 16.417969 313.917969 L 286.082031 583.582031 C 289.925781 587.425781 294.964844 589.347656 300 589.347656 C 305.035156 589.347656 310.074219 587.425781 313.917969 583.582031 L 583.582031 313.917969 C 591.269531 306.230469 591.269531 293.769531 583.582031 286.085938 L 313.917969 16.417969 C 310.074219 12.574219 305.035156 10.652344 300 10.652344 M 300 20.652344 C 302.585938 20.652344 305.015625 21.660156 306.847656 23.488281 L 576.511719 293.15625 C 580.285156 296.929688 580.285156 303.070313 576.511719 306.847656 L 306.847656 576.511719 C 305.019531 578.339844 302.585938 579.347656 300 579.347656 C 297.414063 579.347656 294.984375 578.339844 293.152344 576.511719 L 23.488281 306.847656 C 19.714844 303.070313 19.714844 296.929688 23.488281 293.15625 L 293.152344 23.488281 C 294.984375 21.660156 297.414063 20.652344 300 20.652344 "/>
<path style=" stroke:none;fill-rule:nonzero;fill:rgb(100%,100%,100%);fill-opacity:1;" d="M 475.355469 276.628906 C 467.855469 243.765625 450.402344 181.53125 306.140625 181.53125 C 161.878906 181.53125 144.425781 243.765625 136.929688 276.628906 C 123.578125 335.140625 149.636719 363.03125 164.578125 373.5 C 182.976563 386.390625 226.769531 388.585938 226.769531 388.585938 C 226.769531 388.585938 220.875 417.789063 226.769531 424.585938 C 239.746094 439.53125 368.246094 440.53125 385.511719 424.585938 C 392.121094 418.480469 385.511719 388.585938 385.511719 388.585938 C 385.511719 388.585938 429.308594 386.390625 447.707031 373.5 C 462.644531 363.03125 488.710938 335.140625 475.355469 276.628906 "/>
<path style=" stroke:none;fill-rule:nonzero;fill:rgb(48.599243%,49.798584%,40.79895%);fill-opacity:1;" d="M 298.972656 327.054688 C 290.085938 328.742188 276.503906 364.433594 279.355469 371.28125 C 282.210938 378.128906 288.445313 368.445313 301.609375 371.28125 C 313.222656 373.785156 313.1875 376.960938 319.222656 377.035156 C 323.488281 377.085938 319.316406 358.734375 315.804688 341.035156 C 313.140625 327.597656 307.859375 325.367188 298.972656 327.054688 "/>
<path style=" stroke:none;fill-rule:nonzero;fill:rgb(48.599243%,49.798584%,40.79895%);fill-opacity:1;" d="M 232.15625 295 L 262.058594 268.839844 C 265.089844 265.882813 265.089844 261.085938 262.058594 258.125 C 259.03125 255.164063 254.121094 255.164063 251.09375 258.125 L 225.085938 287.929688 L 198.515625 258.136719 C 195.746094 255.183594 191.25 255.183594 188.480469 258.136719 C 185.710938 261.085938 185.710938 265.871094 188.480469 268.824219 L 218.015625 295 L 188.007813 321.160156 C 184.90625 324.117188 184.90625 328.914063 188.007813 331.871094 C 189.558594 333.351563 191.589844 334.089844 193.621094 334.089844 C 195.652344 334.089844 197.6875 333.351563 199.234375 331.871094 L 225.085938 302.070313 L 251.566406 331.738281 C 252.96875 333.175781 254.8125 333.890625 256.65625 333.890625 C 258.5 333.890625 260.34375 333.175781 261.75 331.738281 C 264.5625 328.875 264.5625 324.226563 261.75 321.359375 "/>
<path style="fill:none;stroke-width:50;stroke-linecap:butt;stroke-linejoin:miter;stroke:rgb(48.599243%,50.19989%,41.19873%);stroke-opacity:1;stroke-miterlimit:10;" d="M 2321.5625 3050 L 2620.585938 3311.601563 C 2650.898438 3341.171875 2650.898438 3389.140625 2620.585938 3418.75 C 2590.3125 3448.359375 2541.210938 3448.359375 2510.9375 3418.75 L 2250.859375 3120.703125 L 1985.15625 3418.632813 C 1957.460938 3448.164063 1912.5 3448.164063 1884.804688 3418.632813 C 1857.109375 3389.140625 1857.109375 3341.289063 1884.804688 3311.757813 L 2180.15625 3050 L 1880.078125 2788.398438 C 1849.0625 2758.828125 1849.0625 2710.859375 1880.078125 2681.289063 C 1895.585938 2666.484375 1915.898438 2659.101563 1936.210938 2659.101563 C 1956.523438 2659.101563 1976.875 2666.484375 1992.34375 2681.289063 L 2250.859375 2979.296875 L 2515.664063 2682.617188 C 2529.6875 2668.242188 2548.125 2661.09375 2566.5625 2661.09375 C 2585 2661.09375 2603.4375 2668.242188 2617.5 2682.617188 C 2645.625 2711.25 2645.625 2757.734375 2617.5 2786.40625 Z M 2321.5625 3050 " transform="matrix(0.1,0,0,-0.1,0,600)"/>
<path style=" stroke:none;fill-rule:nonzero;fill:rgb(48.599243%,49.798584%,40.79895%);fill-opacity:1;" d="M 382.144531 295 L 412.046875 268.839844 C 415.074219 265.882813 415.074219 261.085938 412.046875 258.125 C 409.019531 255.164063 404.105469 255.164063 401.078125 258.125 L 375.074219 287.929688 L 348.503906 258.136719 C 345.734375 255.183594 341.238281 255.183594 338.46875 258.136719 C 335.695313 261.085938 335.695313 265.871094 338.46875 268.824219 L 368.003906 295 L 337.996094 321.160156 C 334.894531 324.117188 334.894531 328.914063 337.996094 331.871094 C 339.546875 333.351563 341.578125 334.089844 343.609375 334.089844 C 345.640625 334.089844 347.671875 333.351563 349.222656 331.871094 L 375.074219 302.070313 L 401.550781 331.738281 C 402.957031 333.175781 404.800781 333.890625 406.644531 333.890625 C 408.484375 333.890625 410.328125 333.175781 411.734375 331.738281 C 414.550781 328.875 414.550781 324.226563 411.734375 321.359375 "/>
<path style="fill:none;stroke-width:50;stroke-linecap:butt;stroke-linejoin:miter;stroke:rgb(48.599243%,50.19989%,41.19873%);stroke-opacity:1;stroke-miterlimit:10;" d="M 3821.445313 3050 L 4120.46875 3311.601563 C 4150.742188 3341.171875 4150.742188 3389.140625 4120.46875 3418.75 C 4090.195313 3448.359375 4041.054688 3448.359375 4010.78125 3418.75 L 3750.742188 3120.703125 L 3485.039063 3418.632813 C 3457.34375 3448.164063 3412.382813 3448.164063 3384.6875 3418.632813 C 3356.953125 3389.140625 3356.953125 3341.289063 3384.6875 3311.757813 L 3680.039063 3050 L 3379.960938 2788.398438 C 3348.945313 2758.828125 3348.945313 2710.859375 3379.960938 2681.289063 C 3395.46875 2666.484375 3415.78125 2659.101563 3436.09375 2659.101563 C 3456.40625 2659.101563 3476.71875 2666.484375 3492.226563 2681.289063 L 3750.742188 2979.296875 L 4015.507813 2682.617188 C 4029.570313 2668.242188 4048.007813 2661.09375 4066.445313 2661.09375 C 4084.84375 2661.09375 4103.28125 2668.242188 4117.34375 2682.617188 C 4145.507813 2711.25 4145.507813 2757.734375 4117.34375 2786.40625 Z M 3821.445313 3050 " transform="matrix(0.1,0,0,-0.1,0,600)"/>
</g>
</svg>
