<?xml version="1.0" encoding="UTF-8"?>
<svg xmlns="http://www.w3.org/2000/svg" xmlns:xlink="http://www.w3.org/1999/xlink" width="300pt" height="300pt" viewBox="0 0 300 300" version="1.1">
<g id="surface1">
<path style=" stroke:none;fill-rule:nonzero;fill:rgb(100%,100%,100%);fill-opacity:1;" d="M 258.121094 96.089844 L 209.75 96.089844 C 214.15625 100.609375 218.078125 105.621094 221.5 111.089844 L 258.121094 111.089844 L 258.121094 237.457031 L 58.203125 237.457031 C 58.203125 245.730469 64.933594 252.457031 73.203125 252.457031 L 258.121094 252.457031 C 266.394531 252.457031 273.121094 245.730469 273.121094 237.457031 L 273.121094 111.089844 C 273.121094 102.816406 266.394531 96.089844 258.121094 96.089844 "/>
<path style=" stroke:none;fill-rule:nonzero;fill:rgb(100%,100%,100%);fill-opacity:1;" d="M 146.292969 71.996094 C 155.863281 72.644531 164.867188 74.203125 173.246094 76.628906 L 173.246094 57.542969 C 173.246094 52.019531 168.769531 47.542969 163.246094 47.542969 L 145.050781 47.542969 "/>
<path style=" stroke:none;fill-rule:nonzero;fill:rgb(100%,100%,100%);fill-opacity:1;" d="M 148.601563 117.394531 L 149.839844 141.789063 L 63.519531 97.628906 L 140.90625 47.539063 L 36.878906 47.539063 C 31.355469 47.539063 26.878906 52.019531 26.878906 57.539063 L 26.878906 242.457031 C 26.878906 247.980469 31.355469 252.457031 36.878906 252.457031 L 163.246094 252.457031 C 168.769531 252.457031 173.246094 247.980469 173.246094 242.457031 L 173.246094 125.058594 C 166.484375 121.132813 158.25 118.570313 148.601563 117.394531 "/>
<path style=" stroke:none;fill-rule:nonzero;fill:rgb(88.598633%,41.19873%,41.19873%);fill-opacity:1;" d="M 136.769531 81.652344 C 168.386719 81.84375 193.707031 91.820313 210.367188 110.769531 C 229.011719 131.976563 232.835938 160.160156 231.316406 184.992188 C 238.894531 190.027344 243.175781 199.242188 241.449219 208.765625 C 239.136719 221.535156 226.910156 230.011719 214.140625 227.703125 C 201.371094 225.386719 192.894531 213.160156 195.207031 200.390625 C 196.46875 193.421875 200.6875 187.734375 206.335938 184.378906 C 208.035156 159.832031 203.039063 140.300781 191.59375 127.277344 C 177.59375 111.355469 156.152344 107.003906 138.042969 106.671875 L 138.972656 125 L 83.492188 96.613281 L 135.8125 62.75 "/>
<path style=" stroke:none;fill-rule:nonzero;fill:rgb(0.799561%,0.799561%,0.799561%);fill-opacity:1;" d="M 63.445313 110.445313 C 63.445313 113.339844 61.097656 115.683594 58.203125 115.683594 C 55.308594 115.683594 52.964844 113.339844 52.964844 110.445313 C 54.625 110.445313 56.269531 109.234375 58.203125 109.234375 C 59.796875 109.234375 61.628906 110.445313 63.445313 110.445313 "/>
<path style=" stroke:none;fill-rule:nonzero;fill:rgb(0.799561%,0.799561%,0.799561%);fill-opacity:1;" d="M 54.433594 140.683594 L 61.976563 140.683594 L 60.757813 114.34375 L 55.652344 114.34375 Z M 54.433594 140.683594 "/>
<path style=" stroke:none;fill-rule:nonzero;fill:rgb(0.799561%,0.799561%,0.799561%);fill-opacity:1;" d="M 74.996094 143.859375 L 74.996094 141.539063 L 58.203125 140.144531 L 41.414063 141.539063 L 41.414063 143.859375 L 58.203125 145.253906 "/>
<path style=" stroke:none;fill-rule:nonzero;fill:rgb(0.799561%,0.799561%,0.799561%);fill-opacity:1;" d="M 73.996094 142.699219 C 73.996094 141.214844 75.199219 140.011719 76.683594 140.011719 C 78.167969 140.011719 79.371094 141.214844 79.371094 142.699219 C 79.371094 144.183594 78.167969 145.386719 76.683594 145.386719 C 75.199219 145.386719 73.996094 144.183594 73.996094 142.699219 "/>
<path style=" stroke:none;fill-rule:nonzero;fill:rgb(0.799561%,0.799561%,0.799561%);fill-opacity:1;" d="M 37.039063 142.699219 C 37.039063 141.214844 38.242188 140.011719 39.726563 140.011719 C 41.210938 140.011719 42.414063 141.214844 42.414063 142.699219 C 42.414063 144.183594 41.210938 145.386719 39.726563 145.386719 C 38.242188 145.386719 37.039063 144.183594 37.039063 142.699219 "/>
<path style=" stroke:none;fill-rule:nonzero;fill:rgb(0.799561%,0.799561%,0.799561%);fill-opacity:1;" d="M 51.417969 233.144531 L 58.203125 239.59375 L 64.992188 233.144531 L 64.992188 143.371094 L 58.203125 144.175781 L 51.417969 143.371094 "/>
</g>
</svg>
