<?xml version="1.0" encoding="UTF-8"?>
<svg xmlns="http://www.w3.org/2000/svg" xmlns:xlink="http://www.w3.org/1999/xlink" width="300pt" height="300pt" viewBox="0 0 300 300" version="1.1">
<g id="surface1">
<path style=" stroke:none;fill-rule:nonzero;fill:rgb(100%,100%,100%);fill-opacity:1;" d="M 137.007813 113.347656 C 134.066406 113.347656 130.996094 113.480469 127.839844 113.746094 C 123.160156 119.835938 116.5 124.175781 108.921875 125.953125 C 106.40625 126.539063 103.835938 126.835938 101.269531 126.835938 C 85.640625 126.835938 72.234375 116.199219 68.671875 100.96875 C 66.632813 92.253906 68.109375 83.269531 72.828125 75.667969 C 77.546875 68.066406 84.941406 62.753906 93.652344 60.71875 C 96.167969 60.128906 98.738281 59.828125 101.304688 59.828125 C 109.847656 59.828125 118.066406 63.15625 124.230469 68.929688 C 128.59375 68.574219 132.882813 68.390625 137.035156 68.390625 C 150.210938 68.390625 162.300781 70.171875 173.246094 73.695313 L 173.246094 57.542969 C 173.246094 52.019531 168.769531 47.542969 163.246094 47.542969 L 36.878906 47.542969 C 31.355469 47.542969 26.878906 52.019531 26.878906 57.542969 L 26.878906 242.457031 C 26.878906 247.980469 31.355469 252.457031 36.878906 252.457031 L 163.246094 252.457031 C 168.769531 252.457031 173.246094 247.980469 173.246094 242.457031 L 173.246094 123.660156 C 164.40625 116.824219 152.222656 113.347656 137.007813 113.347656 "/>
<path style=" stroke:none;fill-rule:nonzero;fill:rgb(100%,100%,100%);fill-opacity:1;" d="M 258.121094 96.089844 L 209.75 96.089844 C 214.15625 100.609375 218.078125 105.621094 221.5 111.089844 L 258.121094 111.089844 L 258.121094 237.457031 L 58.207031 237.457031 C 58.207031 245.730469 64.933594 252.457031 73.207031 252.457031 L 258.121094 252.457031 C 266.394531 252.457031 273.121094 245.730469 273.121094 237.457031 L 273.121094 111.089844 C 273.121094 102.816406 266.394531 96.089844 258.121094 96.089844 "/>
<path style=" stroke:none;fill-rule:nonzero;fill:rgb(88.598633%,41.19873%,41.19873%);fill-opacity:1;" d="M 228.191406 168.546875 C 226.398438 136.984375 215.148438 112.199219 195.378906 96.523438 C 173.253906 78.980469 144.914063 76.589844 120.1875 79.367188 C 114.777344 72.054688 105.355469 68.246094 95.933594 70.453125 C 83.296875 73.410156 75.453125 86.054688 78.410156 98.6875 C 81.363281 111.324219 94.007813 119.171875 106.644531 116.214844 C 113.539063 114.601563 119.003906 110.097656 122.066406 104.289063 C 146.5 101.34375 166.257813 105.339844 179.84375 116.109375 C 196.460938 129.285156 201.894531 150.480469 203.144531 168.546875 L 184.789063 168.546875 L 215.953125 222.519531 L 247.121094 168.546875 "/>
<path style=" stroke:none;fill-rule:nonzero;fill:rgb(0.799561%,0.799561%,0.799561%);fill-opacity:1;" d="M 63.445313 110.445313 C 63.445313 113.339844 61.097656 115.683594 58.207031 115.683594 C 55.308594 115.683594 52.964844 113.339844 52.964844 110.445313 C 54.625 110.445313 56.269531 109.234375 58.207031 109.234375 C 59.796875 109.234375 61.628906 110.445313 63.445313 110.445313 "/>
<path style=" stroke:none;fill-rule:nonzero;fill:rgb(0.799561%,0.799561%,0.799561%);fill-opacity:1;" d="M 54.433594 140.683594 L 61.976563 140.683594 L 60.757813 114.34375 L 55.652344 114.34375 Z M 54.433594 140.683594 "/>
<path style=" stroke:none;fill-rule:nonzero;fill:rgb(0.799561%,0.799561%,0.799561%);fill-opacity:1;" d="M 74.996094 143.859375 L 74.996094 141.539063 L 58.207031 140.144531 L 41.414063 141.539063 L 41.414063 143.859375 L 58.207031 145.253906 "/>
<path style=" stroke:none;fill-rule:nonzero;fill:rgb(0.799561%,0.799561%,0.799561%);fill-opacity:1;" d="M 73.996094 142.699219 C 73.996094 141.214844 75.199219 140.011719 76.683594 140.011719 C 78.167969 140.011719 79.371094 141.214844 79.371094 142.699219 C 79.371094 144.183594 78.167969 145.386719 76.683594 145.386719 C 75.199219 145.386719 73.996094 144.183594 73.996094 142.699219 "/>
<path style=" stroke:none;fill-rule:nonzero;fill:rgb(0.799561%,0.799561%,0.799561%);fill-opacity:1;" d="M 37.039063 142.699219 C 37.039063 141.214844 38.242188 140.011719 39.726563 140.011719 C 41.210938 140.011719 42.414063 141.214844 42.414063 142.699219 C 42.414063 144.183594 41.210938 145.386719 39.726563 145.386719 C 38.242188 145.386719 37.039063 144.183594 37.039063 142.699219 "/>
<path style=" stroke:none;fill-rule:nonzero;fill:rgb(0.799561%,0.799561%,0.799561%);fill-opacity:1;" d="M 51.417969 233.144531 L 58.207031 239.59375 L 64.992188 233.144531 L 64.992188 143.371094 L 58.207031 144.175781 L 51.417969 143.371094 "/>
</g>
</svg>
