<?xml version="1.0" encoding="UTF-8"?>
<svg xmlns="http://www.w3.org/2000/svg" xmlns:xlink="http://www.w3.org/1999/xlink" width="600pt" height="600pt" viewBox="0 0 600 600" version="1.1">
<g id="surface1">
<path style=" stroke:none;fill-rule:nonzero;fill:rgb(17.999268%,27.49939%,40.79895%);fill-opacity:1;" d="M 300 584.347656 C 296.078125 584.347656 292.390625 582.820313 289.617188 580.046875 L 19.953125 310.382813 C 14.230469 304.65625 14.230469 295.34375 19.953125 289.617188 L 289.617188 19.953125 C 292.390625 17.179688 296.078125 15.652344 300 15.652344 C 303.921875 15.652344 307.609375 17.179688 310.382813 19.953125 L 580.046875 289.617188 C 585.769531 295.34375 585.769531 304.65625 580.046875 310.382813 L 310.382813 580.046875 C 307.609375 582.820313 303.921875 584.347656 300 584.347656 "/>
<path style=" stroke:none;fill-rule:nonzero;fill:rgb(100%,100%,100%);fill-opacity:1;" d="M 300 10.652344 C 294.964844 10.652344 289.925781 12.574219 286.082031 16.417969 L 16.417969 286.085938 C 8.730469 293.769531 8.730469 306.230469 16.417969 313.917969 L 286.082031 583.582031 C 289.925781 587.425781 294.964844 589.347656 300 589.347656 C 305.035156 589.347656 310.074219 587.425781 313.917969 583.582031 L 583.582031 313.917969 C 591.269531 306.230469 591.269531 293.769531 583.582031 286.085938 L 313.917969 16.417969 C 310.074219 12.574219 305.035156 10.652344 300 10.652344 M 300 20.652344 C 302.585938 20.652344 305.015625 21.660156 306.847656 23.488281 L 576.511719 293.15625 C 578.339844 294.980469 579.347656 297.414063 579.347656 300 C 579.347656 302.585938 578.339844 305.015625 576.511719 306.847656 L 306.847656 576.511719 C 305.015625 578.339844 302.585938 579.347656 300 579.347656 C 297.414063 579.347656 294.980469 578.339844 293.152344 576.511719 L 23.488281 306.847656 C 19.714844 303.070313 19.714844 296.929688 23.488281 293.15625 L 293.152344 23.488281 C 294.980469 21.660156 297.414063 20.652344 300 20.652344 "/>
<path style=" stroke:none;fill-rule:nonzero;fill:rgb(100%,100%,100%);fill-opacity:1;" d="M 357.320313 287.425781 L 335.5 302.195313 L 347.09375 325.9375 L 321.425781 326.164063 L 315.878906 352.585938 L 297.683594 336.753906 L 280.554688 350.8125 L 277.585938 322.292969 L 249.179688 316.910156 L 270.4375 295.34375 L 257.640625 270.285156 L 282.210938 268.496094 L 300.164063 237.335938 L 319.078125 264.34375 L 340.90625 255.628906 L 332.175781 275.773438 Z M 401.90625 278.53125 L 361.96875 305.558594 L 383.1875 349.015625 L 336.207031 349.429688 L 326.058594 397.78125 L 292.757813 368.804688 L 261.410156 394.535156 L 255.976563 342.34375 L 203.988281 332.492188 L 242.894531 293.019531 L 219.476563 247.160156 L 264.4375 243.882813 L 297.300781 186.859375 L 331.914063 236.285156 L 371.863281 220.335938 L 355.882813 257.203125 Z M 424.195313 177.566406 L 342.476563 200.0625 L 287.015625 127.71875 L 247.738281 220.761719 L 157.019531 219.613281 L 209.816406 285.820313 L 128.597656 352.578125 L 232.917969 369.15625 L 235.496094 456.550781 L 297.691406 405.007813 L 347.957031 450.265625 L 348.652344 373.648438 L 430.683594 385.414063 L 397.617188 312.328125 L 471.800781 275.304688 L 392.269531 241.035156 "/>
</g>
</svg>
