<?xml version="1.0" encoding="UTF-8"?>
<svg xmlns="http://www.w3.org/2000/svg" xmlns:xlink="http://www.w3.org/1999/xlink" width="300pt" height="300pt" viewBox="0 0 300 300" version="1.1">
<g id="surface1">
<path style=" stroke:none;fill-rule:nonzero;fill:rgb(13.699341%,12.199402%,12.5%);fill-opacity:1;" d="M 150 237.066406 C 101.914063 237.066406 62.933594 198.085938 62.933594 150 C 62.933594 101.914063 101.914063 62.933594 150 62.933594 C 198.085938 62.933594 237.066406 101.914063 237.066406 150 C 237.066406 198.085938 198.085938 237.066406 150 237.066406 M 150 34.3125 C 86.105469 34.3125 34.3125 86.105469 34.3125 150 C 34.3125 213.894531 86.105469 265.6875 150 265.6875 C 213.894531 265.6875 265.6875 213.894531 265.6875 150 C 265.6875 86.105469 213.894531 34.3125 150 34.3125 "/>
<path style=" stroke:none;fill-rule:nonzero;fill:rgb(13.699341%,12.199402%,12.5%);fill-opacity:1;" d="M 150 190.699219 C 127.523438 190.699219 109.300781 172.476563 109.300781 150 C 109.300781 127.523438 127.523438 109.300781 150 109.300781 C 172.480469 109.300781 190.699219 127.523438 190.699219 150 C 190.699219 172.476563 172.480469 190.699219 150 190.699219 M 150 77.0625 C 109.71875 77.0625 77.0625 109.71875 77.0625 150 C 77.0625 190.28125 109.71875 222.933594 150 222.933594 C 190.28125 222.933594 222.9375 190.28125 222.9375 150 C 222.9375 109.71875 190.28125 77.0625 150 77.0625 "/>
</g>
</svg>
