<svg viewBox="0 -5 824 824">
  <g transform="matrix(1 0 0 -1 0 800)">
   <path [attr.fill]="appearance === 'fill' ? '#8aa63d' : 'transparent'" stroke="#8aa63d" [attr.stroke-width]="appearance === 'fill' ? 0 : 20"
d="M381 791c25 2 83 0 93 -3c4 -1 11 -3 18 -3c8 -1 12 -2 14 -3c1 -1 7 -3 12 -4s10 -2 12 -3c1 -1 5 -2 9 -3c3 -1 8 -2 10 -3s6 -3 9 -4c2 0 6 -2 8 -3s6 -3 9 -4c2 -1 5 -2 6 -3c1 0 3 -2 6 -3s6 -2 7 -3s4 -2 7 -3c2 -1 6 -3 7 -4s4 -2 5 -3c1 0 3 -2 5 -3
c2 -2 4 -3 5 -3c1 -1 3 -2 4 -3s3 -3 6 -4c5 -3 13 -8 16 -11c1 -1 4 -3 6 -5c2 -1 6 -4 8 -6c2 -1 6 -4 9 -7c3 -2 8 -7 11 -10c4 -4 9 -9 12 -11c6 -6 17 -18 21 -23c2 -2 4 -5 5 -6c2 -1 4 -4 5 -6s3 -4 4 -6l2 -2c0 -1 2 -3 3 -4c4 -5 11 -15 11 -16c0 0 1 -2 1 -3
c3 -2 9 -11 11 -16c1 -3 2 -5 3 -5c0 -1 2 -4 4 -7c1 -3 3 -6 3 -7c1 0 2 -2 3 -5c0 -2 2 -5 3 -7s3 -4 3 -7c1 -2 2 -5 3 -6s3 -6 4 -9c1 -4 2 -8 3 -10c2 -2 3 -7 4 -10c0 -3 2 -7 3 -9c1 -1 2 -7 3 -12s3 -11 4 -13c0 -2 2 -8 2 -13c1 -6 2 -13 3 -17
c6 -20 6 -102 0 -122c-1 -3 -2 -11 -3 -16c0 -5 -2 -12 -3 -14c0 -2 -2 -8 -3 -13s-2 -11 -3 -12c-1 -2 -2 -6 -3 -9s-2 -7 -4 -9c-1 -2 -2 -6 -3 -10s-3 -8 -4 -9c0 -1 -2 -4 -3 -6c0 -3 -2 -6 -3 -7s-2 -4 -3 -7s-2 -5 -3 -6c0 -1 -2 -4 -4 -7c-1 -3 -2 -6 -3 -6
s-2 -3 -3 -5s-3 -6 -5 -8c-1 -2 -2 -4 -2 -5c0 0 -1 -2 -3 -4s-3 -3 -3 -4c0 0 -2 -4 -5 -7c-4 -7 -6 -8 -15 -20c-3 -4 -6 -8 -7 -9c-1 -2 -3 -4 -13 -15l-18 -18c-5 -5 -10 -9 -11 -10s-5 -4 -9 -8c-5 -3 -10 -7 -12 -9c-2 -1 -5 -4 -7 -6c-4 -3 -8 -6 -15 -10
c-2 -1 -5 -2 -5 -3c-1 -1 -4 -3 -6 -4c-3 -1 -5 -3 -5 -3s-2 -2 -4 -2c-2 -1 -4 -3 -5 -4c-2 -1 -5 -2 -7 -3c-3 -1 -6 -3 -7 -4c-1 0 -4 -2 -7 -3c-2 -1 -6 -2 -7 -3s-4 -2 -6 -3c-3 -1 -6 -3 -8 -4s-6 -2 -8 -3c-3 -1 -7 -2 -8 -3s-6 -2 -10 -3s-8 -3 -10 -4s-7 -2 -12 -3
s-10 -2 -12 -3s-7 -2 -14 -3s-16 -3 -20 -4c-20 -5 -113 -4 -122 1c-1 0 -7 1 -13 2c-11 1 -16 3 -23 5c-3 1 -7 2 -10 3c-4 0 -8 1 -9 2c-2 1 -7 3 -10 3c-3 1 -8 3 -10 4s-6 3 -9 4c-3 0 -7 2 -9 3s-5 2 -5 2c-1 0 -16 7 -20 9c-1 1 -4 3 -6 4c-3 1 -6 3 -8 4
c-1 1 -4 3 -7 4c-6 3 -14 7 -16 9l-4 4c-9 5 -11 7 -14 9s-5 4 -12 9c-2 1 -10 8 -16 14c-14 12 -16 13 -22 20l-7 7c-2 2 -7 7 -14 16c-10 12 -12 14 -20 25c-1 2 -4 6 -5 8c-2 2 -3 4 -3 4c0 1 -1 2 -2 3s-2 4 -3 6c-2 2 -3 5 -5 7c-1 1 -2 3 -2 3c0 1 -1 3 -3 5
c-1 3 -3 6 -4 8s-2 4 -2 5c-2 2 -11 21 -11 22l-2 4c-1 1 -3 5 -3 8c-1 4 -3 8 -4 10s-3 7 -3 10c-1 4 -3 8 -4 10c-1 1 -2 6 -3 12c-1 5 -3 11 -4 13c0 3 -2 9 -2 15c-1 6 -3 14 -4 18c-5 19 -5 98 0 116c1 5 3 13 4 18c0 6 2 13 2 16c1 2 3 8 4 13c1 4 2 10 3 12s3 6 4 9
c0 4 2 9 3 11s3 6 4 9c0 3 2 7 3 9c1 1 2 3 2 4s9 20 11 21c0 1 2 3 2 5c1 3 3 6 5 8c1 3 2 5 2 5c0 1 1 2 2 4c2 1 3 4 4 6s3 5 4 6s4 5 6 9c3 4 6 8 7 10l3 3c0 2 6 9 15 20c13 15 46 47 58 56c7 5 9 6 12 9c3 2 5 3 14 9c1 1 3 2 4 3c2 2 9 6 16 10c3 1 5 2 6 3
c2 1 19 10 23 12c2 0 4 2 6 3s4 2 5 2s3 1 6 2c2 2 7 4 10 4c3 1 6 2 7 3c2 1 6 3 10 4s9 2 11 4c3 1 7 2 11 2c3 1 8 2 11 3c3 2 9 3 16 4c6 0 13 2 16 3c4 1 15 2 32 3zM630 633c-4 4 -10 4 -16 1c-4 -3 -34 -18 -36 -18c0 0 -4 -1 -7 -3s-6 -3 -7 -3s-4 -1 -7 -2
c-3 -2 -8 -3 -12 -4s-10 -3 -12 -4c-3 -1 -9 -2 -15 -3s-11 -3 -12 -3c-2 -1 -7 -2 -16 -3c-8 -1 -16 -3 -19 -4s-9 -2 -15 -2c-18 -2 -26 -3 -29 -4c-5 -1 -13 -2 -28 -4c-5 0 -13 -2 -17 -3s-12 -2 -18 -3c-7 -1 -12 -2 -14 -3c-1 -1 -6 -2 -11 -3c-4 -1 -10 -2 -13 -4
c-3 -1 -8 -3 -10 -3c-3 -1 -6 -2 -8 -3c-1 -1 -4 -2 -7 -3s-7 -3 -9 -4c-3 -2 -5 -3 -5 -3c-1 0 -10 -5 -17 -10c-3 -1 -5 -2 -6 -2c0 0 -2 -2 -4 -3c-1 -2 -4 -4 -5 -4c-6 -3 -35 -30 -41 -37c-2 -3 -12 -16 -15 -20c-2 -1 -3 -4 -4 -5c-1 -2 -3 -5 -4 -6l-2 -4
c0 -1 -2 -3 -3 -5c-2 -2 -3 -4 -3 -5s-2 -4 -3 -7c-2 -3 -4 -7 -4 -9c-1 -2 -2 -6 -4 -9c-1 -3 -2 -8 -3 -13c-1 -4 -2 -9 -3 -11c-3 -10 -3 -31 1 -45c1 -5 2 -11 3 -13c0 -2 1 -5 2 -8c1 -2 3 -5 3 -8l4 -8c1 -1 3 -5 4 -7c1 -3 2 -5 3 -6c0 0 2 -2 2 -4c1 -2 3 -4 4 -5
c1 0 2 -3 3 -4c1 -4 5 -8 16 -18c4 -5 9 -10 10 -11c2 -2 5 -4 7 -5c2 -2 5 -3 6 -4c7 -5 13 -2 15 8c0 3 1 7 2 8c0 1 1 5 2 10s3 11 4 14c2 3 3 7 3 8c1 1 2 4 3 5c1 2 3 5 4 7c0 2 2 5 3 7c6 8 7 11 10 14c10 17 42 48 60 59c1 1 4 3 5 4s3 2 3 2c1 0 3 2 5 3
c2 2 5 4 7 5c2 0 4 2 5 2c1 2 4 3 16 10c3 2 9 5 12 7c4 2 9 5 12 6c2 1 5 3 5 4c1 0 3 1 5 3c3 1 6 3 7 4c3 2 11 7 16 9c3 2 6 3 6 4l4 2s5 3 6 4c2 2 5 4 9 6c3 2 6 4 8 5c1 1 4 3 6 4s5 3 6 4c2 1 6 4 9 7c3 2 7 5 9 6c10 8 12 9 13 10c2 0 4 2 6 4c7 6 14 11 31 25
c2 2 6 5 7 7l3 3l2 -2c2 -2 1 -8 -1 -12c-1 -1 -3 -4 -4 -6s-3 -5 -5 -7c-1 -2 -4 -5 -5 -7c-4 -4 -31 -31 -32 -31c0 0 -3 -3 -6 -5c-3 -3 -7 -7 -9 -8c-1 -1 -3 -2 -3 -3l-3 -3c-2 -1 -5 -3 -7 -4c-2 -2 -5 -4 -7 -6s-5 -4 -7 -6s-5 -4 -7 -5c-6 -4 -9 -6 -12 -9
c-2 -2 -5 -4 -7 -6c-2 -1 -5 -3 -7 -5c-1 -1 -5 -4 -7 -5c-6 -4 -10 -8 -13 -10c-1 -1 -5 -4 -8 -6c-12 -9 -20 -16 -30 -25c-2 -1 -6 -5 -9 -7c-18 -15 -39 -36 -53 -54c-2 -3 -5 -6 -6 -7s-3 -3 -3 -4c-1 -2 -2 -4 -3 -5s-2 -3 -3 -6c-1 -2 -3 -5 -4 -7c-1 -1 -3 -4 -3 -6
l-4 -8c-1 -3 -3 -7 -3 -10c-1 -4 -2 -8 -3 -10c-2 -2 -3 -7 -3 -12c-1 -6 -2 -12 -3 -15c-6 -18 -5 -75 1 -97c1 -4 1 -8 1 -9c0 -10 10 -14 25 -9c4 1 8 2 10 3c13 3 20 18 14 30c-1 2 -2 7 -3 11c0 5 -2 11 -3 15c-1 3 -3 9 -3 15c-1 4 -1 10 -2 12c0 2 -1 8 -1 14l-1 9
l3 2c3 1 5 1 9 -2c3 -1 7 -2 10 -3s7 -2 8 -3s5 -2 9 -3s9 -2 11 -3c3 -1 10 -3 16 -4c5 -1 12 -2 15 -3c13 -3 36 -2 52 1c4 1 10 2 13 3c3 0 8 1 9 2c2 1 6 3 10 4c3 1 7 2 8 3c2 1 5 2 7 3c3 1 6 2 7 3s4 3 6 4c6 3 13 7 17 10c2 2 4 3 4 3c1 0 2 1 3 2s3 3 5 4s4 3 6 5
l4 2c1 0 28 27 32 32c5 6 9 13 11 15c1 1 2 4 4 6c1 2 3 4 3 4c0 1 1 3 3 5c1 3 3 5 3 7c0 1 2 4 3 7c2 2 4 7 4 9c1 2 2 5 3 7s3 6 3 9c1 3 3 7 4 10c1 2 2 7 3 11c1 3 2 7 3 9c1 3 3 8 4 16c0 4 1 11 3 16c1 5 2 15 3 24s1 18 2 20c3 14 3 57 1 81c-1 15 -2 29 -4 47
c0 5 -1 14 -2 18c-1 5 -3 14 -3 20c-2 14 -3 17 -6 19z" />
  </g>
</svg>
