<svg viewBox="0 -5 824 824">
  <g transform="matrix(1 0 0 -1 0 800)">
   <path [attr.fill]="appearance === 'fill' ? '#eeac1f' : 'transparent'" stroke="#eeac1f" [attr.stroke-width]="appearance === 'fill' ? 0 : 20"
d="M373 791c26 2 83 1 95 -2c8 -2 19 -4 27 -4c4 -1 9 -2 11 -3s7 -2 10 -3c4 -1 10 -2 12 -3c3 -1 8 -3 11 -4c4 0 8 -2 11 -3c2 -2 6 -3 9 -4c2 0 5 -1 6 -2c2 -1 5 -3 8 -4s6 -2 7 -3s5 -3 7 -3c3 -1 6 -3 7 -3c0 -1 3 -2 5 -3s5 -3 6 -4s4 -2 6 -3s5 -3 7 -4
c1 -1 3 -2 3 -2c1 0 3 -1 5 -3c2 -1 5 -3 6 -4c4 -2 13 -8 17 -11c1 -2 5 -4 8 -6c5 -4 11 -9 23 -20c7 -6 30 -29 35 -36l7 -7c1 -2 4 -5 5 -7s4 -5 6 -7c6 -8 13 -18 13 -19l2 -4c4 -4 6 -8 9 -14c1 -2 3 -6 4 -7s3 -4 4 -7c1 -4 3 -6 3 -7c1 0 2 -2 3 -5c1 -2 2 -5 3 -7
c1 -1 3 -4 3 -7c1 -2 2 -5 3 -6c1 0 2 -4 3 -8c2 -4 3 -8 4 -10c1 -1 3 -6 3 -10c1 -4 3 -8 4 -10c1 -1 2 -7 3 -12s3 -10 4 -13c1 -2 2 -9 3 -15s2 -13 3 -15c5 -16 5 -102 0 -122c-1 -3 -3 -11 -3 -16c-1 -5 -2 -11 -3 -13c-1 -3 -3 -8 -4 -14c-1 -5 -2 -10 -3 -12
c-1 -1 -3 -6 -4 -10c0 -3 -2 -8 -3 -9c-1 -2 -2 -6 -3 -9c-1 -4 -3 -8 -3 -9c-1 -1 -3 -4 -3 -6c-1 -3 -3 -6 -3 -7c-1 -1 -3 -4 -4 -7c-1 -2 -2 -5 -3 -6c0 -1 -2 -3 -3 -6s-3 -6 -4 -8c-1 -1 -3 -4 -3 -5c-1 -3 -5 -9 -10 -15l-2 -4c0 -1 -7 -11 -13 -19
c-2 -2 -5 -5 -6 -7s-4 -5 -5 -7c-2 -2 -5 -5 -6 -7c-6 -7 -29 -30 -36 -36c-13 -12 -17 -15 -20 -18c-2 -1 -4 -3 -5 -3c-4 -3 -9 -7 -12 -9c-2 -1 -4 -2 -5 -3c-2 -2 -4 -3 -6 -4c-1 -1 -4 -2 -5 -3c-2 -2 -9 -6 -15 -9c-2 -1 -5 -3 -8 -5c-2 -1 -4 -3 -5 -3l-4 -2
s-5 -3 -8 -4c-2 -1 -5 -2 -7 -3c-1 -1 -4 -2 -6 -3s-5 -2 -6 -3c-2 -1 -6 -2 -9 -3c-4 -1 -8 -3 -9 -4c-2 -1 -6 -2 -10 -3s-9 -3 -11 -4c-1 0 -7 -2 -11 -3c-5 -1 -10 -2 -13 -3c-2 -1 -10 -3 -18 -4c-7 -1 -16 -3 -19 -3c-20 -5 -95 -4 -114 1c-5 1 -11 2 -14 2
c-10 1 -18 2 -22 4c-2 1 -8 2 -12 3s-9 3 -11 4c-2 0 -6 2 -9 2c-4 1 -8 3 -10 4s-6 3 -9 3c-3 1 -7 2 -8 3s-4 3 -7 4c-3 0 -8 2 -11 4c-2 2 -6 3 -7 4c-2 0 -4 1 -5 2c0 1 -3 2 -4 3c-2 0 -5 2 -8 4c-2 1 -5 3 -5 3c-1 0 -2 1 -3 1c-2 1 -4 3 -7 4c-2 1 -5 3 -6 4
c-2 2 -3 3 -4 3c0 0 -2 1 -5 2c-2 2 -5 4 -6 5c-2 1 -4 2 -5 3c-1 2 -4 4 -7 6c-9 7 -15 12 -21 17c-10 9 -40 39 -43 44c-2 4 -4 6 -10 12c-1 2 -3 5 -4 7c-8 10 -14 19 -17 23c0 2 -2 5 -4 7c-1 3 -3 6 -4 7c-1 2 -2 4 -3 5s-3 4 -4 7s-3 6 -3 6c-1 1 -2 3 -2 5
c-1 2 -3 6 -4 7c-1 2 -3 6 -4 9s-2 5 -2 6c-1 0 -2 3 -3 7s-3 8 -4 10c-1 1 -2 5 -3 9s-3 9 -4 10c0 2 -2 7 -3 12s-2 11 -3 13c-1 3 -3 9 -3 15c-1 5 -3 13 -4 18c-5 22 -5 96 0 117c1 5 3 13 4 18c0 6 2 12 3 15c1 2 2 8 3 13s3 10 3 12c1 1 3 6 4 10s2 8 3 9
c1 2 3 6 4 10s2 7 3 7l2 6s3 7 3 7c1 1 3 4 4 7c2 4 3 7 4 8c0 0 2 3 2 5c1 2 3 5 4 6l3 6c1 1 3 4 4 7c2 2 3 5 3 5c0 1 1 2 2 3s3 3 4 6c2 2 4 6 7 9c2 3 4 7 5 8c2 2 4 5 6 8c2 2 6 6 7 9c2 3 6 7 9 11c14 13 26 26 28 27l7 7c7 5 14 12 17 14c1 1 5 3 8 6s6 5 8 6
s4 3 5 4l6 3c1 1 4 2 5 3s4 3 7 4c2 2 7 4 9 6c3 2 8 4 11 6c2 1 5 3 6 3c0 1 2 2 2 2c1 0 5 2 9 4s8 4 10 4c2 1 5 2 7 3s6 3 9 4c2 0 6 2 9 3c2 1 6 3 9 3c4 1 8 2 10 3s7 3 12 4c4 1 9 2 10 3c4 1 9 2 19 3c5 1 13 2 18 3c5 2 13 3 19 3zM416 729c-4 2 -4 2 -9 -1
c-3 -1 -4 -2 -5 -6c-1 -3 -3 -6 -3 -6c-1 -1 -2 -4 -3 -6s-3 -5 -3 -5c-1 -1 -2 -3 -3 -5c0 -3 -2 -6 -4 -8c-1 -2 -3 -6 -4 -9c-1 -2 -2 -5 -3 -5c0 -1 -1 -3 -2 -5c-1 -3 -2 -6 -4 -7c-1 -2 -2 -5 -3 -7s-2 -5 -3 -7c-2 -1 -3 -4 -3 -6c-1 -1 -2 -4 -3 -5
c-1 -2 -3 -5 -4 -7c0 -1 -2 -4 -3 -6s-2 -5 -3 -7s-3 -5 -4 -7c-2 -2 -3 -5 -3 -5c0 -1 0 -3 -2 -5c-1 -1 -3 -5 -4 -8c-4 -7 -8 -10 -12 -7c-1 0 -5 1 -8 2c-3 0 -8 2 -10 3c-1 1 -6 3 -9 3c-3 1 -7 2 -8 3c-2 1 -7 3 -12 4c-4 1 -9 3 -11 4s-5 2 -7 2c-1 0 -6 2 -10 3
c-4 2 -10 4 -14 4c-3 1 -7 3 -8 4c-1 0 -5 2 -8 2c-4 1 -8 2 -10 3s-7 3 -11 4s-9 3 -11 4c-13 4 -21 -4 -16 -16c1 -2 2 -6 3 -9s2 -7 3 -9c1 -1 3 -6 3 -9c1 -3 3 -8 4 -10s2 -6 3 -9c1 -4 2 -8 3 -9c1 -2 2 -6 3 -10s3 -9 3 -10c1 -1 2 -5 3 -9s3 -8 4 -10
c1 -3 3 -8 4 -11c1 -4 2 -9 3 -12c2 -2 3 -6 3 -8s1 -6 3 -8c2 -4 2 -6 2 -8c0 -1 -11 -9 -12 -9s-20 -9 -22 -11c-1 0 -3 -1 -5 -2c-1 0 -4 -2 -5 -3c-2 -1 -4 -3 -6 -3c-4 -1 -8 -2 -9 -4c-1 -1 -3 -2 -6 -3c-2 -1 -6 -3 -7 -4c-1 0 -4 -2 -6 -2c-2 -1 -5 -3 -6 -4
c-2 -1 -5 -2 -7 -3c-3 -1 -6 -2 -8 -3c-1 -1 -4 -3 -6 -3c-1 -1 -4 -2 -5 -4c-2 -1 -5 -2 -7 -3s-5 -2 -6 -3s-5 -2 -7 -3c-18 -8 -18 -19 0 -27c2 -1 6 -3 7 -3c1 -1 4 -2 6 -3s5 -2 7 -4c1 -1 4 -2 5 -3c2 0 5 -2 6 -3c2 -1 5 -2 8 -3s6 -3 7 -3c0 -1 3 -2 6 -3
c2 -1 5 -3 6 -4s5 -2 7 -3c3 -1 5 -2 6 -3c1 -2 5 -3 9 -4c2 0 4 -2 6 -3c1 -2 2 -3 3 -3l14 -6c8 -4 14 -7 15 -7s12 -8 12 -9c0 -2 0 -4 -2 -8c-2 -2 -3 -6 -3 -8s-1 -6 -3 -8c-1 -3 -2 -8 -3 -12s-3 -9 -4 -11s-3 -6 -3 -9c-1 -3 -3 -7 -4 -10s-2 -7 -3 -11
c-1 -3 -2 -8 -3 -10s-3 -6 -3 -9c-1 -3 -2 -7 -3 -8c-2 -2 -3 -7 -4 -10c0 -4 -2 -8 -3 -10s-2 -6 -3 -9s-2 -6 -3 -8c-5 -12 3 -21 16 -16c2 1 7 3 11 4s9 3 11 4s6 2 10 3c3 0 7 2 8 2c1 1 5 3 8 3c4 1 10 3 14 5c4 1 9 3 10 3c2 0 5 1 7 2s7 3 11 4c5 1 10 3 12 4
c1 1 5 2 8 3c3 0 8 2 9 3c2 1 7 2 10 3s7 2 8 2c6 3 9 0 17 -17l3 -6s3 -5 4 -8c1 -2 3 -5 3 -6l3 -6s2 -5 3 -6s3 -5 4 -8s3 -6 4 -7s2 -4 3 -6s2 -5 3 -7c2 -1 3 -4 3 -6c1 -1 2 -4 3 -6c1 -1 3 -5 4 -7c0 -2 2 -5 3 -7c1 -1 3 -5 4 -7s2 -5 3 -6c0 0 2 -3 3 -5s2 -5 3 -6
c0 0 2 -3 3 -6c1 -4 2 -5 6 -7l4 -2l4 2c4 2 8 8 12 17l3 6c0 1 2 3 3 6c4 9 9 19 11 21c0 2 2 5 3 7s2 5 4 7c1 2 2 4 2 5s1 3 2 5c2 3 4 7 5 9s2 5 3 6s2 4 3 6c1 3 3 5 3 6c1 0 2 3 3 6c1 2 3 5 4 6c0 1 2 4 3 6c1 3 2 6 4 8c1 2 2 5 3 6c2 8 16 9 28 2c2 -1 7 -3 11 -4
s9 -2 11 -3c1 -1 5 -2 7 -3c3 0 7 -2 10 -3c2 -1 7 -3 11 -3c4 -1 8 -3 11 -4c2 -1 6 -2 8 -3c2 0 6 -1 9 -3c3 -1 8 -3 11 -3c3 -1 7 -2 9 -3s6 -3 10 -4s9 -2 11 -4c12 -6 22 2 17 14c-1 3 -2 8 -3 11c0 2 -1 5 -2 6c-1 2 -2 5 -3 9s-3 9 -4 12s-3 7 -4 11c0 3 -2 7 -3 9
s-3 7 -3 9c-1 3 -2 8 -3 11c-2 3 -3 7 -4 10c0 2 -2 6 -3 8s-2 7 -3 12c-1 4 -3 9 -4 10c-1 2 -2 6 -3 8c0 3 -1 7 -3 10l-2 6c0 2 9 9 13 10c2 0 5 2 7 3c2 2 5 3 7 4c2 0 4 1 5 2c3 2 22 11 23 11l4 2c2 2 5 4 7 4c2 1 5 3 6 3c1 1 4 3 6 3c2 1 5 3 7 4c3 1 6 3 8 3
c2 1 4 2 5 3c3 2 22 11 22 11c1 0 2 1 3 2c2 1 5 3 8 4c16 5 16 20 0 25c-3 1 -6 3 -8 4c-1 1 -2 2 -3 2c0 0 -19 9 -22 11c-1 1 -4 2 -6 3c-2 0 -5 2 -7 3c-1 1 -4 3 -6 3c-2 1 -5 2 -7 4c-2 1 -5 2 -7 3c-1 1 -4 2 -6 3c-2 2 -4 3 -4 3c-1 0 -20 9 -23 11c-1 1 -3 2 -5 2
c-2 1 -5 2 -7 4c-2 1 -5 2 -7 3c-4 1 -13 8 -13 9s1 4 2 7c2 3 3 7 3 10c1 2 2 6 3 8c1 1 3 6 4 10s2 10 3 12s3 6 4 9c0 3 2 7 3 9s2 6 3 10c0 3 2 7 3 10c2 2 3 7 4 10c0 3 2 8 3 10c1 3 3 8 4 12c1 3 2 7 3 9c1 1 2 4 3 8c0 3 2 7 3 10c4 11 -7 18 -18 12
c-2 -1 -7 -2 -11 -3s-8 -3 -10 -4s-6 -2 -9 -3s-8 -2 -11 -4c-3 -1 -7 -2 -9 -2c-2 -1 -6 -2 -8 -3c-3 -1 -7 -3 -11 -4s-9 -2 -11 -3c-3 -2 -7 -3 -10 -3c-2 -1 -6 -2 -7 -3c-2 -1 -7 -2 -11 -3s-9 -3 -11 -4c-12 -7 -26 -6 -28 1c-1 2 -2 5 -3 7c-2 2 -3 5 -4 8
c-1 2 -3 5 -3 6c-1 1 -3 4 -4 6c-1 3 -2 5 -3 6c0 1 -2 3 -3 6c-1 2 -2 5 -3 6s-2 4 -3 6s-3 6 -5 8c-1 3 -2 5 -2 6s-1 3 -2 5c-2 1 -3 5 -4 7s-3 5 -3 6c-2 2 -7 12 -11 22c-1 2 -3 5 -4 7l-3 6c-4 8 -7 14 -11 16zM409 663l3 5l2 -2c0 -1 2 -4 4 -5c1 -2 3 -5 4 -7
s2 -4 3 -5c2 -2 5 -8 9 -16c1 -1 3 -5 4 -7c2 -2 3 -4 3 -4c0 -1 1 -3 3 -5c1 -2 3 -5 4 -7s3 -5 4 -7c2 -2 3 -3 3 -4c0 0 1 -2 2 -3c1 -2 2 -5 4 -7c1 -2 2 -4 3 -5c3 -4 -4 -9 -17 -12c-3 -1 -8 -3 -10 -4c-7 -3 -12 -1 -15 8c-1 2 -2 6 -3 8s-2 5 -3 6c-1 4 -3 7 -4 6
c-2 0 -9 -15 -10 -19c-1 -6 -3 -8 -6 -10l-4 -2l-4 3c-3 1 -8 3 -11 4c-7 1 -17 7 -18 8c0 1 0 3 1 4c2 3 7 10 10 15c1 3 3 5 3 5c1 0 2 3 3 5c1 3 3 6 4 7c1 2 3 4 4 6s3 6 5 9s4 7 5 9c2 3 3 5 4 6c1 2 3 5 5 8c1 2 4 7 6 9zM222 587c2 2 2 2 5 0c2 -1 7 -2 11 -2
c5 -1 12 -3 15 -4s9 -3 14 -4c5 0 11 -2 12 -3c2 -1 8 -2 13 -3s10 -2 12 -3s5 -2 8 -2c8 -2 9 -8 4 -14c-2 -2 -3 -5 -4 -7c-1 -3 -4 -8 -5 -11l-4 -7l-3 1c-2 0 -5 0 -6 1c-2 2 -6 3 -10 4c-2 0 -4 2 -5 3c-4 3 -9 1 -8 -3c1 -1 1 -4 2 -6c0 -3 2 -6 3 -7
c6 -9 4 -17 -5 -20c-2 0 -4 -2 -5 -3c-1 0 -5 -2 -8 -3c-2 -2 -6 -3 -7 -4c-1 0 -3 -1 -5 -1c-4 0 -4 0 -6 11c0 4 -2 10 -3 12s-2 8 -3 13s-2 11 -3 13s-3 7 -3 11c-1 5 -2 10 -4 13c-3 9 -5 23 -2 25zM594 587c11 5 13 -5 5 -26c-1 -4 -2 -10 -3 -14c0 -4 -2 -9 -3 -12
c-1 -2 -2 -6 -2 -8c-1 -7 -3 -12 -4 -16c-1 -2 -3 -8 -3 -12c-1 -5 -2 -9 -2 -10c-2 -1 -8 0 -10 2c-1 1 -3 2 -5 3c-2 0 -6 2 -7 3l-4 2c-11 0 -15 13 -7 22c1 1 2 4 3 7c0 3 2 6 2 7c3 2 -5 3 -9 0c-2 -1 -5 -2 -8 -3c-2 0 -5 -2 -8 -3c-6 -3 -8 -3 -10 3c-1 1 -2 4 -4 6
c-1 3 -2 5 -2 6s-2 3 -3 6c-7 9 -6 14 2 15c2 1 6 2 8 3s8 2 13 3s11 3 14 4s8 2 12 3c3 0 9 2 12 3c4 1 9 3 13 3c3 1 8 2 10 3zM343 553c4 5 5 5 10 3c2 -2 10 -4 20 -5c13 -2 19 -10 13 -17c-1 -1 -3 -4 -4 -7s-2 -7 -3 -8c0 0 -2 -4 -3 -7c-3 -12 -10 -15 -21 -9
c-2 2 -6 3 -9 4l-8 4s-5 2 -7 2c-6 0 -9 7 -5 13c1 1 2 3 2 3c1 0 2 1 3 4c0 2 2 5 3 7c2 2 3 4 4 6s3 5 5 7zM472 556c2 1 4 1 4 1c2 0 9 -8 11 -12c1 -3 2 -6 3 -6s2 -2 3 -4s2 -6 4 -8c5 -6 3 -14 -3 -14c-3 0 -5 -1 -8 -3c-1 -1 -4 -2 -7 -3s-7 -2 -10 -4
c-11 -6 -17 -3 -21 8c0 3 -2 8 -4 11s-3 6 -3 6c0 1 -1 5 -3 8c-3 7 -3 8 4 12c4 2 15 4 19 4c2 0 3 1 11 4zM282 482c6 3 7 3 8 2c3 -4 8 -14 9 -18c0 -2 2 -5 3 -7c2 -3 4 -8 7 -17l1 -4l-3 -1c-1 -1 -4 -2 -5 -2c-1 -1 -4 -2 -6 -3s-6 -3 -8 -3c-3 -1 -6 -2 -8 -3
c-2 -2 -5 -3 -6 -3c-2 0 -5 -1 -7 -2c-4 -1 -6 -1 -7 4c0 2 -2 7 -3 11c-3 10 -5 19 -5 26c1 2 1 3 3 4s4 2 5 3c2 2 5 3 8 5c2 1 5 2 6 3c0 0 4 2 8 5zM532 481c3 5 3 5 6 3c1 -1 3 -2 6 -3s5 -3 6 -4s3 -2 4 -2c2 -1 4 -2 6 -4c1 -1 5 -3 7 -4c4 -2 4 -2 5 -5
c1 -4 -3 -21 -5 -26c-1 -2 -2 -5 -2 -6c0 -3 -2 -8 -4 -9s-13 2 -17 5c-2 1 -5 2 -7 3c-3 0 -6 2 -9 3l-8 4c-5 2 -5 2 -4 5c0 3 4 13 6 17c1 2 2 5 3 8s3 7 4 8c0 1 2 4 3 7zM220 446c8 5 12 2 15 -12c0 -1 1 -5 3 -7c5 -11 4 -17 -3 -19c-2 0 -5 -1 -6 -2s-4 -2 -6 -3
c-7 -1 -8 -3 -8 -7c0 -3 1 -5 8 -6c2 -1 5 -2 6 -3s4 -2 6 -2c7 -2 8 -8 3 -19c-2 -2 -3 -7 -4 -11c-2 -9 -7 -12 -13 -8c-1 1 -5 3 -7 4c-3 1 -6 3 -7 4s-4 2 -6 3s-4 2 -4 3c-1 1 -3 2 -6 4c-9 5 -14 7 -16 9c0 1 -3 2 -6 3c-2 1 -5 3 -5 3c-1 1 -3 2 -6 3c-2 2 -5 3 -6 4
s-3 2 -6 4c-6 3 -6 8 0 11c3 1 5 3 6 4s4 2 6 3c3 2 5 3 6 4c0 0 3 2 6 3s5 3 6 3c0 1 2 2 5 4c9 5 14 8 16 9c1 1 3 2 5 3s5 2 5 3c1 1 3 2 5 3c3 1 6 3 8 5zM596 447c3 1 7 0 10 -2c2 -2 5 -3 7 -4c1 0 3 -2 4 -3s3 -2 4 -3c7 -3 15 -8 17 -9c1 -1 3 -2 5 -3s5 -3 6 -4
s4 -2 6 -3s5 -3 6 -4c2 -1 3 -2 4 -2l6 -4c4 -2 7 -4 7 -4c4 0 5 -8 1 -10c-1 -1 -4 -3 -6 -5l-8 -4c-3 -2 -7 -4 -10 -6s-7 -4 -10 -5c-2 -2 -6 -4 -8 -6c-2 -1 -4 -2 -5 -2c0 0 -3 -2 -5 -3c-3 -2 -5 -3 -6 -3c0 0 -2 -2 -4 -3c-2 -2 -4 -3 -5 -3c0 0 -3 -2 -5 -3
c-9 -7 -14 -5 -17 6c0 4 -2 9 -3 11c-5 9 -4 18 0 18c1 0 3 1 6 2c3 2 6 3 9 4c12 3 12 11 0 13c-3 0 -6 2 -11 5c-2 0 -3 1 -4 1c-4 0 -5 9 0 17c1 3 3 8 4 12c1 7 2 9 5 9zM262 371c1 2 1 2 3 1c1 0 4 -1 7 -2c3 0 7 -2 8 -3c2 -1 5 -2 8 -3c2 0 6 -2 8 -3s5 -2 6 -3
c1 0 4 -1 5 -2l3 -2l-1 -3c-3 -9 -5 -14 -7 -17c-1 -2 -3 -5 -3 -7c-1 -2 -3 -8 -5 -12l-5 -8l-7 4c-4 2 -8 4 -8 5c-1 1 -4 2 -6 3c-3 2 -6 3 -8 4c-1 1 -3 3 -5 4s-3 3 -3 8c0 4 3 17 5 21c1 3 2 7 2 9c1 2 2 5 3 6zM552 370c10 3 12 2 13 -6c0 -2 1 -5 2 -7
c3 -5 6 -22 5 -26c-1 -3 -1 -4 -5 -5c-2 -1 -6 -3 -7 -5c-2 -1 -4 -2 -5 -2c-1 -1 -3 -2 -4 -3s-6 -3 -9 -5l-8 -4l-2 5c-1 3 -3 6 -3 7c-1 1 -3 5 -4 8c-1 2 -2 6 -3 8c-2 4 -6 14 -6 17c-1 3 -1 3 4 5l8 4c3 1 6 3 9 3c2 1 5 2 7 3s5 3 8 3zM577 304c1 0 3 0 3 1
c1 0 2 -3 4 -11c0 -4 2 -10 3 -12c1 -4 3 -9 4 -16c0 -2 1 -6 2 -8c1 -3 3 -8 3 -12c1 -4 2 -10 3 -14c8 -21 6 -30 -5 -26c-4 2 -9 3 -12 3c-2 0 -7 2 -10 3c-4 1 -10 3 -13 3c-4 1 -9 2 -12 3s-9 3 -14 4s-11 2 -13 3s-6 2 -8 3c-8 1 -9 6 -2 15c1 3 3 5 3 6s1 3 2 6
c2 2 3 5 4 6c2 6 4 6 10 3c3 -1 6 -3 8 -3c3 -1 6 -3 8 -4c4 -2 12 -2 9 1c0 1 -2 4 -2 7c-1 3 -2 6 -3 7c-8 9 -4 22 7 22l4 2c1 1 5 2 7 3s4 2 5 3s3 2 5 2zM242 302c1 2 7 2 9 1c1 -1 5 -3 7 -4c3 -1 7 -3 8 -4c1 0 3 -2 5 -2c9 -3 11 -11 5 -20c-1 -1 -3 -5 -3 -7
c-1 -2 -1 -5 -2 -7c-1 -4 4 -5 8 -2c1 1 3 2 5 3c4 1 8 2 10 4c1 0 4 1 6 1l3 1l4 -7c1 -3 4 -8 5 -11c1 -2 2 -6 4 -7c5 -6 4 -12 -4 -14c-3 0 -6 -1 -8 -2s-7 -2 -12 -3s-11 -2 -13 -3c-1 -1 -7 -3 -12 -4c-5 0 -11 -2 -14 -3s-10 -3 -15 -4c-4 0 -9 -2 -11 -2
c-4 -2 -9 3 -7 6c0 0 1 4 1 7c1 4 2 9 3 12c2 3 3 8 4 13c0 4 2 9 3 11s2 8 3 13s2 11 3 13s3 8 3 12c1 4 2 9 2 9zM361 292c8 2 12 -1 15 -12c1 -3 3 -6 3 -7c1 0 2 -4 3 -7s3 -6 4 -7c6 -7 0 -15 -13 -17c-10 -2 -18 -3 -20 -5c-6 -3 -11 1 -15 10c-1 2 -2 4 -4 6
c-1 2 -3 5 -3 7c-1 2 -2 4 -3 4c0 0 -1 2 -2 3c-4 6 -1 12 5 12c2 0 5 1 7 3l8 4c3 1 6 2 8 3c3 2 5 3 7 3zM453 290c3 4 8 4 16 0c3 -2 7 -4 10 -4c3 -1 6 -2 7 -3c3 -2 5 -4 8 -4c6 0 8 -8 3 -14c-2 -1 -3 -5 -4 -7s-2 -4 -3 -4c-1 -1 -2 -3 -3 -6c-6 -12 -11 -14 -19 -10
c-2 1 -6 2 -9 3c-20 3 -25 7 -21 16c2 3 3 7 3 7c0 1 1 4 3 7s4 8 4 11c1 3 3 6 5 8zM388 225c5 3 4 3 8 1s5 -4 6 -10c1 -4 8 -19 10 -19c1 -1 3 2 4 6c1 2 2 5 3 6c0 0 2 4 3 7c3 10 6 12 16 8c3 -1 8 -2 11 -3c13 -3 18 -8 14 -13c-1 -1 -2 -3 -2 -4c0 0 -2 -3 -3 -5
c-2 -2 -3 -5 -3 -5c0 -1 -1 -3 -3 -4c-1 -2 -3 -5 -4 -7s-3 -6 -4 -7c-2 -2 -3 -4 -3 -5c0 0 -1 -2 -3 -4c-1 -3 -3 -6 -4 -8c-4 -7 -7 -13 -9 -15c-1 -1 -2 -3 -3 -5s-3 -5 -4 -7c-2 -2 -4 -4 -4 -5l-2 -2l-3 5c-2 2 -5 7 -6 9c-2 3 -4 6 -5 7c-1 2 -2 4 -4 7
c-1 2 -3 6 -5 9s-4 7 -5 9c-2 3 -3 5 -4 6c-1 0 -2 3 -3 6c-1 2 -3 5 -4 6s-2 3 -3 5c-3 5 -8 12 -10 15c-1 1 -1 3 -1 3c1 2 12 8 18 9c4 1 8 3 11 4z" />
  </g>
</svg>
