<svg viewBox="0 -5 824 824">
  <g transform="matrix(1 0 0 -1 0 800)">
  <path [attr.fill]="appearance === 'fill' ? '#e15426' : 'transparent'" stroke="#e15426" [attr.stroke-width]="appearance === 'fill' ? 0 : 20"
d="M338 784c241 41 460 -143 460 -387c0 -344 -413 -521 -662 -283c-235 224 -116 615 202 670zM464 669c0 55 -2 56 -33 42c-80 -36 -117 -150 -86 -269c17 -70 17 -93 -5 -110c-54 -42 -109 -4 -122 86c-5 38 -11 39 -27 2c-53 -108 -21 -243 73 -305
c49 -32 120 -52 95 -27c-29 29 -6 68 72 127c19 16 42 37 48 47c15 24 17 24 29 -7c21 -53 8 -122 -32 -158c-21 -21 -10 -21 34 0c163 75 183 257 45 393c-71 68 -91 107 -91 179z" />
  </g>
</svg>
