<svg viewBox="0 -5 824 824">
  <g transform="matrix(1 0 0 -1 0 800)">
   <path [attr.fill]="appearance === 'fill' ? '#14c2ed' : 'transparent'" stroke="#14c2ed" [attr.stroke-width]="appearance === 'fill' ? 0 : 20"
d="M375 791c32 2 84 1 96 -3c5 -1 13 -2 19 -3c7 -1 13 -2 17 -3c3 -2 9 -3 12 -4c4 -1 9 -2 11 -3c1 -1 6 -2 11 -3c4 -1 8 -3 10 -4l6 -3c2 0 6 -1 9 -3c3 -1 6 -3 8 -3c1 -1 4 -2 6 -3s5 -3 7 -4c3 0 6 -2 8 -3c1 -1 4 -3 6 -3l6 -3c1 -1 4 -3 5 -4c2 0 5 -2 5 -3
c1 0 4 -2 5 -3c2 0 4 -2 6 -3c1 -1 6 -4 9 -7c4 -2 9 -5 10 -7l4 -2c1 0 2 -1 3 -3c1 -1 3 -3 5 -4c5 -4 11 -8 14 -11c2 -1 6 -5 10 -9c16 -15 24 -23 33 -33c1 -2 4 -5 5 -7c2 -2 5 -5 5 -6c1 -2 2 -3 3 -4s4 -4 5 -7c2 -3 5 -6 7 -8l4 -8s3 -4 4 -5c1 0 2 -2 2 -4
c1 -2 2 -4 3 -5c1 0 2 -3 3 -5c1 -1 3 -4 4 -6c1 -1 3 -5 4 -7c0 -2 2 -5 3 -6s2 -4 3 -6c1 -3 3 -6 3 -7c1 -1 3 -4 3 -7c1 -2 3 -6 4 -7c1 -2 2 -6 3 -9s2 -7 4 -9c1 -2 2 -6 3 -10c1 -3 2 -7 3 -8s2 -7 3 -12s3 -12 4 -14c0 -2 2 -8 2 -14c1 -5 3 -13 4 -17
c5 -20 5 -99 0 -119c-1 -4 -3 -13 -4 -18c0 -5 -2 -11 -2 -13c-1 -3 -3 -9 -4 -14c-1 -4 -2 -10 -3 -12s-3 -6 -3 -9c-1 -4 -2 -8 -3 -10c-2 -2 -3 -5 -4 -8s-2 -7 -4 -10c-1 -2 -2 -4 -2 -5s-1 -4 -3 -6c-1 -3 -3 -7 -4 -9c-1 -3 -2 -5 -3 -6s-3 -4 -4 -7
c-1 -2 -2 -5 -3 -7c-1 -1 -3 -4 -4 -6s-2 -4 -3 -5s-2 -3 -3 -4c0 -2 -1 -4 -2 -5c-1 0 -2 -2 -3 -4c-2 -3 -5 -8 -11 -15c-1 -1 -2 -3 -3 -5c-1 -1 -2 -3 -3 -3c0 0 -2 -2 -3 -4c-4 -6 -18 -22 -25 -30c-16 -15 -33 -31 -36 -32c-1 0 -2 0 -2 -1c0 0 -1 -2 -3 -3
s-5 -3 -6 -5c-4 -4 -16 -12 -22 -15c-2 -1 -4 -3 -5 -3c0 -1 -3 -3 -4 -3c-2 -1 -5 -3 -5 -4c-2 -1 -7 -4 -17 -9c-3 -1 -7 -3 -8 -4c0 0 -3 -2 -6 -3c-2 -1 -5 -2 -7 -3c-1 -1 -4 -2 -6 -3s-6 -2 -9 -4c-2 -1 -5 -2 -7 -3c-2 0 -5 -1 -7 -2s-6 -3 -10 -4
c-5 -1 -9 -2 -11 -3s-7 -3 -11 -3c-3 -1 -9 -3 -11 -3c-5 -3 -9 -3 -20 -4c-5 -1 -11 -2 -14 -3c-19 -5 -95 -6 -120 -1c-5 1 -13 3 -20 4c-6 1 -13 2 -15 3s-8 2 -13 3c-6 1 -11 3 -13 4s-5 2 -8 3c-3 0 -7 2 -9 3s-6 3 -9 3c-3 1 -7 3 -10 4l-8 4c-2 0 -5 1 -7 2
c-1 1 -3 3 -5 3c-2 1 -4 2 -5 3c-2 1 -5 2 -7 4c-3 1 -6 3 -8 4s-3 2 -4 2c0 0 -2 1 -5 3c-2 1 -6 4 -8 5l-4 2c0 1 -2 2 -4 3s-4 2 -5 3l-4 4c-11 7 -12 7 -24 18c-4 3 -9 6 -10 7c-5 5 -32 30 -32 31s-2 4 -5 7s-8 8 -10 11c-3 4 -6 8 -7 9c-3 3 -5 7 -12 16
c-2 3 -4 6 -4 7c-1 2 -3 4 -4 5l-2 2c0 1 -1 3 -3 5c-1 3 -3 6 -4 8s-2 4 -3 5s-2 4 -4 7c-1 3 -2 5 -3 6c0 1 -2 3 -2 6c-1 2 -3 5 -4 6c-1 2 -2 5 -3 7c-1 3 -2 6 -3 8s-3 6 -3 8c-1 2 -2 6 -3 8c-2 2 -3 7 -4 10c-1 4 -3 8 -4 10c0 1 -1 4 -2 6c-1 9 -3 17 -4 20
c-1 2 -2 8 -3 14c-1 5 -2 12 -3 14c-6 17 -6 106 0 124c1 3 2 10 3 15c1 6 2 12 3 14s2 8 3 13s3 11 4 13c0 1 2 5 2 9c1 3 3 7 4 10c2 3 3 7 4 9c0 2 2 6 3 8s2 5 3 7c0 1 1 4 3 6c1 1 2 5 3 8c1 2 3 5 4 6c0 1 2 3 2 5c1 2 3 6 5 8c1 3 3 5 3 5c0 1 1 3 2 4c1 2 3 5 4 7
c1 1 3 5 5 8c2 2 4 6 6 9c4 6 8 10 11 14c1 2 4 6 7 9c3 4 6 8 7 9c2 2 4 5 6 7c10 12 33 33 46 43c2 2 6 5 8 6c11 9 11 9 23 17c2 1 5 3 7 4c1 1 5 3 8 5l6 4c1 0 3 1 5 2s8 5 13 7c6 3 11 6 12 7s4 2 6 2c2 1 6 2 8 4c3 1 7 3 10 3c3 1 7 3 9 4s6 2 9 3c4 1 7 2 9 3
c1 1 5 2 11 3c5 1 11 2 14 4c3 1 8 2 14 3c6 0 11 1 13 2c5 1 19 3 29 4zM416 724c-4 2 -5 2 -8 0c-6 -3 -6 -4 -7 -30c0 -13 0 -23 -1 -24c-2 -3 -12 -3 -17 1l-8 4c-3 1 -7 2 -8 3c-2 1 -5 3 -7 3c-3 1 -7 3 -9 4c-5 3 -16 4 -19 2c-6 -6 -3 -16 4 -19c3 -1 6 -3 7 -3
c1 -1 4 -3 7 -4c3 0 6 -2 7 -2c1 -1 3 -2 6 -3s7 -3 9 -4s5 -2 6 -3c6 -1 20 -9 20 -11c2 -5 1 -44 -2 -46c-2 -2 -9 -1 -13 2c-1 1 -3 2 -6 3c-2 1 -6 2 -7 3s-5 3 -7 4c-3 1 -6 2 -7 3s-4 2 -7 3c-2 1 -6 3 -7 4c-2 1 -4 2 -5 2s-4 1 -7 3c-15 8 -23 8 -28 1
c-4 -5 2 -15 9 -17c2 0 5 -2 7 -3s5 -3 7 -3c3 -1 6 -3 8 -4c1 -1 5 -2 7 -3c2 0 5 -2 6 -3c0 0 3 -2 6 -3c2 0 6 -2 9 -4c3 -1 5 -3 6 -3s12 -5 19 -8c1 -1 4 -3 6 -4c5 -2 5 -2 5 -45c-1 -43 -1 -44 -6 -46c-1 0 -4 -2 -6 -3c-1 -1 -4 -3 -6 -4s-4 -2 -5 -2
c0 -1 -2 -2 -5 -4c-3 -1 -6 -2 -6 -3c-7 -6 -18 -6 -28 1c-2 1 -4 2 -5 3c-1 0 -3 1 -5 2c-2 2 -5 3 -18 10c-3 1 -6 3 -7 4s-2 2 -4 2c-1 0 -4 2 -6 3c-2 2 -6 4 -8 5c-9 4 -9 7 -7 26c3 21 4 24 5 44c0 10 1 22 1 25c1 9 -1 18 -5 19c-9 3 -16 -3 -16 -13
c0 -6 -2 -31 -4 -42c-1 -11 -3 -27 -3 -33c0 -8 -5 -10 -11 -4c-1 1 -5 2 -7 3c-3 1 -5 2 -6 3c0 0 -2 2 -4 3c-3 1 -6 3 -7 4c-2 1 -4 2 -5 3c-3 0 -6 3 -6 5c0 9 3 40 4 47c5 23 2 34 -9 32c-9 -1 -11 -7 -13 -34c-1 -10 -2 -25 -2 -28c-1 -4 -13 -4 -17 1c-1 0 -3 2 -6 3
c-2 0 -4 2 -5 3c-1 0 -4 2 -6 3s-5 3 -7 4c-5 4 -16 4 -20 0s-2 -12 5 -16c1 -1 4 -3 5 -4c2 -2 4 -3 6 -4c1 0 4 -2 7 -4c2 -2 4 -3 5 -3c0 0 1 -1 2 -1c1 -1 4 -3 7 -5l5 -2v-4c0 -3 0 -4 -3 -6c-4 -2 -11 -7 -14 -10c-1 -1 -3 -2 -5 -4c-2 -1 -5 -3 -6 -4
c-2 -1 -5 -3 -7 -5c-15 -10 -18 -17 -10 -24c6 -4 14 -2 21 5c1 1 3 3 5 4c1 1 5 3 7 5c3 2 7 5 10 7c2 1 4 3 4 3c1 1 7 5 13 9c2 1 4 3 6 4c3 3 5 3 9 1c2 -1 5 -2 7 -3s5 -3 7 -5s4 -3 5 -3s2 -1 3 -2c2 -1 5 -3 7 -4c8 -4 10 -13 3 -13c0 0 -6 -4 -12 -9
c-2 -1 -4 -3 -6 -3c-1 -1 -4 -3 -5 -4c-2 -3 -9 -7 -14 -10c-2 -1 -4 -2 -5 -3c-2 -2 -3 -3 -15 -11c-10 -6 -10 -7 -11 -12c-3 -10 8 -17 17 -11c1 1 3 2 5 3c1 2 4 3 6 5c1 1 4 3 6 4c5 3 9 6 13 9c2 1 5 3 7 5c2 1 7 5 12 9c5 3 11 7 14 8c2 2 4 3 4 4c0 0 1 1 3 2
s4 3 5 4c3 3 7 2 12 -1c2 -1 3 -2 4 -2l4 -2c2 -2 5 -4 8 -5c2 -1 4 -2 4 -3c0 0 3 -2 6 -3c5 -3 9 -5 15 -9c2 -2 6 -4 7 -4c2 -1 4 -2 4 -3c1 -1 3 -2 5 -3c9 -4 10 -5 10 -32v-23l-2 -4c-2 -3 -4 -4 -6 -5s-5 -2 -5 -3c-1 -1 -4 -3 -7 -4c-3 -2 -6 -4 -8 -5
c-8 -5 -11 -7 -14 -9c-3 0 -5 -2 -5 -3c-1 0 -3 -2 -5 -3c-3 -1 -5 -2 -6 -3s-4 -3 -6 -4c-3 -1 -6 -3 -7 -3c-3 -3 -4 -2 -16 7c-2 1 -5 3 -7 4l-12 9c-4 2 -12 8 -19 13c-2 1 -5 3 -7 5c-1 1 -4 2 -5 3s-4 3 -6 4c-1 2 -4 4 -6 5l-4 2c0 3 -13 4 -16 2
c-7 -7 -3 -16 10 -24c3 -2 8 -5 13 -10c2 -1 5 -3 7 -4s3 -2 3 -3c0 0 2 -1 5 -3c3 -1 5 -3 6 -3c0 -1 2 -2 3 -4c2 -1 6 -3 10 -6c3 -2 7 -5 9 -6c6 -4 5 -9 -2 -13c-3 -1 -6 -3 -7 -4c-2 -1 -3 -2 -4 -2s-3 -2 -5 -3c-1 -1 -5 -3 -7 -4s-4 -3 -5 -4c-3 -3 -8 -3 -12 0
c-1 1 -4 4 -6 5c-6 4 -10 6 -12 8c-1 1 -3 3 -5 4c-2 2 -6 4 -8 6c-3 2 -7 5 -9 6c-3 2 -5 4 -5 4c0 2 -16 8 -17 6c0 0 -2 -2 -4 -3c-8 -5 -2 -16 16 -27c3 -1 4 -2 4 -3c0 0 2 -1 3 -2c2 -1 4 -2 6 -4c5 -4 9 -7 13 -10c6 -3 6 -9 0 -11c-2 -1 -5 -3 -7 -4
c-2 -2 -4 -3 -4 -3c-1 0 -3 -2 -6 -4c-3 -1 -5 -3 -6 -3s-3 -1 -4 -3c-2 -1 -4 -3 -5 -3s-6 -4 -7 -7c-5 -12 8 -18 22 -10c3 2 6 4 7 4c0 0 2 1 3 2c2 1 5 3 8 4c3 2 7 4 9 5c4 2 10 2 11 0c2 -2 2 -5 4 -30c2 -29 4 -33 14 -34c11 0 13 8 8 38c-1 6 -2 18 -3 27l-1 17l2 1
c1 1 2 2 3 2c0 0 3 1 6 3s6 3 6 3s3 2 5 3c2 2 5 3 7 4c1 0 3 1 5 3c7 6 12 3 12 -5c0 -6 2 -22 3 -33c2 -10 4 -35 4 -41c0 -9 6 -15 13 -14c8 1 10 5 8 32c-1 8 -2 20 -2 27c-1 8 -2 18 -3 24c-4 24 -3 28 6 32c3 1 6 3 7 4s4 3 7 4c2 0 4 1 4 2c1 0 3 2 7 4c3 1 8 4 12 6
s9 5 11 6c3 1 5 3 6 4c6 5 16 6 23 1c2 -1 6 -3 9 -4c2 -2 7 -5 11 -7c3 -2 8 -5 11 -6c6 -3 6 -1 6 -47l1 -41l-2 -2c-5 -3 -11 -7 -12 -7s-4 -1 -8 -3s-7 -4 -8 -4s-3 -1 -6 -3c-3 -1 -7 -3 -9 -4c-3 -1 -6 -2 -6 -3c-1 -1 -4 -2 -6 -3c-2 0 -6 -2 -8 -3s-5 -3 -8 -3
c-2 -1 -4 -2 -5 -3c0 -1 -3 -2 -6 -3c-12 -5 -16 -14 -8 -20c5 -4 13 -3 23 3c2 1 5 3 8 3c2 1 5 2 6 3s4 3 7 4c3 0 6 2 7 3s4 2 7 3c2 1 6 2 7 3s5 3 7 4c3 0 5 2 6 2c10 9 15 5 15 -12c0 -7 1 -15 1 -19c1 -13 -2 -17 -20 -23c-2 -1 -6 -3 -7 -3c-2 -1 -5 -3 -8 -4
s-6 -2 -7 -3s-4 -2 -7 -3s-6 -2 -7 -3c-2 -1 -4 -2 -7 -3c-8 -3 -10 -14 -3 -19c3 -3 13 -2 18 2c3 1 6 3 9 3c2 1 5 2 7 3c1 1 5 3 8 4c2 1 6 2 8 4c5 3 15 4 17 1c0 0 1 -9 1 -23c0 -12 1 -22 1 -24c2 -9 14 -11 19 -3c1 3 2 5 2 26c0 12 1 23 1 24c1 3 12 2 19 -2
c2 -1 5 -3 7 -3c2 -1 5 -2 7 -3c2 -2 4 -3 6 -3c2 -1 6 -2 9 -4c8 -4 17 -5 20 -2c6 7 4 16 -4 19c-3 1 -5 2 -6 3c-2 1 -5 2 -7 3c-3 1 -6 2 -8 3l-8 4c-3 1 -7 2 -9 4c-2 1 -4 2 -5 2s-5 2 -10 4c-11 6 -11 5 -10 27c1 10 1 19 1 21c-1 6 4 8 11 4c3 -2 8 -4 10 -4
c3 -1 6 -3 8 -4c2 -2 5 -3 5 -3c1 0 4 -1 8 -3c3 -2 7 -3 7 -3c1 0 5 -2 8 -4c26 -13 36 -15 40 -5c2 5 -3 13 -10 15c-2 1 -5 2 -7 4c-2 1 -5 2 -7 3c-2 0 -5 2 -6 3c-2 1 -6 3 -8 3c-3 1 -6 3 -7 4l-6 3c-2 0 -5 2 -7 3s-6 3 -9 4c-3 0 -6 2 -6 2c-1 1 -6 3 -11 6
c-6 3 -11 5 -11 6c-1 1 0 82 1 85c1 1 2 3 6 4c2 1 5 2 6 3s2 2 4 3c1 0 3 2 4 2c1 1 4 3 7 4c2 1 5 3 5 3c3 6 19 6 25 1c1 -1 4 -2 6 -3c3 -1 6 -3 7 -4s3 -2 6 -3c2 -1 5 -3 7 -4s4 -2 5 -2c0 0 3 -1 5 -3s6 -4 7 -4s4 -2 5 -3c2 -1 5 -3 8 -4c9 -4 10 -11 6 -36
c-1 -4 -2 -15 -2 -23c-1 -8 -2 -20 -2 -26c-2 -23 -1 -28 6 -30c9 -2 13 3 14 19c1 14 2 25 4 35c0 5 1 16 2 24c1 10 1 16 2 17l1 2l5 -2c2 -1 5 -2 5 -3c1 0 4 -2 6 -3s5 -2 6 -3s3 -2 5 -3s5 -2 5 -2c1 -1 3 -2 6 -3c7 -4 7 -2 4 -39c0 -4 -1 -10 -2 -15
c-5 -23 -2 -32 9 -32c10 1 12 6 14 40c1 17 2 23 4 24c3 3 8 2 14 -2c2 -1 4 -3 6 -3l6 -3c1 -1 4 -3 6 -4s5 -2 7 -4c6 -4 17 -3 19 1c4 6 2 13 -5 16c-2 2 -5 4 -5 4c-1 1 -3 3 -6 4c-6 3 -13 7 -15 9c-1 1 -4 2 -6 4c-7 3 -7 8 -1 12c3 1 6 3 7 4c2 2 5 4 7 5
c2 2 5 4 7 6s5 4 8 5c8 4 16 14 16 19s-6 10 -11 9c-3 0 -11 -4 -13 -6l-4 -4c-2 -1 -4 -2 -5 -3c-4 -3 -13 -10 -14 -10c0 0 -2 -1 -4 -3c-2 -1 -6 -4 -8 -6c-2 -1 -6 -4 -9 -6c-5 -4 -9 -4 -13 -1c-1 1 -3 3 -5 3c-1 1 -4 3 -6 5c-3 1 -5 3 -6 3l-4 2c-1 1 -4 3 -7 4
c-3 2 -4 3 -5 6l-2 4l5 2c2 2 5 4 5 4c0 1 2 2 4 3c3 1 7 4 9 6c6 5 16 11 20 14c1 1 4 2 5 3c8 7 10 8 12 9s4 2 6 4c1 1 4 3 5 4c5 4 4 16 -2 18c-5 2 -10 1 -15 -4c-1 -1 -3 -2 -4 -2c0 0 -2 -1 -4 -3c-3 -3 -8 -6 -14 -10c-2 -1 -5 -3 -5 -3c-1 -1 -3 -2 -5 -3l-3 -3
s-2 -2 -5 -3c-3 -2 -6 -4 -8 -5c-1 -2 -5 -4 -8 -7c-3 -2 -7 -4 -8 -5s-3 -3 -5 -4c-2 0 -4 -2 -5 -3c-2 -2 -8 -2 -9 0c-1 1 -3 2 -6 3c-2 1 -5 3 -6 4c0 1 -3 2 -5 3c-1 1 -4 2 -5 3s-4 3 -5 4c-2 0 -5 2 -7 3c-2 2 -4 3 -4 3c-1 0 -3 1 -6 3c-2 2 -5 4 -5 4
c-1 0 -3 1 -5 2c-1 2 -5 4 -7 5c-7 3 -7 4 -7 32v23l2 3c1 3 3 4 6 6c3 1 6 3 7 4c7 4 15 9 15 9c1 0 3 1 5 3c2 1 5 3 6 3s3 2 4 3c2 1 6 3 18 10c3 2 5 3 5 4s8 0 10 -2c1 -1 3 -2 4 -2c0 0 2 -1 4 -3c3 -2 9 -6 14 -9c1 -1 3 -3 5 -4c1 -1 4 -3 6 -4l12 -9
c2 -1 5 -3 7 -5c6 -3 10 -6 12 -8c2 -1 4 -3 6 -4s4 -2 4 -3c0 -2 13 -4 16 -2c4 4 4 15 -1 18c-1 1 -3 3 -5 4c-2 2 -3 3 -4 3l-6 4c-2 2 -5 4 -5 4s-1 0 -2 1s-4 3 -6 4c-9 6 -12 8 -14 10c-1 1 -3 3 -5 4s-4 2 -4 3c0 0 -2 1 -5 2c-2 2 -5 4 -6 5s-3 2 -5 3
c-3 2 -3 2 -1 6c1 2 3 4 6 6c2 1 5 3 7 4c1 1 3 2 3 2c1 0 3 1 5 3c2 1 5 3 8 4c2 2 5 3 7 4c3 2 6 2 9 0c1 -2 3 -4 5 -5l18 -12c3 -2 7 -5 9 -7c3 -1 5 -3 5 -3c0 -1 2 -2 4 -3s3 -3 4 -3c0 -2 10 -7 13 -7c5 -1 11 5 11 10s-7 13 -18 19c-1 1 -4 3 -5 4c-2 2 -6 5 -11 8
c-2 2 -5 4 -7 6l-4 2c-6 0 -5 9 1 12c2 1 5 3 6 4s4 3 6 4c8 3 13 7 18 10c2 1 4 3 5 4c4 3 5 12 2 16c-3 3 -13 3 -18 -1l-8 -4c-5 -3 -15 -7 -22 -12c-10 -5 -13 -1 -14 25c-2 33 -4 39 -14 39c-12 0 -14 -8 -9 -32c2 -8 4 -39 3 -47c0 -4 1 -3 -13 -10c-3 -2 -7 -4 -8 -5
c-2 -1 -4 -2 -7 -3c-2 -1 -4 -3 -4 -3c-6 -7 -13 -4 -13 4c0 5 -3 33 -3 34c-1 1 -3 24 -4 34c0 15 -5 22 -12 21c-9 -2 -10 -6 -8 -30c0 -7 1 -19 2 -27c0 -9 1 -18 2 -22c2 -12 3 -27 2 -29c-2 -4 -5 -7 -9 -8c-1 0 -4 -2 -7 -4c-2 -1 -4 -2 -5 -2s-4 -2 -7 -4
c-2 -2 -5 -3 -5 -3c-1 0 -3 -1 -5 -3c-2 -1 -5 -3 -6 -3c-2 -1 -5 -2 -7 -3c-1 -2 -4 -3 -6 -4c-3 -1 -5 -2 -6 -3c-6 -5 -22 -5 -25 0c-1 0 -3 2 -6 3c-3 2 -6 3 -6 4c-1 0 -3 2 -5 3c-3 1 -5 2 -6 3s-3 2 -5 3s-4 2 -4 3c-2 2 -3 84 -2 86c1 1 15 8 17 8c1 0 2 1 4 2
c1 2 4 3 7 4s7 3 9 4s5 2 7 3l6 3c1 1 4 2 7 3l8 4c1 1 4 2 6 3c3 1 6 2 7 3c2 1 5 3 7 3c3 1 5 3 9 8c3 4 2 8 -3 12c-5 3 -16 2 -23 -3c-2 -1 -3 -2 -4 -2s-4 -2 -8 -4s-8 -4 -9 -4c0 0 -4 -1 -7 -3c-4 -2 -7 -4 -8 -4c0 0 -3 -1 -5 -2s-6 -3 -9 -4s-6 -3 -6 -3
c-3 -3 -9 -4 -11 -2l-3 1v18c-2 30 -2 28 6 32c2 1 5 2 6 3c0 0 3 2 6 2c2 1 5 2 7 3c1 1 5 3 7 4c3 1 7 2 9 3s5 3 7 3c10 4 18 9 20 13c6 12 -7 19 -21 11c-3 -1 -7 -3 -9 -4c-2 0 -5 -2 -6 -3c-2 -1 -5 -2 -7 -3c-2 0 -6 -2 -9 -3c-7 -5 -16 -6 -18 -2c0 1 -1 11 -1 24
c-1 26 -1 28 -7 30zM407 458c4 3 6 3 12 -1c2 -1 5 -3 5 -3c1 0 2 -1 4 -2c1 -1 4 -3 6 -4c3 -1 5 -2 6 -3s4 -2 6 -3c3 -2 5 -3 6 -4c0 0 3 -2 6 -3c5 -3 10 -7 10 -11c1 -58 1 -63 -9 -66c-2 -1 -5 -2 -6 -3s-3 -2 -6 -3c-2 -1 -5 -3 -6 -4c-2 -1 -4 -3 -7 -4
c-2 -1 -4 -2 -5 -3c0 -1 -3 -2 -5 -3l-8 -4c-4 -3 -7 -2 -12 2c-1 1 -3 2 -5 3s-4 2 -4 3c0 0 -2 1 -5 2s-6 3 -7 4s-4 3 -6 3c-2 1 -4 2 -5 3s-4 3 -7 4s-5 3 -7 5l-2 3v30v31l2 2c1 2 4 4 7 5c3 2 6 3 6 4c0 0 3 2 7 3c3 2 6 4 7 4c0 1 3 3 5 4c3 1 5 2 5 2c0 1 2 2 4 3
c3 1 6 3 8 4z" />
  </g>
</svg>
